<?xml version="1.0" encoding="iso-8859-1"?>
<!-- Generator: Adobe Illustrator 23.0.3, SVG Export Plug-In . SVG Version: 6.00 Build 0)  -->
<svg version="1.1" id="Layer_1" xmlns="http://www.w3.org/2000/svg" xmlns:xlink="http://www.w3.org/1999/xlink" x="0px" y="0px"
	 viewBox="0 0 50 50" style="enable-background:new 0 0 50 50;" xml:space="preserve">
<g>
	<path d="M14.52,38.987l-2.261-0.994c-0.75-0.318-1.48-0.683-2.184-1.092c0.494-0.615,1.159-1.071,1.911-1.311
		c0.747-0.241,1.437-0.633,2.026-1.152c0.085-0.081,0.132-0.194,0.131-0.311c-0.004-0.165-0.082-0.32-0.213-0.42
		c-0.156-0.12-0.349-0.184-0.546-0.18h-0.317c-0.698,0.524-1.462,0.954-2.272,1.278c-0.803,0.331-1.564,0.756-2.266,1.267
		c-0.341,0.305-0.539,0.739-0.546,1.196c0.04,0.173,0.163,0.316,0.328,0.382c0.147,0.049,0.3,0.109,0.448,0.169
		c1.493,0.633,2.894,1.314,4.205,2.042c0.174,0.126,0.338,0.265,0.491,0.415c0.1,0.044,0.208,0.066,0.317,0.066
		c0.269,0.002,0.53-0.091,0.737-0.262c0.211-0.15,0.322-0.404,0.289-0.661C14.807,39.23,14.695,39.057,14.52,38.987z"/>
	<path d="M36.652,33.996l0.076,0.027l-0.792-0.344c-0.267-0.121-0.554-0.191-0.846-0.208c-0.08-0.011-0.161-0.011-0.24,0
		c-0.156,0.014-0.3,0.091-0.399,0.213c-0.119,0.101-0.195,0.243-0.213,0.399c-0.011,0.034-0.011,0.07,0,0.104
		c0.352,0.372,0.803,0.635,1.3,0.759c0.497,0.153,0.994,0.3,1.48,0.437c0.492,0.163,0.91,0.496,1.18,0.939
		c0.005,0.02,0.005,0.04,0,0.06c0,0.093-0.224,0.246-0.655,0.464c-0.218,0.126-0.546,0.404-1.092,0.819
		c-0.341,0.279-0.706,0.525-1.092,0.737c-0.328,0.146-0.615,0.372-0.835,0.655c-0.005,0.005-0.01,0.01-0.014,0.016
		c-0.174,0.2-0.153,0.504,0.047,0.678c0.104,0.1,0.243,0.155,0.388,0.153c0.103-0.002,0.204-0.028,0.295-0.076
		c0.704-0.444,1.381-0.931,2.026-1.458c0.654-0.542,1.336-1.051,2.042-1.524c0.393-0.24,0.584-0.491,0.584-0.748
		c-0.013-0.172-0.106-0.328-0.251-0.42C38.779,34.904,37.759,34.33,36.652,33.996z"/>
	<path d="M22.743,33.494v-0.011c-0.186-0.289-0.419-0.546-0.688-0.759c-0.216-0.15-0.474-0.229-0.737-0.224
		c-0.088-0.002-0.176,0.015-0.257,0.049l-1.638,0.546c-0.104,0.032-0.213,0.047-0.322,0.044c-0.194,0.014-0.387-0.04-0.546-0.153
		c-0.199-0.173-0.367-0.378-0.497-0.606l-0.453,0.306c0.192,0.322,0.44,0.606,0.732,0.841c0.23,0.144,0.499,0.215,0.77,0.202
		c0.139-0.001,0.276-0.021,0.41-0.06l1.513-0.546c0.103-0.04,0.212-0.06,0.322-0.06c0.166-0.011,0.331,0.033,0.47,0.126
		c0.191,0.156,0.357,0.34,0.491,0.546L22.743,33.494z"/>
	<path d="M27.401,42.275c-2.474-0.137-2.96,2.01-1.234,3.549c2.496,2.244,8.568,1.753,7.738-3.216
		C30.858,45.196,29.586,42.389,27.401,42.275z"/>
	<path d="M21.957,42.275c-2.184,0.115-3.457,2.921-6.504,0.333c-0.83,4.969,5.242,5.461,7.738,3.216
		C24.917,44.284,24.431,42.138,21.957,42.275z"/>
	<path d="M20.395,35.11c-0.44-0.017-0.87,0.14-1.196,0.437c-0.369,0.362-0.525,0.888-0.415,1.393
		c0.053,0.475,0.243,0.924,0.546,1.294c0.257,0.344,0.662,0.547,1.092,0.546c0.282-0.005,0.557-0.08,0.803-0.218
		c0.491-0.295,0.732-0.852,0.732-1.687c0.063-0.548-0.135-1.094-0.535-1.474C21.118,35.2,20.759,35.099,20.395,35.11z
		 M20.373,37.376c-0.302,0-0.546-0.244-0.546-0.546c0-0.302,0.244-0.546,0.546-0.546c0.302,0,0.546,0.244,0.546,0.546
		C20.919,37.132,20.675,37.376,20.373,37.376z"/>
	<path d="M25.905,41.559c0.112-0.09,0.216-0.188,0.311-0.295c0.09-0.102,0.171-0.211,0.24-0.328c0.066-0.103,0.125-0.21,0.175-0.322
		c0.039-0.081,0.07-0.165,0.093-0.251v-0.049c-0.011-0.015-0.02-0.032-0.027-0.049c-0.142,0.219-0.319,0.412-0.524,0.573
		c-0.157,0.148-0.343,0.261-0.546,0.333c-0.205,0.071-0.422,0.106-0.639,0.104c-0.185,0.003-0.369-0.023-0.546-0.076
		c-0.152-0.048-0.294-0.122-0.42-0.218c-0.128-0.103-0.244-0.22-0.344-0.349c-0.105-0.142-0.197-0.294-0.273-0.453
		c-0.012,0.012-0.021,0.027-0.027,0.044c0,0,0,0.033,0,0.044c0.075,0.209,0.17,0.41,0.284,0.601
		c0.103,0.183,0.232,0.351,0.382,0.497c0.135,0.141,0.294,0.258,0.47,0.344c0.173,0.073,0.358,0.114,0.546,0.12l0.022,0.022
		c0.151,0.001,0.301-0.027,0.442-0.082C25.659,41.714,25.787,41.644,25.905,41.559z"/>
	<path d="M27.674,35.514c-0.367,0.363-0.521,0.889-0.41,1.393c0.05,0.476,0.24,0.926,0.546,1.294
		c0.258,0.344,0.662,0.546,1.092,0.546c0.282-0.004,0.558-0.079,0.803-0.218c0.537-0.384,0.82-1.032,0.737-1.687
		c-0.027-0.737-0.202-1.234-0.546-1.474c-0.304-0.202-0.662-0.305-1.027-0.295C28.429,35.057,28,35.216,27.674,35.514z
		 M29.242,36.891c0,0.302-0.245,0.546-0.546,0.546c-0.302,0-0.546-0.244-0.546-0.546c0-0.302,0.244-0.546,0.546-0.546
		C28.997,36.344,29.242,36.589,29.242,36.891z"/>
	<path d="M15.79,30.458c2.622-1.274,8.763-4.257,17.236,1.041c0.162,0.101,0.345,0.152,0.53,0.152c0.135,0,0.271-0.027,0.398-0.083
		c0.302-0.131,0.52-0.402,0.583-0.725c0.205-1.043,0.279-2.717,0.212-4.08l0.061-0.298c0.081-0.395,0.162-0.795,0.247-1.191
		c0.792-1.762,2.193-3.466,3.549-5.114c2.125-2.583,4.322-5.254,4.132-8.239c-0.009-0.136-0.045-0.269-0.106-0.39
		c-0.313-0.616-0.662-1.216-1.096-1.889l-0.085-0.134c-0.101-0.158-0.202-0.315-0.306-0.464c-0.078-0.112-0.157-0.217-0.236-0.321
		L40.824,8.61c-0.159-0.212-0.317-0.423-0.48-0.623c-0.088-0.106-0.175-0.207-0.291-0.338c-0.181-0.208-0.361-0.41-0.545-0.601
		l-0.243-0.246c-0.213-0.211-0.427-0.411-0.637-0.595l-0.153-0.133c-2.659-2.268-5.39-2.865-7.053-3.229l-0.927-0.208
		c-2.888-0.554-5.994-1.004-9.221-0.542c-1.186,0.258-2.333,0.675-3.357,1.213c-1.29,0.586-2.624,1.192-3.83,1.278
		c-0.061,0.004-0.12,0.014-0.179,0.029c-1.686,0.435-3.139,1.476-4.075,2.906L9.681,7.741C9.65,7.787,9.622,7.834,9.598,7.884
		c-0.825,1.726-1.045,3.704-0.6,5.638c0.286,0.935,0.627,1.833,0.957,2.703l0.101,0.264c0.771,1.809,1.331,3.709,1.666,5.648
		c0.017,0.098,0.048,0.192,0.092,0.28c0.329,0.652,0.586,1.34,0.773,2.078c0.083,0.289,0.168,0.585,0.26,0.884
		c0.026,0.085,0.077,0.154,0.122,0.226c0.002,0.105,0.015,0.21,0.05,0.312l1.389,3.973c0.094,0.27,0.299,0.486,0.563,0.594
		C15.236,30.592,15.534,30.583,15.79,30.458z M39.506,10.191c0.088,0.126,0.174,0.26,0.26,0.395l0.09,0.141
		c0.351,0.543,0.638,1.031,0.894,1.519c0.022,2.135-1.782,4.327-3.688,6.644c-0.742,0.901-1.495,1.818-2.176,2.77
		c1.539-3.94,3.025-7.866,4.328-11.86c0.002,0.002,0.003,0.004,0.005,0.007l0.093,0.123C39.378,10.015,39.443,10.101,39.506,10.191z
		 M37.306,7.709c0.184,0.161,0.367,0.333,0.551,0.515l0.212,0.214c0.158,0.165,0.315,0.34,0.505,0.559
		c0.075,0.086,0.15,0.171,0.223,0.259c0.11,0.135,0.218,0.28,0.327,0.424c-1.848,0.718-4.917,7.532-5.335,13.693
		c-0.073,0.129-0.148,0.256-0.216,0.386c-0.835-0.702-2.021-1.209-3.087-1.548c-0.168-0.053-0.35-0.101-0.526-0.151
		c0.16-2.416,0.388-4.947,0.607-7.237c0.71-3.76,2.528-5.688,3.2-9.246c1.076,0.413,2.249,1.028,3.409,2.017L37.306,7.709z
		 M31.025,4.806c0.693,0.152,1.551,0.346,2.487,0.682c-1.62,2.897-2.713,6.061-3.211,9.347c-0.358,2.376-0.522,4.775-0.52,7.175
		c-1.218-0.333-2.612-0.579-4.08-0.705c-0.058-1.275-0.1-2.573-0.047-3.302c0.174-2.415,0.376-9.881,1.84-13.842
		c0.835,0.116,1.693,0.261,2.593,0.434L31.025,4.806z M27.44,4.154c-3.258,4.851-2.702,11.412-1.943,17.134
		c-0.994-0.077-2.014-0.099-3.035-0.049c-0.578-3.406-1.182-7.682-1.697-11.051c-0.154-1.517-0.02-3.049,0.393-4.516
		c0.41-0.883,0.448-1.381,0.816-1.648C23.761,3.809,25.535,3.892,27.44,4.154z M18.795,5.105c0.854-0.448,1.759-0.774,2.639-0.986
		c-0.443,0.375-0.766,0.966-0.986,1.716c-0.369,1.525-0.494,3.099-0.371,4.664c0.244,3.654,0.906,7.261,1.926,10.771
		c-0.964,0.068-1.921,0.195-2.844,0.401c-0.7-2.413-0.577-5.155-0.803-7.711c-0.229-2.922-1.19-5.69-2.414-7.328
		c-0.084-0.2-0.075-0.3-0.05-0.382c0.532-0.156,1.057-0.346,1.573-0.562c0.061,0.034,0.122,0.067,0.177,0.111l0.021-0.024
		c-0.054-0.038-0.112-0.066-0.169-0.099C17.936,5.49,18.373,5.298,18.795,5.105z M14.329,6.575c0.418-0.037,0.835-0.121,1.251-0.229
		c0.049,0.14,0.125,0.271,0.226,0.384c1.212,1.644,1.447,4.319,1.709,7.235c0.223,2.571,0.479,5.327,1.428,7.755
		c-0.809,0.193-1.585,0.448-2.317,0.766c-0.598-2.163-0.882-4.601-1.333-6.806c-0.612-2.982-0.693-5.652-1.704-6.466
		c-0.388-0.535-1.425-0.486-0.934-1.469c0.117-0.21,0.261-0.402,0.401-0.598C13.452,6.905,13.873,6.7,14.329,6.575z M14.453,23.765
		c-0.198-0.725-0.456-1.436-0.787-2.113c-0.364-2.042-0.959-4.041-1.756-5.91l-0.086-0.227c-0.318-0.839-0.647-1.706-0.896-2.508
		c-0.32-1.401-0.164-2.886,0.44-4.189l0.121-0.173c0.333-0.509,0.752-0.946,1.234-1.297c-0.094,0.128-0.187,0.258-0.254,0.404
		c-0.181,0.334-0.259,0.714-0.224,1.092c0.031,0.198,0.11,0.385,0.229,0.546c0.999,0.797,1.518,3.331,2.124,6.302
		c0.457,2.239,0.986,4.715,1.795,6.905C15.693,22.92,15.042,23.308,14.453,23.765z M29.881,24.119
		c2.221,0.706,2.75,1.447,2.771,1.661c0.037,0.246,0.063,0.544,0.082,0.86l-0.005,0.026c-0.034,0.163-0.014,0.321,0.029,0.471
		c0.019,0.61,0.013,1.267-0.021,1.875c-3.487-1.902-6.624-2.539-9.297-2.539c-3.266,0-5.839,0.951-7.509,1.706l-0.824-2.356
		C18.331,22.667,25.628,22.766,29.881,24.119z"/>
	<path d="M17.663,5.813c-0.006-0.005-0.014-0.008-0.021-0.014L17.63,5.813H17.663z"/>
</g>
</svg>