<?xml version="1.0" encoding="iso-8859-1"?>
<!-- Uploaded to: SVG Repo, www.svgrepo.com, Generator: SVG Repo Mixer Tools -->
<svg height="800px" width="800px" version="1.1" id="Layer_1" xmlns="http://www.w3.org/2000/svg" xmlns:xlink="http://www.w3.org/1999/xlink" 
	 viewBox="0 0 512 512" xml:space="preserve">
<path style="fill:#FAEC8E;" d="M251.391,7.374c-94.977,0-172.247,77.27-172.247,172.247c0,60.785,32.171,117.102,84.28,148.106
	v58.38c0,4.365,3.537,7.901,7.901,7.901h160.132c4.365,0,7.901-3.537,7.901-7.901v-58.38c52.109-31.004,84.28-87.321,84.28-148.106
	C423.638,84.644,346.368,7.374,251.391,7.374z"/>
<path style="fill:#FBC96C;" d="M199.77,386.107v-58.38c-52.109-31.004-84.28-87.321-84.28-148.106
	c0-88.839,67.607-162.18,154.074-171.288c-5.973-0.63-12.035-0.959-18.173-0.959c-94.977,0-172.247,77.27-172.247,172.247
	c0,60.785,32.171,117.102,84.28,148.106v58.38c0,4.365,3.537,7.901,7.901,7.901h36.346
	C203.306,394.008,199.77,390.472,199.77,386.107z"/>
<circle style="fill:#FFFFFF;" cx="251.386" cy="188.049" r="48.988"/>
<path style="fill:#439EE8;" d="M347.786,215.16v-54.222c9.787-3.306,16.856-12.568,16.856-23.457
	c0-13.651-11.106-24.757-24.757-24.757c-5.98,0-11.717,2.218-16.162,6.047l-48.027-27.181c0.297-1.538,0.452-3.104,0.452-4.676
	c0-13.651-11.106-24.757-24.757-24.757c-13.651,0-24.757,11.106-24.757,24.757c0,1.675,0.176,3.342,0.513,4.975l-47.303,27.549
	c-4.512-4.252-10.522-6.713-16.948-6.713c-13.651,0-24.757,11.106-24.757,24.757c0,10.889,7.069,20.151,16.856,23.457v54.222
	c-9.787,3.306-16.856,12.568-16.856,23.457c0,13.651,11.106,24.757,24.757,24.757c6.298,0,12.245-2.401,16.746-6.538l47.765,26.247
	c-0.504,1.98-0.775,4.023-0.775,6.102c0,13.651,11.106,24.757,24.757,24.757s24.757-11.106,24.757-24.757
	c0-2.181-0.3-4.321-0.854-6.389l47.131-26.674c4.572,4.549,10.835,7.252,17.46,7.252c13.651,0,24.757-11.106,24.757-24.757
	C364.642,227.728,357.573,218.466,347.786,215.16z M266.515,269.606c-4.287-3.311-9.596-5.178-15.124-5.178
	c-5.645,0-11.041,1.934-15.363,5.359l-48.771-26.8c0.258-1.439,0.397-2.901,0.397-4.37c0-10.889-7.069-20.151-16.856-23.457v-54.222
	c9.787-3.306,16.856-12.568,16.856-23.457c0-1.373-0.124-2.744-0.354-4.099l47.815-27.847c4.454,3.887,10.228,6.136,16.275,6.136
	c6.17,0,12.03-2.324,16.509-6.335l47.77,27.036c-0.356,1.675-0.543,3.387-0.543,5.109c0,10.889,7.069,20.151,16.856,23.457v54.222
	c-9.787,3.306-16.856,12.568-16.856,23.457c0,1.126,0.085,2.24,0.236,3.343L266.515,269.606z"/>
<path style="fill:#FF675C;" d="M356.741,348.708h-210.7c-4.365,0-7.901,3.537-7.901,7.901v147.49c0,4.365,3.537,7.901,7.901,7.901
	h210.7c4.365,0,7.901-3.537,7.901-7.901v-147.49C364.642,352.244,361.105,348.708,356.741,348.708z"/>
<path style="fill:#DB3D5A;" d="M364.642,415.078v-15.802H169.218v-50.568h-23.177c-4.365,0-7.901,3.537-7.901,7.901v42.667v15.802
	v34.765v15.802v38.453c0,4.365,3.537,7.901,7.901,7.901h210.7c4.365,0,7.901-3.537,7.901-7.901v-18.963H174.486
	c-2.909,0-5.267-2.359-5.267-5.267v-14.222h195.424v-15.802H169.218v-34.765H364.642z"/>
<g>
	<path style="fill:#5CC4E0;" d="M106.922,307.69c-5.37-0.716-18.898-3.709-28.539-16.006c-6.502-8.291-8.414-17.15-8.876-23.122
		c-0.316-4.116-3.748-7.294-7.877-7.294s-7.561,3.178-7.878,7.294c-0.461,5.972-2.374,14.831-8.876,23.122
		c-9.642,12.297-23.17,15.29-28.539,16.006c-3.924,0.525-6.855,3.873-6.855,7.833c0,3.96,2.931,7.309,6.856,7.833
		c5.37,0.716,18.898,3.709,28.539,16.006c6.502,8.291,8.414,17.15,8.876,23.122c0.316,4.116,3.748,7.294,7.877,7.294
		s7.561-3.178,7.878-7.294c0.461-5.972,2.374-14.831,8.876-23.122c9.642-12.297,23.17-15.29,28.539-16.006
		c3.925-0.524,6.856-3.873,6.856-7.833C113.779,311.563,110.847,308.215,106.922,307.69z"/>
	<path style="fill:#5CC4E0;" d="M405.078,62.088c5.37,0.716,18.898,3.709,28.539,16.006c6.502,8.291,8.414,17.15,8.876,23.122
		c0.317,4.116,3.749,7.294,7.878,7.294c4.129,0,7.561-3.178,7.878-7.294c0.461-5.972,2.374-14.831,8.876-23.122
		c9.642-12.297,23.17-15.29,28.539-16.006c3.923-0.524,6.854-3.873,6.854-7.833s-2.931-7.309-6.856-7.833
		c-5.37-0.716-18.898-3.709-28.539-16.006c-6.502-8.291-8.414-17.15-8.876-23.122C457.931,3.178,454.499,0,450.37,0
		s-7.561,3.178-7.878,7.294c-0.461,5.972-2.374,14.831-8.876,23.122c-9.642,12.297-23.17,15.29-28.539,16.006
		c-3.924,0.525-6.855,3.873-6.855,7.833S401.153,61.564,405.078,62.088z"/>
	<path style="fill:#5CC4E0;" d="M106.922,46.422c-5.37-0.716-18.898-3.709-28.539-16.006c-6.502-8.291-8.414-17.15-8.876-23.122
		C69.191,3.178,65.758,0,61.63,0s-7.561,3.178-7.878,7.294c-0.461,5.972-2.374,14.831-8.876,23.122
		c-9.642,12.297-23.17,15.29-28.539,16.006c-3.924,0.525-6.855,3.873-6.855,7.833s2.931,7.309,6.856,7.833
		c5.37,0.716,18.898,3.709,28.539,16.006c6.502,8.291,8.414,17.15,8.876,23.122c0.316,4.116,3.748,7.294,7.877,7.294
		s7.561-3.178,7.878-7.294c0.461-5.972,2.374-14.831,8.876-23.122c9.642-12.297,23.17-15.29,28.539-16.006
		c3.924-0.524,6.855-3.873,6.855-7.833S110.847,46.947,106.922,46.422z"/>
	<path style="fill:#5CC4E0;" d="M494.609,306.636c-5.37-0.716-18.898-3.709-28.539-16.006c-6.502-8.291-8.414-17.15-8.876-23.122
		c-0.317-4.116-3.749-7.294-7.878-7.294s-7.561,3.178-7.878,7.294c-0.461,5.972-2.374,14.831-8.876,23.122
		c-9.642,12.297-23.17,15.29-28.539,16.006c-3.925,0.524-6.856,3.873-6.856,7.833c0,3.96,2.931,7.309,6.856,7.833
		c5.37,0.716,18.898,3.709,28.539,16.006c6.502,8.291,8.414,17.15,8.876,23.122c0.317,4.116,3.749,7.294,7.878,7.294
		s7.561-3.178,7.878-7.294c0.461-5.972,2.374-14.831,8.876-23.122c9.642-12.297,23.17-15.29,28.539-16.006
		c3.925-0.524,6.856-3.873,6.856-7.833C501.465,310.509,498.534,307.161,494.609,306.636z"/>
</g>
</svg>