<?xml version="1.0" encoding="UTF-8"?>
<!DOCTYPE svg PUBLIC "-//W3C//DTD SVG 1.1//EN" "http://www.w3.org/Graphics/SVG/1.1/DTD/svg11.dtd">
<svg xmlns="http://www.w3.org/2000/svg" version="1.1" width="127px" height="127px" style="shape-rendering:geometricPrecision; text-rendering:geometricPrecision; image-rendering:optimizeQuality; fill-rule:evenodd; clip-rule:evenodd" xmlns:xlink="http://www.w3.org/1999/xlink">
<g><path style="opacity:0.986" fill="#57bef2" d="M 90.5,21.5 C 79.0117,21.8566 67.5117,21.8566 56,21.5C 55.3333,22.1667 54.6667,22.8333 54,23.5C 52,22.8333 50,22.1667 48,21.5C 44.01,22.6324 39.8433,22.6324 35.5,21.5C 41.2729,17.7743 47.2729,14.2743 53.5,11C 59.8333,9 66.1667,9 72.5,11C 78.7271,14.2743 84.7271,17.7743 90.5,21.5 Z"/></g>
<g><path style="opacity:1" fill="#4db6f3" d="M 35.5,21.5 C 39.8433,22.6324 44.01,22.6324 48,21.5C 50,22.1667 52,22.8333 54,23.5C 54.6667,22.8333 55.3333,22.1667 56,21.5C 67.5117,21.8566 79.0117,21.8566 90.5,21.5C 97.6707,25.2505 104.671,29.2505 111.5,33.5C 107.384,34.6089 103.55,34.2756 100,32.5C 75.8553,33.5049 51.8553,33.5049 28,32.5C 26,33.1667 24,33.8333 22,34.5C 19.6873,33.129 17.5207,32.4624 15.5,32.5C 22.1938,28.8211 28.8605,25.1544 35.5,21.5 Z"/></g>
<g><path style="opacity:0.996" fill="#48b1f4" d="M 15.5,32.5 C 17.5207,32.4624 19.6873,33.129 22,34.5C 24,33.8333 26,33.1667 28,32.5C 51.8553,33.5049 75.8553,33.5049 100,32.5C 103.55,34.2756 107.384,34.6089 111.5,33.5C 113.256,34.5521 113.923,36.2188 113.5,38.5C 112.844,39.2778 112.011,39.9444 111,40.5C 109.584,39.4267 108.25,39.4267 107,40.5C 106.333,39.8333 105.667,39.1667 105,38.5C 103.077,39.3161 101.077,39.9828 99,40.5C 77.7332,39.6158 55.8999,39.2825 33.5,39.5C 32.7025,39.9569 32.3691,40.6236 32.5,41.5C 27.9647,38.2869 22.9647,36.4536 17.5,36C 16.4238,37.7261 16.2571,39.5594 17,41.5C 21.3155,42.9406 25.4821,44.774 29.5,47C 31.4206,48.2408 31.754,49.7408 30.5,51.5C 26.5465,48.6901 22.2132,46.6901 17.5,45.5C 16.7025,45.9569 16.3691,46.6236 16.5,47.5C 15.5,47.5 14.5,47.5 13.5,47.5C 13.3342,42.8215 13.5008,38.1548 14,33.5C 14.3826,32.944 14.8826,32.6107 15.5,32.5 Z"/></g>
<g><path style="opacity:1" fill="#f6fafe" d="M 32.5,41.5 C 35.7861,43.4512 38.7861,45.7846 41.5,48.5C 43.5293,50.8585 45.5293,53.1918 47.5,55.5C 49.1807,58.2028 50.8474,60.8695 52.5,63.5C 52.9925,65.8185 53.9925,67.8185 55.5,69.5C 56.6641,73.6589 57.9974,77.6589 59.5,81.5C 59.5651,84.4282 60.2318,87.0948 61.5,89.5C 61.1984,92.0593 61.5318,94.3926 62.5,96.5C 62.5,100.167 62.5,103.833 62.5,107.5C 62.8016,110.059 62.4682,112.393 61.5,114.5C 59.5659,113.89 57.8993,112.89 56.5,111.5C 56.6485,102.024 55.6485,92.6907 53.5,83.5C 51.2043,73.9094 47.0377,65.2427 41,57.5C 39.9887,56.6634 38.8221,56.33 37.5,56.5C 42.6331,65.1 46.9664,74.1 50.5,83.5C 52.0784,92.0848 52.7451,100.751 52.5,109.5C 50.6137,108.639 48.7804,107.639 47,106.5C 46.5014,102.848 46.3347,99.1817 46.5,95.5C 46.2716,88.8145 44.2716,82.8145 40.5,77.5C 40.1667,78.3333 39.8333,79.1667 39.5,80C 40.7751,84.2952 42.1085,88.4619 43.5,92.5C 43.6655,96.5138 43.4988,100.514 43,104.5C 40.1761,103.182 37.6761,101.515 35.5,99.5C 35.8299,89.8283 33.1632,81.1616 27.5,73.5C 24.781,69.6162 21.281,66.6162 17,64.5C 16.1786,61.4459 16.3452,58.4459 17.5,55.5C 25.3098,60.143 31.6431,66.3097 36.5,74C 38.6667,74.5 39.5,73.6667 39,71.5C 33.7274,62.3835 26.2274,56.0502 16.5,52.5C 16.5,50.8333 16.5,49.1667 16.5,47.5C 16.3691,46.6236 16.7025,45.9569 17.5,45.5C 22.2132,46.6901 26.5465,48.6901 30.5,51.5C 31.754,49.7408 31.4206,48.2408 29.5,47C 25.4821,44.774 21.3155,42.9406 17,41.5C 16.2571,39.5594 16.4238,37.7261 17.5,36C 22.9647,36.4536 27.9647,38.2869 32.5,41.5 Z"/></g>
<g><path style="opacity:0.988" fill="#42adf5" d="M 113.5,38.5 C 113.5,41.8333 113.5,45.1667 113.5,48.5C 111.97,47.9332 110.47,47.2666 109,46.5C 93.2932,47.2473 77.2932,47.2473 61,46.5C 54.4009,47.1495 47.9009,47.8162 41.5,48.5C 38.7861,45.7846 35.7861,43.4512 32.5,41.5C 32.3691,40.6236 32.7025,39.9569 33.5,39.5C 55.8999,39.2825 77.7332,39.6158 99,40.5C 101.077,39.9828 103.077,39.3161 105,38.5C 105.667,39.1667 106.333,39.8333 107,40.5C 108.25,39.4267 109.584,39.4267 111,40.5C 112.011,39.9444 112.844,39.2778 113.5,38.5 Z"/></g>
<g><path style="opacity:0.991" fill="#3ba8f6" d="M 113.5,48.5 C 113.5,49.5 113.5,50.5 113.5,51.5C 111.932,52.8695 110.099,53.8695 108,54.5C 89.0455,53.9939 70.3788,53.6606 52,53.5C 50.3775,54.0989 48.8775,54.7656 47.5,55.5C 45.5293,53.1918 43.5293,50.8585 41.5,48.5C 47.9009,47.8162 54.4009,47.1495 61,46.5C 77.2932,47.2473 93.2932,47.2473 109,46.5C 110.47,47.2666 111.97,47.9332 113.5,48.5 Z"/></g>
<g><path style="opacity:1" fill="#43a6f8" d="M 13.5,47.5 C 14.5,47.5 15.5,47.5 16.5,47.5C 16.5,49.1667 16.5,50.8333 16.5,52.5C 26.2274,56.0502 33.7274,62.3835 39,71.5C 39.5,73.6667 38.6667,74.5 36.5,74C 31.6431,66.3097 25.3098,60.143 17.5,55.5C 16.3452,58.4459 16.1786,61.4459 17,64.5C 21.281,66.6162 24.781,69.6162 27.5,73.5C 26.1667,73.5 25.5,74.1667 25.5,75.5C 22.7673,72.7606 19.7673,70.4273 16.5,68.5C 15.5,69.8333 14.5,69.8333 13.5,68.5C 13.5,61.5 13.5,54.5 13.5,47.5 Z"/></g>
<g><path style="opacity:0.992" fill="#35a2f7" d="M 113.5,51.5 C 113.5,54.8333 113.5,58.1667 113.5,61.5C 96.8121,62.124 79.8121,62.124 62.5,61.5C 59.0287,62.0973 55.6954,62.764 52.5,63.5C 50.8474,60.8695 49.1807,58.2028 47.5,55.5C 48.8775,54.7656 50.3775,54.0989 52,53.5C 70.3788,53.6606 89.0455,53.9939 108,54.5C 110.099,53.8695 111.932,52.8695 113.5,51.5 Z"/></g>
<g><path style="opacity:0.99" fill="#2f9ef8" d="M 113.5,61.5 C 113.5,63.1667 113.5,64.8333 113.5,66.5C 112.732,67.2625 112.232,68.2625 112,69.5C 108.365,69.6753 104.698,69.0086 101,67.5C 95,68.1667 89,68.8333 83,69.5C 81.6667,68.1667 80.3333,68.1667 79,69.5C 78.6924,68.6919 78.1924,68.0253 77.5,67.5C 69.6195,68.412 62.2862,69.0786 55.5,69.5C 53.9925,67.8185 52.9925,65.8185 52.5,63.5C 55.6954,62.764 59.0287,62.0973 62.5,61.5C 79.8121,62.124 96.8121,62.124 113.5,61.5 Z"/></g>
<g><path style="opacity:1" fill="#f1f7fe" d="M 16.5,68.5 C 19.7673,70.4273 22.7673,72.7606 25.5,75.5C 29.7259,82.1844 31.7259,89.5178 31.5,97.5C 30.609,96.8902 29.609,96.5569 28.5,96.5C 25.0672,93.9415 21.4005,91.6081 17.5,89.5C 15.9924,81.2949 17.3257,80.6282 21.5,87.5C 22.325,88.3857 23.325,88.719 24.5,88.5C 24.1326,83.7577 21.7993,80.4244 17.5,78.5C 16.513,75.2317 16.1796,71.8984 16.5,68.5 Z"/></g>
<g><path style="opacity:1" fill="#42a2f9" d="M 53.5,83.5 C 52.5,83.5 51.5,83.5 50.5,83.5C 46.9664,74.1 42.6331,65.1 37.5,56.5C 38.8221,56.33 39.9887,56.6634 41,57.5C 47.0377,65.2427 51.2043,73.9094 53.5,83.5 Z"/></g>
<g><path style="opacity:1" fill="#2798f9" d="M 113.5,66.5 C 113.5,69.8333 113.5,73.1667 113.5,76.5C 112.493,77.8284 111.16,78.8284 109.5,79.5C 93.1084,78.7794 77.1084,78.4461 61.5,78.5C 60.0815,79.0047 59.4148,80.0047 59.5,81.5C 57.9974,77.6589 56.6641,73.6589 55.5,69.5C 62.2862,69.0786 69.6195,68.412 77.5,67.5C 78.1924,68.0253 78.6924,68.6919 79,69.5C 80.3333,68.1667 81.6667,68.1667 83,69.5C 89,68.8333 95,68.1667 101,67.5C 104.698,69.0086 108.365,69.6753 112,69.5C 112.232,68.2625 112.732,67.2625 113.5,66.5 Z"/></g>
<g><path style="opacity:1" fill="#1e92fa" d="M 113.5,76.5 C 113.5,79.1667 113.5,81.8333 113.5,84.5C 112.596,85.209 112.263,86.209 112.5,87.5C 109.641,87.5918 107.141,87.9251 105,88.5C 103.518,86.2189 101.851,86.2189 100,88.5C 97.3333,87.1667 94.6667,87.1667 92,88.5C 91.3333,85.8333 90.6667,85.8333 90,88.5C 88.3333,87.8333 86.6667,87.1667 85,86.5C 84.6667,87.1667 84.3333,87.8333 84,88.5C 78.8289,86.6868 73.4956,86.6868 68,88.5C 65.6268,87.457 63.4601,87.7903 61.5,89.5C 60.2318,87.0948 59.5651,84.4282 59.5,81.5C 59.4148,80.0047 60.0815,79.0047 61.5,78.5C 77.1084,78.4461 93.1084,78.7794 109.5,79.5C 111.16,78.8284 112.493,77.8284 113.5,76.5 Z"/></g>
<g><path style="opacity:1" fill="#3898fb" d="M 46.5,95.5 C 45.7321,94.7375 45.2321,93.7375 45,92.5C 44.31,91.2617 43.81,91.2617 43.5,92.5C 42.1085,88.4619 40.7751,84.2952 39.5,80C 39.8333,79.1667 40.1667,78.3333 40.5,77.5C 44.2716,82.8145 46.2716,88.8145 46.5,95.5 Z"/></g>
<g><path style="opacity:0.982" fill="#178cfb" d="M 113.5,84.5 C 113.663,86.8568 113.497,89.1902 113,91.5C 109.924,93.4257 106.758,95.0924 103.5,96.5C 89.6753,95.7984 76.0086,95.7984 62.5,96.5C 61.5318,94.3926 61.1984,92.0593 61.5,89.5C 63.4601,87.7903 65.6268,87.457 68,88.5C 73.4956,86.6868 78.8289,86.6868 84,88.5C 84.3333,87.8333 84.6667,87.1667 85,86.5C 86.6667,87.1667 88.3333,87.8333 90,88.5C 90.6667,85.8333 91.3333,85.8333 92,88.5C 94.6667,87.1667 97.3333,87.1667 100,88.5C 101.851,86.2189 103.518,86.2189 105,88.5C 107.141,87.9251 109.641,87.5918 112.5,87.5C 112.263,86.209 112.596,85.209 113.5,84.5 Z"/></g>
<g><path style="opacity:0.96" fill="#2d93fb" d="M 13.5,68.5 C 14.5,69.8333 15.5,69.8333 16.5,68.5C 16.1796,71.8984 16.513,75.2317 17.5,78.5C 21.7993,80.4244 24.1326,83.7577 24.5,88.5C 23.325,88.719 22.325,88.3857 21.5,87.5C 17.3257,80.6282 15.9924,81.2949 17.5,89.5C 21.4005,91.6081 25.0672,93.9415 28.5,96.5C 26.5,96.5 24.5,96.5 22.5,96.5C 19.8864,95.1932 17.2198,93.8599 14.5,92.5C 13.5023,84.5277 13.169,76.5277 13.5,68.5 Z"/></g>
<g><path style="opacity:1" fill="#3798fb" d="M 27.5,73.5 C 33.1632,81.1616 35.8299,89.8283 35.5,99.5C 34.5326,98.1938 33.1993,97.5271 31.5,97.5C 31.7259,89.5178 29.7259,82.1844 25.5,75.5C 25.5,74.1667 26.1667,73.5 27.5,73.5 Z"/></g>
<g><path style="opacity:0.984" fill="#1286fc" d="M 103.5,96.5 C 98.4984,100.003 93.165,103.003 87.5,105.5C 80.4886,105.83 73.6552,105.497 67,104.5C 65.2714,104.974 64.1047,105.974 63.5,107.5C 63.1667,107.5 62.8333,107.5 62.5,107.5C 62.5,103.833 62.5,100.167 62.5,96.5C 76.0086,95.7984 89.6753,95.7984 103.5,96.5 Z"/></g>
<g><path style="opacity:1" fill="#3b95fc" d="M 50.5,83.5 C 51.5,83.5 52.5,83.5 53.5,83.5C 55.6485,92.6907 56.6485,102.024 56.5,111.5C 55.8365,109.958 55.1698,108.291 54.5,106.5C 53.8243,107.602 53.1577,108.602 52.5,109.5C 52.7451,100.751 52.0784,92.0848 50.5,83.5 Z"/></g>
<g><path style="opacity:0.983" fill="#0d81fe" d="M 46.5,95.5 C 46.3347,99.1817 46.5014,102.848 47,106.5C 48.7804,107.639 50.6137,108.639 52.5,109.5C 53.1577,108.602 53.8243,107.602 54.5,106.5C 55.1698,108.291 55.8365,109.958 56.5,111.5C 57.8993,112.89 59.5659,113.89 61.5,114.5C 61.56,115.043 61.8933,115.376 62.5,115.5C 63.48,112.914 63.8134,110.247 63.5,107.5C 64.1047,105.974 65.2714,104.974 67,104.5C 73.6552,105.497 80.4886,105.83 87.5,105.5C 79.5051,110.637 71.3384,115.637 63,120.5C 49.3543,112.6 35.8543,104.6 22.5,96.5C 24.5,96.5 26.5,96.5 28.5,96.5C 29.609,96.5569 30.609,96.8902 31.5,97.5C 33.1993,97.5271 34.5326,98.1938 35.5,99.5C 37.6761,101.515 40.1761,103.182 43,104.5C 43.4988,100.514 43.6655,96.5138 43.5,92.5C 43.81,91.2617 44.31,91.2617 45,92.5C 45.2321,93.7375 45.7321,94.7375 46.5,95.5 Z"/></g>
<g><path style="opacity:1" fill="#84bfff" d="M 62.5,107.5 C 62.8333,107.5 63.1667,107.5 63.5,107.5C 63.8134,110.247 63.48,112.914 62.5,115.5C 61.8933,115.376 61.56,115.043 61.5,114.5C 62.4682,112.393 62.8016,110.059 62.5,107.5 Z"/></g>
</svg>
