<?xml version="1.0" encoding="UTF-8"?>
<!DOCTYPE svg PUBLIC "-//W3C//DTD SVG 1.1//EN" "http://www.w3.org/Graphics/SVG/1.1/DTD/svg11.dtd">
<svg xmlns="http://www.w3.org/2000/svg" version="1.1" width="1128px" height="191px" style="shape-rendering:geometricPrecision; text-rendering:geometricPrecision; image-rendering:optimizeQuality; fill-rule:evenodd; clip-rule:evenodd" xmlns:xlink="http://www.w3.org/1999/xlink">
<g><path style="opacity:1" fill="#fefefe" d="M -0.5,-0.5 C 375.5,-0.5 751.5,-0.5 1127.5,-0.5C 1127.5,63.1667 1127.5,126.833 1127.5,190.5C 751.5,190.5 375.5,190.5 -0.5,190.5C -0.5,126.833 -0.5,63.1667 -0.5,-0.5 Z"/></g>
<g><path style="opacity:1" fill="#746f6f" d="M 165.5,41.5 C 176.95,39.9636 187.616,42.1303 197.5,48C 202.472,52.4453 205.472,57.9453 206.5,64.5C 201.873,64.3076 197.373,64.9742 193,66.5C 189.789,61.2993 185.289,57.466 179.5,55C 165.81,52.7591 156.977,58.2591 153,71.5C 150.661,83.5011 153.494,94.0011 161.5,103C 172.036,108.108 182.202,107.275 192,100.5C 192.498,97.1832 192.665,93.8499 192.5,90.5C 186.5,90.5 180.5,90.5 174.5,90.5C 174.5,86.1667 174.5,81.8333 174.5,77.5C 185.5,77.5 196.5,77.5 207.5,77.5C 207.666,87.8387 207.5,98.172 207,108.5C 194.359,117.869 180.192,121.369 164.5,119C 146.03,112.919 136.697,100.086 136.5,80.5C 136.746,60.2913 146.412,47.2913 165.5,41.5 Z"/></g>
<g><path style="opacity:1" fill="#746f6f" d="M 572.5,41.5 C 585.532,39.8749 596.699,43.5415 606,52.5C 608.166,55.333 609.666,58.4997 610.5,62C 610.095,62.9454 609.428,63.6121 608.5,64C 604.203,65.6703 599.87,66.1703 595.5,65.5C 591.232,56.6992 584.232,53.1992 574.5,55C 567.903,57.6669 563.737,62.5003 562,69.5C 560.864,78.673 561.531,87.673 564,96.5C 569.626,106.799 577.793,109.299 588.5,104C 592.792,100.915 595.125,96.7486 595.5,91.5C 600.31,92.0359 604.977,93.2025 609.5,95C 608.749,108.106 601.749,116.106 588.5,119C 559.82,121.325 545.487,107.992 545.5,79C 545.487,59.8671 554.487,47.3671 572.5,41.5 Z"/></g>
<g><path style="opacity:1" fill="#736e6e" d="M 784.5,41.5 C 789.899,41.309 795.233,41.809 800.5,43C 802.832,46.3229 802.832,49.8229 800.5,53.5C 791.366,50.6324 787.366,53.9658 788.5,63.5C 792.167,63.5 795.833,63.5 799.5,63.5C 799.5,67.5 799.5,71.5 799.5,75.5C 795.833,75.5 792.167,75.5 788.5,75.5C 788.5,89.8333 788.5,104.167 788.5,118.5C 783.833,118.5 779.167,118.5 774.5,118.5C 774.5,104.167 774.5,89.8333 774.5,75.5C 771.833,75.5 769.167,75.5 766.5,75.5C 766.5,71.5 766.5,67.5 766.5,63.5C 769.167,63.5 771.833,63.5 774.5,63.5C 771.983,53.2151 775.316,45.8818 784.5,41.5 Z"/></g>
<g><path style="opacity:1" fill="#777272" d="M 218.5,42.5 C 223.167,42.5 227.833,42.5 232.5,42.5C 232.5,47.1667 232.5,51.8333 232.5,56.5C 227.833,56.5 223.167,56.5 218.5,56.5C 218.5,51.8333 218.5,47.1667 218.5,42.5 Z"/></g>
<g><path style="opacity:1" fill="#736e6e" d="M 381.5,42.5 C 389.196,42.1692 396.862,42.5025 404.5,43.5C 409.307,60.0575 413.807,76.7241 418,93.5C 422.501,76.8277 427.001,60.161 431.5,43.5C 439.138,42.5025 446.804,42.1692 454.5,42.5C 454.5,67.8333 454.5,93.1667 454.5,118.5C 449.833,118.5 445.167,118.5 440.5,118.5C 440.667,98.8305 440.5,79.1638 440,59.5C 435.006,79.1437 430.172,98.8104 425.5,118.5C 420.5,118.5 415.5,118.5 410.5,118.5C 405.519,98.9069 400.685,79.2402 396,59.5C 395.5,79.1638 395.333,98.8305 395.5,118.5C 390.833,118.5 386.167,118.5 381.5,118.5C 381.5,93.1667 381.5,67.8333 381.5,42.5 Z"/></g>
<g><path style="opacity:1" fill="#777272" d="M 746.5,42.5 C 751.167,42.5 755.833,42.5 760.5,42.5C 760.5,47.1667 760.5,51.8333 760.5,56.5C 755.833,56.5 751.167,56.5 746.5,56.5C 746.5,51.8333 746.5,47.1667 746.5,42.5 Z"/></g>
<g><path style="opacity:1" fill="#777272" d="M 804.5,42.5 C 809.167,42.5 813.833,42.5 818.5,42.5C 818.5,47.1667 818.5,51.8333 818.5,56.5C 813.833,56.5 809.167,56.5 804.5,56.5C 804.5,51.8333 804.5,47.1667 804.5,42.5 Z"/></g>
<g><path style="opacity:1" fill="#736e6e" d="M 676.5,118.5 C 676.5,100.5 676.5,82.5 676.5,64.5C 680.5,64.5 684.5,64.5 688.5,64.5C 688.192,66.924 688.526,69.2573 689.5,71.5C 690.107,71.3764 690.44,71.0431 690.5,70.5C 691.95,67.2155 694.283,64.7155 697.5,63C 703.495,62.8317 709.495,62.9983 715.5,63.5C 715.335,59.8183 715.501,56.1516 716,52.5C 720.333,49.8333 724.667,47.1667 729,44.5C 729.5,50.8246 729.666,57.1579 729.5,63.5C 732.833,63.5 736.167,63.5 739.5,63.5C 739.5,67.5 739.5,71.5 739.5,75.5C 736.167,75.5 732.833,75.5 729.5,75.5C 729.334,85.5056 729.5,95.5056 730,105.5C 730.956,106.894 732.289,107.561 734,107.5C 735.825,107.057 737.658,106.723 739.5,106.5C 740.141,110.423 740.141,114.257 739.5,118C 734.254,119.506 728.921,119.839 723.5,119C 720.898,118.117 718.731,116.617 717,114.5C 715.557,101.574 715.057,88.5742 715.5,75.5C 712.212,75.073 709.212,75.7397 706.5,77.5C 698.337,73.1679 693.17,75.5012 691,84.5C 690.5,95.8284 690.333,107.162 690.5,118.5C 685.833,118.5 681.167,118.5 676.5,118.5 Z"/></g>
<g><path style="opacity:1" fill="#736e6e" d="M 955.5,44.5 C 956.49,50.6446 956.823,56.9779 956.5,63.5C 959.833,63.5 963.167,63.5 966.5,63.5C 966.5,67.5 966.5,71.5 966.5,75.5C 963.167,75.5 959.833,75.5 956.5,75.5C 956.334,85.5056 956.5,95.5056 957,105.5C 957.5,106 958,106.5 958.5,107C 961.277,107.051 963.943,107.218 966.5,107.5C 970.228,116.939 967.062,120.939 957,119.5C 949.802,120.244 945.136,117.244 943,110.5C 942.5,98.8381 942.333,87.1714 942.5,75.5C 940.167,75.5 937.833,75.5 935.5,75.5C 935.5,71.5 935.5,67.5 935.5,63.5C 937.833,63.5 940.167,63.5 942.5,63.5C 942.335,59.8183 942.501,56.1516 943,52.5C 947.316,49.9337 951.483,47.2671 955.5,44.5 Z"/></g>
<g><path style="opacity:1" fill="#4be0e6" d="M 69.5,38.5 C 68.661,39.6412 67.9943,40.9745 67.5,42.5C 67.9139,45.4539 67.9139,48.4539 67.5,51.5C 68.791,51.2627 69.791,51.596 70.5,52.5C 65.5,52.5 60.5,52.5 55.5,52.5C 55.5,63.8333 55.5,75.1667 55.5,86.5C 54.1667,89.8333 54.1667,93.1667 55.5,96.5C 55.5,102.5 55.5,108.5 55.5,114.5C 53.1667,115.167 50.8333,115.833 48.5,116.5C 47.7326,115.828 47.0659,114.995 46.5,114C 46.9061,98.2936 47.2395,82.9602 47.5,68C 46.9681,65.9803 45.6348,65.147 43.5,65.5C 49.3218,53.1884 55.1552,40.8551 61,28.5C 62.3333,27.1667 63.6667,27.1667 65,28.5C 66.9826,31.6138 68.4826,34.9471 69.5,38.5 Z"/></g>
<g><path style="opacity:1" fill="#e5e8e8" d="M 70.5,52.5 C 71.4948,63.6544 71.8281,74.9877 71.5,86.5C 68.8333,86.5 66.1667,86.5 63.5,86.5C 60.8333,86.5 58.1667,86.5 55.5,86.5C 55.5,75.1667 55.5,63.8333 55.5,52.5C 60.5,52.5 65.5,52.5 70.5,52.5 Z"/></g>
<g><path style="opacity:1" fill="#5debe0" d="M 69.5,38.5 C 76.3412,50.849 82.6745,63.5157 88.5,76.5C 87.4246,75.4376 86.4246,75.4376 85.5,76.5C 86.2122,79.6478 86.8789,82.8145 87.5,86C 86.367,95.8671 86.367,105.7 87.5,115.5C 86.8201,116.86 86.1534,118.193 85.5,119.5C 81.0078,117.702 76.3411,116.368 71.5,115.5C 71.5,109.167 71.5,102.833 71.5,96.5C 71.5,95.1667 71.5,93.8333 71.5,92.5C 71.5,91.8333 71.5,91.1667 71.5,90.5C 71.5,89.1667 71.5,87.8333 71.5,86.5C 71.8281,74.9877 71.4948,63.6544 70.5,52.5C 69.791,51.596 68.791,51.2627 67.5,51.5C 67.9139,48.4539 67.9139,45.4539 67.5,42.5C 67.9943,40.9745 68.661,39.6412 69.5,38.5 Z"/></g>
<g><path style="opacity:1" fill="#746f6f" d="M 314.5,62.5 C 337.239,61.5746 347.906,72.5746 346.5,95.5C 334.5,95.5 322.5,95.5 310.5,95.5C 311.38,105.559 316.713,109.726 326.5,108C 328.738,105.644 331.071,103.477 333.5,101.5C 337.473,102.384 341.473,103.051 345.5,103.5C 343.35,111.815 338.016,116.982 329.5,119C 311.502,122.317 300.335,115.15 296,97.5C 293.432,80.9334 299.599,69.2668 314.5,62.5 Z"/></g>
<g><path style="opacity:1" fill="#746f6f" d="M 635.5,62.5 C 658.239,61.5746 668.906,72.5746 667.5,95.5C 655.5,95.5 643.5,95.5 631.5,95.5C 632.38,105.559 637.713,109.726 647.5,108C 649.738,105.644 652.071,103.477 654.5,101.5C 658.473,102.384 662.473,103.051 666.5,103.5C 664.35,111.815 659.016,116.982 650.5,119C 632.502,122.317 621.335,115.15 617,97.5C 614.432,80.9334 620.599,69.2668 635.5,62.5 Z"/></g>
<g><path style="opacity:1" fill="#746f6f" d="M 846.5,62.5 C 854.973,61.5982 862.973,63.0982 870.5,67C 874.184,70.5169 876.851,74.6836 878.5,79.5C 873.473,80.4193 868.473,81.4193 863.5,82.5C 862.251,75.197 857.917,72.3637 850.5,74C 847,75.5 844.5,78 843,81.5C 842.333,87.1667 842.333,92.8333 843,98.5C 845.979,107.37 851.812,109.87 860.5,106C 862.782,103.603 864.116,100.769 864.5,97.5C 869.132,98.383 873.798,99.0496 878.5,99.5C 877.329,109.842 871.663,116.342 861.5,119C 843.15,122.754 831.984,115.587 828,97.5C 824.786,80.584 830.952,68.9174 846.5,62.5 Z"/></g>
<g><path style="opacity:1" fill="#746f6f" d="M 898.5,62.5 C 904.509,62.3338 910.509,62.5005 916.5,63C 923.057,63.8937 927.557,67.3937 930,73.5C 930.333,86.1667 930.667,98.8333 931,111.5C 931.642,113.762 932.475,115.929 933.5,118C 928.833,118.667 924.167,118.667 919.5,118C 918.89,116.053 918.057,114.219 917,112.5C 910.397,118.778 902.563,120.945 893.5,119C 883.127,114.234 879.96,106.401 884,95.5C 886.708,91.8957 890.208,89.3957 894.5,88C 901.759,86.4164 908.926,84.583 916,82.5C 917.165,78.3164 915.665,75.4831 911.5,74C 906.16,72.466 901.66,73.6326 898,77.5C 897.517,78.448 897.351,79.448 897.5,80.5C 892.664,80.2661 887.997,79.2661 883.5,77.5C 886.217,70.1161 891.217,65.1161 898.5,62.5 Z"/></g>
<g><path style="opacity:1" fill="#746f6f" d="M 987.5,62.5 C 1010.67,61.1023 1021.67,72.1023 1020.5,95.5C 1008.5,95.5 996.5,95.5 984.5,95.5C 984.84,105.345 989.84,109.511 999.5,108C 1002.03,106.967 1003.7,105.133 1004.5,102.5C 1009.56,101.673 1014.56,102.173 1019.5,104C 1013.22,116.999 1002.89,121.999 988.5,119C 977.942,116.75 971.775,110.25 970,99.5C 966.403,82.3646 972.237,70.0313 987.5,62.5 Z"/></g>
<g><path style="opacity:1" fill="#726d6d" d="M 218.5,63.5 C 223.167,63.5 227.833,63.5 232.5,63.5C 232.5,81.8333 232.5,100.167 232.5,118.5C 227.833,118.5 223.167,118.5 218.5,118.5C 218.5,100.167 218.5,81.8333 218.5,63.5 Z"/></g>
<g><path style="opacity:1" fill="#746f6f" d="M 237.5,63.5 C 242.762,63.1953 247.928,63.5286 253,64.5C 257.53,76.4237 261.864,88.4237 266,100.5C 270.133,88.4348 274.466,76.4348 279,64.5C 284.114,63.1958 289.281,63.1958 294.5,64.5C 287.073,82.2761 279.74,100.109 272.5,118C 267.913,118.799 263.413,118.632 259,117.5C 251.925,99.4364 244.758,81.4364 237.5,63.5 Z"/></g>
<g><path style="opacity:1" fill="#746f6f" d="M 459.5,63.5 C 464.833,63.5 470.167,63.5 475.5,63.5C 479.358,76.574 483.524,89.574 488,102.5C 492.269,89.8591 496.436,77.1924 500.5,64.5C 505.456,63.5059 510.456,63.1725 515.5,63.5C 507.502,86.6572 499.002,109.657 490,132.5C 487.362,136.128 483.862,138.628 479.5,140C 474.511,140.499 469.511,140.666 464.5,140.5C 463.886,136.865 463.552,133.198 463.5,129.5C 472.35,131.059 478.016,127.559 480.5,119C 473.395,100.515 466.395,82.0152 459.5,63.5 Z"/></g>
<g><path style="opacity:1" fill="#9e9b9b" d="M 690.5,70.5 C 690.44,71.0431 690.107,71.3764 689.5,71.5C 688.526,69.2573 688.192,66.924 688.5,64.5C 684.5,64.5 680.5,64.5 676.5,64.5C 676.5,82.5 676.5,100.5 676.5,118.5C 675.503,100.341 675.17,82.0076 675.5,63.5C 680.167,63.5 684.833,63.5 689.5,63.5C 689.198,66.0593 689.532,68.3926 690.5,70.5 Z"/></g>
<g><path style="opacity:1" fill="#726d6d" d="M 746.5,63.5 C 751.167,63.5 755.833,63.5 760.5,63.5C 760.5,81.8333 760.5,100.167 760.5,118.5C 755.833,118.5 751.167,118.5 746.5,118.5C 746.5,100.167 746.5,81.8333 746.5,63.5 Z"/></g>
<g><path style="opacity:1" fill="#726d6d" d="M 804.5,63.5 C 809.167,63.5 813.833,63.5 818.5,63.5C 818.5,81.8333 818.5,100.167 818.5,118.5C 813.833,118.5 809.167,118.5 804.5,118.5C 804.5,100.167 804.5,81.8333 804.5,63.5 Z"/></g>
<g><path style="opacity:1" fill="#3ddbe9" d="M 43.5,65.5 C 45.6348,65.147 46.9681,65.9803 47.5,68C 47.2395,82.9602 46.9061,98.2936 46.5,114C 47.0659,114.995 47.7326,115.828 48.5,116.5C 41.8964,119.128 35.2297,121.795 28.5,124.5C 28.6663,117.492 28.4996,110.492 28,103.5C 27.2303,104.598 26.397,104.598 25.5,103.5C 30.9564,90.5867 36.9564,77.92 43.5,65.5 Z"/></g>
<g><path style="opacity:1" fill="#f8f8f8" d="M 317.5,73.5 C 327.212,72.552 332.212,76.8854 332.5,86.5C 325.167,86.5 317.833,86.5 310.5,86.5C 310.74,80.9539 313.073,76.6206 317.5,73.5 Z"/></g>
<g><path style="opacity:1" fill="#f8f8f8" d="M 638.5,73.5 C 648.212,72.552 653.212,76.8854 653.5,86.5C 646.167,86.5 638.833,86.5 631.5,86.5C 631.74,80.9539 634.073,76.6206 638.5,73.5 Z"/></g>
<g><path style="opacity:1" fill="#fafafa" d="M 991.5,73.5 C 1000.68,73.0171 1005.35,77.3505 1005.5,86.5C 998.5,86.5 991.5,86.5 984.5,86.5C 983.968,80.56 986.302,76.2267 991.5,73.5 Z"/></g>
<g><path style="opacity:1" fill="#68f3de" d="M 88.5,76.5 C 97.3818,93.596 105.715,110.929 113.5,128.5C 103.891,126.297 94.5579,123.297 85.5,119.5C 86.1534,118.193 86.8201,116.86 87.5,115.5C 86.367,105.7 86.367,95.8671 87.5,86C 86.8789,82.8145 86.2122,79.6478 85.5,76.5C 86.4246,75.4376 87.4246,75.4376 88.5,76.5 Z"/></g>
<g><path style="opacity:1" fill="#f82120" d="M 55.5,86.5 C 58.1667,86.5 60.8333,86.5 63.5,86.5C 65.328,87.2828 66.6613,88.6161 67.5,90.5C 63.5,90.5 59.5,90.5 55.5,90.5C 55.5,89.1667 55.5,87.8333 55.5,86.5 Z"/></g>
<g><path style="opacity:1" fill="#e74242" d="M 63.5,86.5 C 66.1667,86.5 68.8333,86.5 71.5,86.5C 71.5,87.8333 71.5,89.1667 71.5,90.5C 70.1667,90.5 68.8333,90.5 67.5,90.5C 66.6613,88.6161 65.328,87.2828 63.5,86.5 Z"/></g>
<g><path style="opacity:1" fill="#dd6767" d="M 55.5,86.5 C 55.5,87.8333 55.5,89.1667 55.5,90.5C 59.5,90.5 63.5,90.5 67.5,90.5C 68.8333,90.5 70.1667,90.5 71.5,90.5C 71.5,91.1667 71.5,91.8333 71.5,92.5C 69.1667,92.5 66.8333,92.5 64.5,92.5C 61.5,92.5 58.5,92.5 55.5,92.5C 55.5,93.8333 55.5,95.1667 55.5,96.5C 54.1667,93.1667 54.1667,89.8333 55.5,86.5 Z"/></g>
<g><path style="opacity:1" fill="#fb1717" d="M 64.5,92.5 C 64.2294,94.4305 63.2294,95.7638 61.5,96.5C 59.5,96.5 57.5,96.5 55.5,96.5C 55.5,95.1667 55.5,93.8333 55.5,92.5C 58.5,92.5 61.5,92.5 64.5,92.5 Z"/></g>
<g><path style="opacity:1" fill="#f8f8f8" d="M 912.5,92.5 C 913.833,92.5 915.167,92.5 916.5,92.5C 918.096,102.352 914.096,108.019 904.5,109.5C 898.369,108.871 895.869,105.538 897,99.5C 898.731,97.3834 900.898,95.8834 903.5,95C 906.742,94.5939 909.742,93.7605 912.5,92.5 Z"/></g>
<g><path style="opacity:1" fill="#dee3e4" d="M 71.5,96.5 C 71.5,102.833 71.5,109.167 71.5,115.5C 76.3411,116.368 81.0078,117.702 85.5,119.5C 94.5579,123.297 103.891,126.297 113.5,128.5C 111.372,129.629 109.039,129.796 106.5,129C 96.4232,125.53 86.4232,121.863 76.5,118C 74.8659,117.506 73.1992,117.34 71.5,117.5C 71.5,122.167 71.5,126.833 71.5,131.5C 70.5,131.5 69.5,131.5 68.5,131.5C 67.8914,127.395 67.2248,123.395 66.5,119.5C 65.9534,111.821 65.2867,104.154 64.5,96.5C 66.8333,96.5 69.1667,96.5 71.5,96.5 Z"/></g>
<g><path style="opacity:1" fill="#e5e0e1" d="M 55.5,96.5 C 57.5,96.5 59.5,96.5 61.5,96.5C 62.0967,96.7352 62.4301,97.2352 62.5,98C 60.9275,109.962 59.5942,121.962 58.5,134C 58.5085,135.707 58.8418,137.207 59.5,138.5C 59.44,139.043 59.1067,139.376 58.5,139.5C 55.8973,132.473 54.8973,125.14 55.5,117.5C 54.5,117.5 53.5,117.5 52.5,117.5C 53.9002,116.9 54.9002,115.9 55.5,114.5C 55.5,108.5 55.5,102.5 55.5,96.5 Z"/></g>
<g><path style="opacity:1" fill="#ee3836" d="M 64.5,92.5 C 66.8333,92.5 69.1667,92.5 71.5,92.5C 71.5,93.8333 71.5,95.1667 71.5,96.5C 69.1667,96.5 66.8333,96.5 64.5,96.5C 65.2867,104.154 65.9534,111.821 66.5,119.5C 67.1128,125.271 66.4461,130.604 64.5,135.5C 62.3152,134.913 60.6485,135.913 59.5,138.5C 58.8418,137.207 58.5085,135.707 58.5,134C 59.5942,121.962 60.9275,109.962 62.5,98C 62.4301,97.2352 62.0967,96.7352 61.5,96.5C 63.2294,95.7638 64.2294,94.4305 64.5,92.5 Z"/></g>
<g><path style="opacity:1" fill="#37d5ed" d="M 25.5,103.5 C 26.397,104.598 27.2303,104.598 28,103.5C 28.4996,110.492 28.6663,117.492 28.5,124.5C 23.6065,126.242 18.6065,127.576 13.5,128.5C 16.7126,119.743 20.7126,111.41 25.5,103.5 Z"/></g>
<g><path style="opacity:1" fill="#c4e0e5" d="M 55.5,114.5 C 54.9002,115.9 53.9002,116.9 52.5,117.5C 41.5689,120.643 30.9022,124.477 20.5,129C 17.9615,129.796 15.6282,129.629 13.5,128.5C 18.6065,127.576 23.6065,126.242 28.5,124.5C 35.2297,121.795 41.8964,119.128 48.5,116.5C 50.8333,115.833 53.1667,115.167 55.5,114.5 Z"/></g>
<g><path style="opacity:1" fill="#e67471" d="M 66.5,119.5 C 67.2248,123.395 67.8914,127.395 68.5,131.5C 68.8076,133.924 68.4742,136.257 67.5,138.5C 66.1451,137.812 65.1451,136.812 64.5,135.5C 66.4461,130.604 67.1128,125.271 66.5,119.5 Z"/></g>
</svg>
