<?xml version="1.0" encoding="UTF-8"?>
<!DOCTYPE svg PUBLIC "-//W3C//DTD SVG 1.1//EN" "http://www.w3.org/Graphics/SVG/1.1/DTD/svg11.dtd">
<svg xmlns="http://www.w3.org/2000/svg" version="1.1" width="200px" height="200px" style="shape-rendering:geometricPrecision; text-rendering:geometricPrecision; image-rendering:optimizeQuality; fill-rule:evenodd; clip-rule:evenodd" xmlns:xlink="http://www.w3.org/1999/xlink">
<g><path style="opacity:1" fill="#fdfefe" d="M -0.5,-0.5 C 34.8333,-0.5 70.1667,-0.5 105.5,-0.5C 105.125,1.69764 104.458,3.69764 103.5,5.5C 100.994,2.91418 98.494,2.91418 96,5.5C 82.5357,31.7601 69.0357,58.0934 55.5,84.5C 50.2763,95.7275 44.6096,106.727 38.5,117.5C 30.634,132.894 22.4673,148.227 14,163.5C 11.3244,168.524 9.49103,173.857 8.5,179.5C 12.5472,178.982 16.5472,178.148 20.5,177C 31.4717,173.065 42.4717,169.232 53.5,165.5C 60.8403,162.838 68.1737,160.505 75.5,158.5C 78.4475,158.223 81.2809,158.556 84,159.5C 84.3333,167.5 84.6667,175.5 85,183.5C 86.4443,185.155 88.2776,185.822 90.5,185.5C 90.5,186.5 90.5,187.5 90.5,188.5C 90.5,189.5 90.5,190.5 90.5,191.5C 87.996,193.962 87.996,196.629 90.5,199.5C 60.1667,199.5 29.8333,199.5 -0.5,199.5C -0.5,132.833 -0.5,66.1667 -0.5,-0.5 Z"/></g>
<g><path style="opacity:1" fill="#fefefe" d="M 105.5,-0.5 C 136.833,-0.5 168.167,-0.5 199.5,-0.5C 199.5,66.1667 199.5,132.833 199.5,199.5C 163.167,199.5 126.833,199.5 90.5,199.5C 87.996,196.629 87.996,193.962 90.5,191.5C 89.9629,198.798 91.6295,199.131 95.5,192.5C 96.8149,191.524 98.1482,190.524 99.5,189.5C 100.518,190.193 101.518,190.859 102.5,191.5C 104.395,192.973 106.061,194.64 107.5,196.5C 108.472,197.751 109.139,197.418 109.5,195.5C 109.457,194.584 109.124,193.917 108.5,193.5C 107.835,187.523 107.502,181.523 107.5,175.5C 108.321,178.641 108.821,181.975 109,185.5C 109.333,185.833 109.667,186.167 110,186.5C 111.11,184.963 112.61,184.297 114.5,184.5C 114.806,175.446 114.472,166.446 113.5,157.5C 114.325,156.614 115.325,156.281 116.5,156.5C 123.474,158.606 130.474,160.606 137.5,162.5C 141.991,164.553 146.658,166.22 151.5,167.5C 161.66,171.401 171.993,175.068 182.5,178.5C 184.366,179.014 186.2,179.68 188,180.5C 190.188,179.941 190.854,178.607 190,176.5C 177.673,151.178 164.84,126.178 151.5,101.5C 146.097,90.1282 140.597,78.7948 135,67.5C 134.051,65.9069 132.885,64.5736 131.5,63.5C 122.733,44.5199 113.4,25.8532 103.5,7.5C 103.5,6.83333 103.5,6.16667 103.5,5.5C 104.458,3.69764 105.125,1.69764 105.5,-0.5 Z"/></g>
<g><path style="opacity:1" fill="#e5e9ea" d="M 84.5,47.5 C 93.5,47.5 102.5,47.5 111.5,47.5C 112.167,47.5 112.833,47.5 113.5,47.5C 113.5,67.1667 113.5,86.8333 113.5,106.5C 107.167,106.5 100.833,106.5 94.5,106.5C 91.1667,106.5 87.8333,106.5 84.5,106.5C 84.5,86.8333 84.5,67.1667 84.5,47.5 Z"/></g>
<g><path style="opacity:1" fill="#47e1e6" d="M 103.5,7.5 C 113.4,25.8532 122.733,44.5199 131.5,63.5C 129.386,64.3602 128.22,66.0268 128,68.5C 127.798,66.7444 127.298,65.0777 126.5,63.5C 126.058,75.0869 125.058,86.5869 123.5,98C 124.911,100.663 125.911,103.496 126.5,106.5C 125.5,106.5 124.5,106.5 123.5,106.5C 123.769,104.571 123.269,102.905 122,101.5C 121.5,102.5 121,103.5 120.5,104.5C 122.447,106.276 122.78,108.276 121.5,110.5C 120.833,109.833 120.167,109.167 119.5,108.5C 118.34,110.073 117.34,111.739 116.5,113.5C 116.833,114.167 117.167,114.833 117.5,115.5C 118.874,114.289 120.374,113.289 122,112.5C 125.414,114.377 126.914,117.377 126.5,121.5C 123.525,121.287 120.858,120.287 118.5,118.5C 117.246,120.259 117.579,121.759 119.5,123C 121.473,123.495 123.473,123.662 125.5,123.5C 124.922,130.713 125.588,137.713 127.5,144.5C 125.922,145.072 124.422,145.406 123,145.5C 122.468,148.264 121.634,150.93 120.5,153.5C 118.369,154.169 116.369,154.835 114.5,155.5C 113.506,145.347 113.172,135.014 113.5,124.5C 113.5,124.167 113.5,123.833 113.5,123.5C 114.167,123.5 114.5,123.167 114.5,122.5C 115.485,118.366 115.818,114.032 115.5,109.5C 116.797,108.151 116.63,106.818 115,105.5C 114.832,85.9957 114.332,66.6623 113.5,47.5C 112.833,47.5 112.167,47.5 111.5,47.5C 106.319,46.8335 100.985,46.1668 95.5,45.5C 93.0087,44.4593 93.0087,43.6259 95.5,43C 94.8333,42.6667 94.1667,42.3333 93.5,42C 94.8333,41.6667 96.1667,41.3333 97.5,41C 93.1174,41.592 91.1174,39.7587 91.5,35.5C 91.7163,33.6161 92.383,31.9494 93.5,30.5C 93,29.5 92.5,28.5 92,27.5C 89.7685,30.2815 87.7685,33.2815 86,36.5C 85.3333,34.8333 85.3333,33.1667 86,31.5C 87.63,27.9413 89.63,24.608 92,21.5C 93.3024,24.9544 94.8024,28.2877 96.5,31.5C 96.8333,30.8333 97.1667,30.1667 97.5,29.5C 95.7087,26.7525 95.2087,23.7525 96,20.5C 96.6891,19.6433 97.5224,18.9767 98.5,18.5C 98.6924,20.805 99.0257,23.1384 99.5,25.5C 102.135,23.0264 102.969,20.0264 102,16.5C 101.25,15.8742 100.416,15.3742 99.5,15C 100.308,14.6924 100.975,14.1924 101.5,13.5C 100.754,12.2638 100.421,10.9305 100.5,9.5C 102.179,9.71481 103.179,9.04814 103.5,7.5 Z"/></g>
<g><path style="opacity:1" fill="#57ebe2" d="M 103.5,5.5 C 103.5,6.16667 103.5,6.83333 103.5,7.5C 103.179,9.04814 102.179,9.71481 100.5,9.5C 100.421,10.9305 100.754,12.2638 101.5,13.5C 100.975,14.1924 100.308,14.6924 99.5,15C 100.416,15.3742 101.25,15.8742 102,16.5C 102.969,20.0264 102.135,23.0264 99.5,25.5C 99.0257,23.1384 98.6924,20.805 98.5,18.5C 97.5224,18.9767 96.6891,19.6433 96,20.5C 95.2087,23.7525 95.7087,26.7525 97.5,29.5C 97.1667,30.1667 96.8333,30.8333 96.5,31.5C 94.8024,28.2877 93.3024,24.9544 92,21.5C 89.63,24.608 87.63,27.9413 86,31.5C 85.3333,33.1667 85.3333,34.8333 86,36.5C 87.7685,33.2815 89.7685,30.2815 92,27.5C 92.5,28.5 93,29.5 93.5,30.5C 92.383,31.9494 91.7163,33.6161 91.5,35.5C 91.1174,39.7587 93.1174,41.592 97.5,41C 96.1667,41.3333 94.8333,41.6667 93.5,42C 94.1667,42.3333 94.8333,42.6667 95.5,43C 93.0087,43.6259 93.0087,44.4593 95.5,45.5C 100.985,46.1668 106.319,46.8335 111.5,47.5C 102.5,47.5 93.5,47.5 84.5,47.5C 83.4126,66.2737 82.0793,85.107 80.5,104C 83.1348,111.143 83.1348,118.309 80.5,125.5C 82.3913,135.035 83.0579,144.702 82.5,154.5C 80.8212,154.285 79.8212,154.952 79.5,156.5C 78.1667,157.167 76.8333,157.833 75.5,158.5C 68.1737,160.505 60.8403,162.838 53.5,165.5C 55.0544,164.105 54.721,163.439 52.5,163.5C 49.8035,164.621 47.1369,164.621 44.5,163.5C 46.6551,162.999 48.3218,161.999 49.5,160.5C 51.9564,161.262 54.4564,161.929 57,162.5C 60.063,162.065 60.2297,161.232 57.5,160C 59.1341,159.506 60.8008,159.34 62.5,159.5C 62.6666,143.497 62.4999,127.497 62,111.5C 61.077,109.966 60.577,108.299 60.5,106.5C 60.6925,102.238 61.6925,98.2378 63.5,94.5C 61.504,90.859 59.504,87.1923 57.5,83.5C 56.8165,83.8627 56.1499,84.1961 55.5,84.5C 69.0357,58.0934 82.5357,31.7601 96,5.5C 98.494,2.91418 100.994,2.91418 103.5,5.5 Z"/></g>
<g><path style="opacity:1" fill="#88e6e7" d="M 113.5,47.5 C 114.332,66.6623 114.832,85.9957 115,105.5C 116.63,106.818 116.797,108.151 115.5,109.5C 115.672,108.508 115.338,107.842 114.5,107.5C 114.5,106.833 114.167,106.5 113.5,106.5C 113.5,86.8333 113.5,67.1667 113.5,47.5 Z"/></g>
<g><path style="opacity:1" fill="#3fdde9" d="M 131.5,63.5 C 132.885,64.5736 134.051,65.9069 135,67.5C 140.597,78.7948 146.097,90.1282 151.5,101.5C 150.292,100.766 148.959,100.433 147.5,100.5C 145.425,103.017 144.091,106.017 143.5,109.5C 143.833,110.167 144.167,110.833 144.5,111.5C 145.251,110.624 145.751,109.624 146,108.5C 147.828,109.661 149.328,111.161 150.5,113C 150.387,114.28 149.72,115.113 148.5,115.5C 145.248,111.229 143.582,111.896 143.5,117.5C 144.961,125.813 145.627,134.48 145.5,143.5C 145.167,148.833 144.833,154.167 144.5,159.5C 142.754,161.854 140.421,162.854 137.5,162.5C 130.474,160.606 123.474,158.606 116.5,156.5C 116.158,155.662 115.492,155.328 114.5,155.5C 116.369,154.835 118.369,154.169 120.5,153.5C 121.634,150.93 122.468,148.264 123,145.5C 124.422,145.406 125.922,145.072 127.5,144.5C 125.588,137.713 124.922,130.713 125.5,123.5C 123.473,123.662 121.473,123.495 119.5,123C 117.579,121.759 117.246,120.259 118.5,118.5C 120.858,120.287 123.525,121.287 126.5,121.5C 126.914,117.377 125.414,114.377 122,112.5C 120.374,113.289 118.874,114.289 117.5,115.5C 117.167,114.833 116.833,114.167 116.5,113.5C 117.34,111.739 118.34,110.073 119.5,108.5C 120.167,109.167 120.833,109.833 121.5,110.5C 122.78,108.276 122.447,106.276 120.5,104.5C 121,103.5 121.5,102.5 122,101.5C 123.269,102.905 123.769,104.571 123.5,106.5C 124.5,106.5 125.5,106.5 126.5,106.5C 125.911,103.496 124.911,100.663 123.5,98C 125.058,86.5869 126.058,75.0869 126.5,63.5C 127.298,65.0777 127.798,66.7444 128,68.5C 128.22,66.0268 129.386,64.3602 131.5,63.5 Z"/></g>
<g><path style="opacity:1" fill="#61f1df" d="M 49.5,160.5 C 48.5041,160.586 47.6708,160.252 47,159.5C 45.1903,152.906 45.357,146.406 47.5,140C 47.3594,138.045 46.526,136.545 45,135.5C 44.6667,136.167 44.3333,136.833 44,137.5C 43.3333,136.167 42.6667,136.167 42,137.5C 41.5,137 41,136.5 40.5,136C 42.1869,134.087 42.6869,131.92 42,129.5C 41.6827,131.301 41.016,131.634 40,130.5C 39.5172,129.552 39.3505,128.552 39.5,127.5C 41.288,127.785 42.9547,127.452 44.5,126.5C 42.42,123.528 41.2533,120.194 41,116.5C 40.3292,117.252 39.4959,117.586 38.5,117.5C 44.6096,106.727 50.2763,95.7275 55.5,84.5C 56.1499,84.1961 56.8165,83.8627 57.5,83.5C 59.504,87.1923 61.504,90.859 63.5,94.5C 61.6925,98.2378 60.6925,102.238 60.5,106.5C 60.577,108.299 61.077,109.966 62,111.5C 62.4999,127.497 62.6666,143.497 62.5,159.5C 60.8008,159.34 59.1341,159.506 57.5,160C 60.2297,161.232 60.063,162.065 57,162.5C 54.4564,161.929 51.9564,161.262 49.5,160.5 Z"/></g>
<g><path style="opacity:1" fill="#c15150" d="M 84.5,106.5 C 87.8333,106.5 91.1667,106.5 94.5,106.5C 91.3752,107.479 88.0419,107.813 84.5,107.5C 84.5,109.5 84.5,111.5 84.5,113.5C 84.1667,113.5 83.8333,113.5 83.5,113.5C 83.1984,110.941 83.5318,108.607 84.5,106.5 Z"/></g>
<g><path style="opacity:1" fill="#de3437" d="M 94.5,106.5 C 100.833,106.5 107.167,106.5 113.5,106.5C 114.167,106.5 114.5,106.833 114.5,107.5C 114.756,109.792 114.423,111.959 113.5,114C 103.658,114.825 93.9911,114.658 84.5,113.5C 84.5,111.5 84.5,109.5 84.5,107.5C 88.0419,107.813 91.3752,107.479 94.5,106.5 Z"/></g>
<g><path style="opacity:1" fill="#fb1916" d="M 99.5,107.5 C 104.167,107.5 108.833,107.5 113.5,107.5C 113.5,109.167 113.5,110.833 113.5,112.5C 106.492,112.666 99.4921,112.5 92.5,112C 93.9733,111.29 94.6399,110.124 94.5,108.5C 96.4147,108.784 98.0813,108.451 99.5,107.5 Z"/></g>
<g><path style="opacity:1" fill="#e3a2a3" d="M 114.5,107.5 C 115.338,107.842 115.672,108.508 115.5,109.5C 115.818,114.032 115.485,118.366 114.5,122.5C 114.5,120.167 114.5,117.833 114.5,115.5C 104.5,115.5 94.5,115.5 84.5,115.5C 84.5,118.167 84.5,120.833 84.5,123.5C 88.8333,123.5 93.1667,123.5 97.5,123.5C 97.5,125.5 97.5,127.5 97.5,129.5C 97.1667,129.5 96.8333,129.5 96.5,129.5C 96.5,127.833 96.5,126.167 96.5,124.5C 92.5,124.5 88.5,124.5 84.5,124.5C 83.5184,121.038 83.185,117.371 83.5,113.5C 83.8333,113.5 84.1667,113.5 84.5,113.5C 93.9911,114.658 103.658,114.825 113.5,114C 114.423,111.959 114.756,109.792 114.5,107.5 Z"/></g>
<g><path style="opacity:1" fill="#e74242" d="M 114.5,122.5 C 114.5,123.167 114.167,123.5 113.5,123.5C 113.5,123.167 113.5,122.833 113.5,122.5C 113.5,120.5 113.5,118.5 113.5,116.5C 109.5,116.5 105.5,116.5 101.5,116.5C 99.5,116.5 97.5,116.5 95.5,116.5C 95.5,117.833 95.5,119.167 95.5,120.5C 94.325,120.281 93.325,120.614 92.5,121.5C 94.2914,122.17 95.9581,122.837 97.5,123.5C 93.1667,123.5 88.8333,123.5 84.5,123.5C 84.5,120.833 84.5,118.167 84.5,115.5C 94.5,115.5 104.5,115.5 114.5,115.5C 114.5,117.833 114.5,120.167 114.5,122.5 Z"/></g>
<g><path style="opacity:1" fill="#fb1413" d="M 101.5,116.5 C 105.5,116.5 109.5,116.5 113.5,116.5C 113.5,118.5 113.5,120.5 113.5,122.5C 109.116,122.826 104.783,122.492 100.5,121.5C 101.309,119.929 101.643,118.262 101.5,116.5 Z"/></g>
<g><path style="opacity:1" fill="#3bd8ea" d="M 151.5,101.5 C 164.84,126.178 177.673,151.178 190,176.5C 190.854,178.607 190.188,179.941 188,180.5C 186.2,179.68 184.366,179.014 182.5,178.5C 181.374,177.142 181.374,175.808 182.5,174.5C 183.386,175.325 183.719,176.325 183.5,177.5C 184.978,177.762 186.311,177.429 187.5,176.5C 186.76,173.822 185.26,171.156 183,168.5C 182.506,166.866 182.34,165.199 182.5,163.5C 181.5,163.5 180.5,163.5 179.5,163.5C 179.637,159.404 178.137,156.071 175,153.5C 174.689,151.444 174.189,149.444 173.5,147.5C 170.393,145.563 167.727,143.063 165.5,140C 167.015,137.234 166.682,134.734 164.5,132.5C 162.964,135.739 161.297,138.906 159.5,142C 160.5,143.5 161.5,145 162.5,146.5C 163.645,145.224 163.645,143.891 162.5,142.5C 162.833,142.167 163.167,141.833 163.5,141.5C 167.544,145.689 167.377,149.689 163,153.5C 159.951,146.97 158.785,147.637 159.5,155.5C 160.833,155.5 162.167,155.5 163.5,155.5C 162.886,158.276 162.719,160.943 163,163.5C 161.258,161.027 159.425,161.027 157.5,163.5C 156.167,162.833 154.833,162.167 153.5,161.5C 152.833,161.833 152.167,162.167 151.5,162.5C 152.376,163.251 153.376,163.751 154.5,164C 153.062,164.219 151.729,164.719 150.5,165.5C 150.863,166.183 151.196,166.85 151.5,167.5C 146.658,166.22 141.991,164.553 137.5,162.5C 140.421,162.854 142.754,161.854 144.5,159.5C 144.833,154.167 145.167,148.833 145.5,143.5C 145.627,134.48 144.961,125.813 143.5,117.5C 143.582,111.896 145.248,111.229 148.5,115.5C 149.72,115.113 150.387,114.28 150.5,113C 149.328,111.161 147.828,109.661 146,108.5C 145.751,109.624 145.251,110.624 144.5,111.5C 144.167,110.833 143.833,110.167 143.5,109.5C 144.091,106.017 145.425,103.017 147.5,100.5C 148.959,100.433 150.292,100.766 151.5,101.5 Z"/></g>
<g><path style="opacity:1" fill="#71e1db" d="M 84.5,47.5 C 84.5,67.1667 84.5,86.8333 84.5,106.5C 83.5318,108.607 83.1984,110.941 83.5,113.5C 83.185,117.371 83.5184,121.038 84.5,124.5C 84.6665,134.839 84.4998,145.172 84,155.5C 82.6439,156.38 81.1439,156.714 79.5,156.5C 79.8212,154.952 80.8212,154.285 82.5,154.5C 83.0579,144.702 82.3913,135.035 80.5,125.5C 83.1348,118.309 83.1348,111.143 80.5,104C 82.0793,85.107 83.4126,66.2737 84.5,47.5 Z"/></g>
<g><path style="opacity:1" fill="#6df6dd" d="M 49.5,160.5 C 48.3218,161.999 46.6551,162.999 44.5,163.5C 47.1369,164.621 49.8035,164.621 52.5,163.5C 54.721,163.439 55.0544,164.105 53.5,165.5C 42.4717,169.232 31.4717,173.065 20.5,177C 16.5472,178.148 12.5472,178.982 8.5,179.5C 9.49103,173.857 11.3244,168.524 14,163.5C 22.4673,148.227 30.634,132.894 38.5,117.5C 39.4959,117.586 40.3292,117.252 41,116.5C 41.2533,120.194 42.42,123.528 44.5,126.5C 42.9547,127.452 41.288,127.785 39.5,127.5C 39.3505,128.552 39.5172,129.552 40,130.5C 41.016,131.634 41.6827,131.301 42,129.5C 42.6869,131.92 42.1869,134.087 40.5,136C 41,136.5 41.5,137 42,137.5C 42.6667,136.167 43.3333,136.167 44,137.5C 44.3333,136.833 44.6667,136.167 45,135.5C 46.526,136.545 47.3594,138.045 47.5,140C 45.357,146.406 45.1903,152.906 47,159.5C 47.6708,160.252 48.5041,160.586 49.5,160.5 Z"/></g>
<g><path style="opacity:1" fill="#e5ebeb" d="M 113.5,124.5 C 113.172,135.014 113.506,145.347 114.5,155.5C 115.492,155.328 116.158,155.662 116.5,156.5C 115.325,156.281 114.325,156.614 113.5,157.5C 114.472,166.446 114.806,175.446 114.5,184.5C 112.61,184.297 111.11,184.963 110,186.5C 109.667,186.167 109.333,185.833 109,185.5C 108.821,181.975 108.321,178.641 107.5,175.5C 107.241,169.833 106.908,164.166 106.5,158.5C 106.339,154.28 107.006,150.28 108.5,146.5C 108.167,145.5 107.833,144.5 107.5,143.5C 106.692,145.423 106.192,147.423 106,149.5C 105.667,149.167 105.333,148.833 105,148.5C 104.952,141.256 104.118,134.256 102.5,127.5C 102.167,127.5 101.833,127.5 101.5,127.5C 101.5,126.5 101.5,125.5 101.5,124.5C 105.5,124.5 109.5,124.5 113.5,124.5 Z"/></g>
<g><path style="opacity:1" fill="#dd6a6a" d="M 101.5,127.5 C 101.833,127.5 102.167,127.5 102.5,127.5C 102.833,132.833 103.167,138.167 103.5,143.5C 103.167,143.5 102.833,143.5 102.5,143.5C 102.02,138.178 101.687,132.845 101.5,127.5 Z"/></g>
<g><path style="opacity:1" fill="#ed3736" d="M 101.5,116.5 C 101.643,118.262 101.309,119.929 100.5,121.5C 104.783,122.492 109.116,122.826 113.5,122.5C 113.5,122.833 113.5,123.167 113.5,123.5C 113.5,123.833 113.5,124.167 113.5,124.5C 109.5,124.5 105.5,124.5 101.5,124.5C 101.5,125.5 101.5,126.5 101.5,127.5C 101.687,132.845 102.02,138.178 102.5,143.5C 100.74,146.701 99.9064,150.367 100,154.5C 99.6153,163.051 99.4486,171.384 99.5,179.5C 98.9935,178.141 97.9935,177.141 96.5,176.5C 97.7319,173.7 98.3985,170.7 98.5,167.5C 96.5492,154.863 96.2159,142.197 97.5,129.5C 97.5,127.5 97.5,125.5 97.5,123.5C 95.9581,122.837 94.2914,122.17 92.5,121.5C 93.325,120.614 94.325,120.281 95.5,120.5C 95.5,119.167 95.5,117.833 95.5,116.5C 97.5,116.5 99.5,116.5 101.5,116.5 Z"/></g>
<g><path style="opacity:1" fill="#e4eaeb" d="M 84.5,124.5 C 88.5,124.5 92.5,124.5 96.5,124.5C 96.5,126.167 96.5,127.833 96.5,129.5C 95.8058,134.805 95.4724,140.138 95.5,145.5C 94.2521,146.334 93.5854,147.667 93.5,149.5C 93.1049,155.601 92.2715,161.601 91,167.5C 90.5005,173.491 90.3338,179.491 90.5,185.5C 88.2776,185.822 86.4443,185.155 85,183.5C 84.6667,175.5 84.3333,167.5 84,159.5C 81.2809,158.556 78.4475,158.223 75.5,158.5C 76.8333,157.833 78.1667,157.167 79.5,156.5C 81.1439,156.714 82.6439,156.38 84,155.5C 84.4998,145.172 84.6665,134.839 84.5,124.5 Z"/></g>
<g><path style="opacity:1" fill="#f8dad8" d="M 102.5,127.5 C 104.118,134.256 104.952,141.256 105,148.5C 105.333,148.833 105.667,149.167 106,149.5C 106.192,147.423 106.692,145.423 107.5,143.5C 107.833,144.5 108.167,145.5 108.5,146.5C 107.006,150.28 106.339,154.28 106.5,158.5C 106.908,164.166 107.241,169.833 107.5,175.5C 107.167,175.5 106.833,175.5 106.5,175.5C 106.206,166.609 105.206,157.942 103.5,149.5C 103.5,147.5 103.5,145.5 103.5,143.5C 103.167,138.167 102.833,132.833 102.5,127.5 Z"/></g>
<g><path style="opacity:1" fill="#35d5ed" d="M 182.5,178.5 C 171.993,175.068 161.66,171.401 151.5,167.5C 151.196,166.85 150.863,166.183 150.5,165.5C 151.729,164.719 153.062,164.219 154.5,164C 153.376,163.751 152.376,163.251 151.5,162.5C 152.167,162.167 152.833,161.833 153.5,161.5C 154.833,162.167 156.167,162.833 157.5,163.5C 159.425,161.027 161.258,161.027 163,163.5C 162.719,160.943 162.886,158.276 163.5,155.5C 162.167,155.5 160.833,155.5 159.5,155.5C 158.785,147.637 159.951,146.97 163,153.5C 167.377,149.689 167.544,145.689 163.5,141.5C 163.167,141.833 162.833,142.167 162.5,142.5C 163.645,143.891 163.645,145.224 162.5,146.5C 161.5,145 160.5,143.5 159.5,142C 161.297,138.906 162.964,135.739 164.5,132.5C 166.682,134.734 167.015,137.234 165.5,140C 167.727,143.063 170.393,145.563 173.5,147.5C 174.189,149.444 174.689,151.444 175,153.5C 178.137,156.071 179.637,159.404 179.5,163.5C 180.5,163.5 181.5,163.5 182.5,163.5C 182.34,165.199 182.506,166.866 183,168.5C 185.26,171.156 186.76,173.822 187.5,176.5C 186.311,177.429 184.978,177.762 183.5,177.5C 183.719,176.325 183.386,175.325 182.5,174.5C 181.374,175.808 181.374,177.142 182.5,178.5 Z"/></g>
<g><path style="opacity:1" fill="#e7403f" d="M 96.5,129.5 C 96.8333,129.5 97.1667,129.5 97.5,129.5C 96.2159,142.197 96.5492,154.863 98.5,167.5C 98.3985,170.7 97.7319,173.7 96.5,176.5C 97.9935,177.141 98.9935,178.141 99.5,179.5C 98.2431,181.368 98.5764,183.035 100.5,184.5C 99.3112,185.429 97.9778,185.762 96.5,185.5C 96.5,186.5 96.5,187.5 96.5,188.5C 98.1992,188.34 99.8659,188.506 101.5,189C 102.252,189.671 102.586,190.504 102.5,191.5C 101.518,190.859 100.518,190.193 99.5,189.5C 98.1482,190.524 96.8149,191.524 95.5,192.5C 94.5041,192.586 93.6708,192.252 93,191.5C 92.8333,189.5 92.6667,187.5 92.5,185.5C 94.0784,176.915 94.7451,168.248 94.5,159.5C 94.9981,154.848 95.3314,150.181 95.5,145.5C 95.4724,140.138 95.8058,134.805 96.5,129.5 Z"/></g>
<g><path style="opacity:1" fill="#efd2d1" d="M 95.5,145.5 C 95.3314,150.181 94.9981,154.848 94.5,159.5C 92.7921,169.122 91.4587,178.789 90.5,188.5C 90.5,187.5 90.5,186.5 90.5,185.5C 90.3338,179.491 90.5005,173.491 91,167.5C 92.2715,161.601 93.1049,155.601 93.5,149.5C 93.5854,147.667 94.2521,146.334 95.5,145.5 Z"/></g>
<g><path style="opacity:1" fill="#df423c" d="M 103.5,149.5 C 105.206,157.942 106.206,166.609 106.5,175.5C 105.71,174.391 105.21,173.058 105,171.5C 104.452,164.165 103.952,156.831 103.5,149.5 Z"/></g>
<g><path style="opacity:1" fill="#f22a2a" d="M 102.5,143.5 C 102.833,143.5 103.167,143.5 103.5,143.5C 103.5,145.5 103.5,147.5 103.5,149.5C 103.952,156.831 104.452,164.165 105,171.5C 105.21,173.058 105.71,174.391 106.5,175.5C 106.833,175.5 107.167,175.5 107.5,175.5C 107.502,181.523 107.835,187.523 108.5,193.5C 108.737,194.791 108.404,195.791 107.5,196.5C 106.061,194.64 104.395,192.973 102.5,191.5C 102.586,190.504 102.252,189.671 101.5,189C 99.8659,188.506 98.1992,188.34 96.5,188.5C 96.5,187.5 96.5,186.5 96.5,185.5C 97.9778,185.762 99.3112,185.429 100.5,184.5C 98.5764,183.035 98.2431,181.368 99.5,179.5C 99.4486,171.384 99.6153,163.051 100,154.5C 99.9064,150.367 100.74,146.701 102.5,143.5 Z"/></g>
<g><path style="opacity:1" fill="#d15c5c" d="M 94.5,159.5 C 94.7451,168.248 94.0784,176.915 92.5,185.5C 92.6667,187.5 92.8333,189.5 93,191.5C 93.6708,192.252 94.5041,192.586 95.5,192.5C 91.6295,199.131 89.9629,198.798 90.5,191.5C 90.5,190.5 90.5,189.5 90.5,188.5C 91.4587,178.789 92.7921,169.122 94.5,159.5 Z"/></g>
<g><path style="opacity:1" fill="#f58c9f" d="M 108.5,193.5 C 109.124,193.917 109.457,194.584 109.5,195.5C 109.139,197.418 108.472,197.751 107.5,196.5C 108.404,195.791 108.737,194.791 108.5,193.5 Z"/></g>
</svg>
