<?xml version="1.0" encoding="UTF-8"?>
<!DOCTYPE svg PUBLIC "-//W3C//DTD SVG 1.1//EN" "http://www.w3.org/Graphics/SVG/1.1/DTD/svg11.dtd">
<svg xmlns="http://www.w3.org/2000/svg" version="1.1" width="1200px" height="627px" style="shape-rendering:geometricPrecision; text-rendering:geometricPrecision; image-rendering:optimizeQuality; fill-rule:evenodd; clip-rule:evenodd" xmlns:xlink="http://www.w3.org/1999/xlink">
<g><path style="opacity:1" fill="#fefefe" d="M -0.5,-0.5 C 399.5,-0.5 799.5,-0.5 1199.5,-0.5C 1199.5,208.5 1199.5,417.5 1199.5,626.5C 799.5,626.5 399.5,626.5 -0.5,626.5C -0.5,417.5 -0.5,208.5 -0.5,-0.5 Z"/></g>
<g><path style="opacity:1" fill="#9e8273" d="M 220.5,142.5 C 217.827,147.687 214.16,152.187 209.5,156C 206.606,155.246 203.606,154.413 200.5,153.5C 207.132,149.849 213.798,146.182 220.5,142.5 Z"/></g>
<g><path style="opacity:1" fill="#896755" d="M 229.5,140.5 C 226.685,144.796 224.352,149.462 222.5,154.5C 218.335,156.081 214.668,158.414 211.5,161.5C 211.167,161.333 210.833,161.167 210.5,161C 212.329,159.887 213.163,158.387 213,156.5C 210.5,159 208,161.5 205.5,164C 203.426,163.773 201.426,163.939 199.5,164.5C 197.146,162.146 194.812,159.812 192.5,157.5C 194.789,155.613 197.455,154.279 200.5,153.5C 203.606,154.413 206.606,155.246 209.5,156C 214.16,152.187 217.827,147.687 220.5,142.5C 221.905,140.621 223.572,140.288 225.5,141.5C 226.719,140.737 227.719,139.737 228.5,138.5C 229.298,138.957 229.631,139.624 229.5,140.5 Z"/></g>
<g><path style="opacity:1" fill="#785340" d="M 229.5,140.5 C 233.079,147.317 237.412,153.65 242.5,159.5C 240.436,159.313 238.436,158.813 236.5,158C 237.888,157.111 237.722,156.611 236,156.5C 234.618,158.581 232.951,158.915 231,157.5C 228.889,158.472 226.722,159.305 224.5,160C 219.779,164.677 215.113,169.344 210.5,174C 205.5,174.667 200.5,174.667 195.5,174C 197.792,172.71 199.792,171.043 201.5,169C 199.799,168.655 198.466,169.322 197.5,171C 191.62,171.331 185.953,171.165 180.5,170.5C 182.434,164.233 186.434,159.9 192.5,157.5C 194.812,159.812 197.146,162.146 199.5,164.5C 201.426,163.939 203.426,163.773 205.5,164C 208,161.5 210.5,159 213,156.5C 213.163,158.387 212.329,159.887 210.5,161C 210.833,161.167 211.167,161.333 211.5,161.5C 214.668,158.414 218.335,156.081 222.5,154.5C 224.352,149.462 226.685,144.796 229.5,140.5 Z"/></g>
<g><path style="opacity:1" fill="#61402f" d="M 242.5,159.5 C 248.878,164.929 252.211,171.929 252.5,180.5C 250.216,180.025 248.216,179.025 246.5,177.5C 239.202,176.441 231.869,176.274 224.5,177C 222.238,178.047 220.071,179.213 218,180.5C 210.055,175.462 201.555,174.295 192.5,177C 189.823,177.814 187.823,179.314 186.5,181.5C 185.71,182.609 185.21,183.942 185,185.5C 181.34,185.898 179.506,187.898 179.5,191.5C 178.039,184.519 178.372,177.519 180.5,170.5C 185.953,171.165 191.62,171.331 197.5,171C 198.466,169.322 199.799,168.655 201.5,169C 199.792,171.043 197.792,172.71 195.5,174C 200.5,174.667 205.5,174.667 210.5,174C 215.113,169.344 219.779,164.677 224.5,160C 226.722,159.305 228.889,158.472 231,157.5C 232.951,158.915 234.618,158.581 236,156.5C 237.722,156.611 237.888,157.111 236.5,158C 238.436,158.813 240.436,159.313 242.5,159.5 Z"/></g>
<g><path style="opacity:1" fill="#daae9c" d="M 246.5,177.5 C 246.5,181.167 246.5,184.833 246.5,188.5C 246.5,190.5 246.5,192.5 246.5,194.5C 241.552,193.441 236.552,193.274 231.5,194C 228.894,194.792 226.894,196.292 225.5,198.5C 223.366,199.703 222.032,201.537 221.5,204C 222.167,204.333 222.833,204.667 223.5,205C 222.167,205.667 220.833,206.333 219.5,207C 220.056,207.383 220.389,207.883 220.5,208.5C 216.5,208.5 212.5,208.5 208.5,208.5C 208.5,208.167 208.5,207.833 208.5,207.5C 208.185,203.2 205.851,201.533 201.5,202.5C 201.167,202.5 200.833,202.5 200.5,202.5C 195.069,201.094 192.735,203.094 193.5,208.5C 191.393,209.468 189.059,209.802 186.5,209.5C 186.5,208.167 186.5,206.833 186.5,205.5C 188.228,203.774 190.228,202.441 192.5,201.5C 198.233,197.549 203.9,194.883 209.5,193.5C 208.791,192.596 207.791,192.263 206.5,192.5C 206.5,191.5 206.5,190.5 206.5,189.5C 209.607,189.649 212.607,189.149 215.5,188C 219.632,185.29 223.966,182.956 228.5,181C 224.432,180.122 220.766,180.955 217.5,183.5C 209.625,177.615 200.958,176.115 191.5,179C 189.03,179.74 187.363,181.24 186.5,183.5C 186.5,182.833 186.5,182.167 186.5,181.5C 187.823,179.314 189.823,177.814 192.5,177C 201.555,174.295 210.055,175.462 218,180.5C 220.071,179.213 222.238,178.047 224.5,177C 231.869,176.274 239.202,176.441 246.5,177.5 Z"/></g>
<g><path style="opacity:1" fill="#37261e" d="M 246.5,177.5 C 248.216,179.025 250.216,180.025 252.5,180.5C 253.766,186.63 253.766,192.63 252.5,198.5C 252.663,196.143 252.497,193.81 252,191.5C 249.901,190.869 248.068,189.869 246.5,188.5C 246.5,184.833 246.5,181.167 246.5,177.5 Z"/></g>
<g><path style="opacity:1" fill="#e8beaf" d="M 209.5,193.5 C 204.382,192.889 199.715,194.056 195.5,197C 193.859,198.129 192.859,199.629 192.5,201.5C 190.228,202.441 188.228,203.774 186.5,205.5C 186.5,203.167 186.5,200.833 186.5,198.5C 186.5,193.5 186.5,188.5 186.5,183.5C 187.363,181.24 189.03,179.74 191.5,179C 200.958,176.115 209.625,177.615 217.5,183.5C 220.766,180.955 224.432,180.122 228.5,181C 223.966,182.956 219.632,185.29 215.5,188C 212.607,189.149 209.607,189.649 206.5,189.5C 206.5,190.5 206.5,191.5 206.5,192.5C 207.791,192.263 208.791,192.596 209.5,193.5 Z"/></g>
<g><path style="opacity:1" fill="#493024" d="M 186.5,181.5 C 186.5,182.167 186.5,182.833 186.5,183.5C 186.5,188.5 186.5,193.5 186.5,198.5C 185.71,197.391 185.21,196.058 185,194.5C 184.147,196.125 183.147,196.458 182,195.5C 180.684,198.688 180.184,202.022 180.5,205.5C 179.833,205.5 179.5,205.167 179.5,204.5C 179.5,200.167 179.5,195.833 179.5,191.5C 179.506,187.898 181.34,185.898 185,185.5C 185.21,183.942 185.71,182.609 186.5,181.5 Z"/></g>
<g><path style="opacity:1" fill="#6a3d21" d="M 1011.5,187.5 C 1015.88,187.174 1020.22,187.508 1024.5,188.5C 1022.6,189.466 1020.6,189.799 1018.5,189.5C 1017.83,209.5 1017.17,209.5 1016.5,189.5C 1014.22,189.923 1012.55,189.256 1011.5,187.5 Z"/></g>
<g><path style="opacity:1" fill="#1b100c" d="M 246.5,188.5 C 248.068,189.869 249.901,190.869 252,191.5C 252.497,193.81 252.663,196.143 252.5,198.5C 252.5,199.5 252.5,200.5 252.5,201.5C 252.132,206.775 250.299,211.441 247,215.5C 245.989,214.663 244.822,214.33 243.5,214.5C 243.5,213.5 243.5,212.5 243.5,211.5C 244.209,210.596 245.209,210.263 246.5,210.5C 246.5,205.5 246.5,200.5 246.5,195.5C 246.5,195.167 246.5,194.833 246.5,194.5C 246.5,192.5 246.5,190.5 246.5,188.5 Z"/></g>
<g><path style="opacity:1" fill="#7b5643" d="M 246.5,194.5 C 246.5,194.833 246.5,195.167 246.5,195.5C 239.178,194.783 232.178,195.783 225.5,198.5C 226.894,196.292 228.894,194.792 231.5,194C 236.552,193.274 241.552,193.441 246.5,194.5 Z"/></g>
<g><path style="opacity:1" fill="#76513e" d="M 209.5,193.5 C 203.9,194.883 198.233,197.549 192.5,201.5C 192.859,199.629 193.859,198.129 195.5,197C 199.715,194.056 204.382,192.889 209.5,193.5 Z"/></g>
<g><path style="opacity:1" fill="#c19987" d="M 246.5,195.5 C 246.5,200.5 246.5,205.5 246.5,210.5C 245.209,210.263 244.209,210.596 243.5,211.5C 241.5,210.833 239.5,210.167 237.5,209.5C 237.5,209.167 237.5,208.833 237.5,208.5C 238.5,208.5 239.5,208.5 240.5,208.5C 240.739,206.533 240.406,204.699 239.5,203C 238.667,202.833 237.833,202.667 237,202.5C 235.624,202.684 234.791,203.351 234.5,204.5C 234.5,205.167 234.167,205.5 233.5,205.5C 233.5,204.5 233.5,203.5 233.5,202.5C 228.825,201.339 226.159,203.006 225.5,207.5C 228.076,207.532 230.409,206.865 232.5,205.5C 232.586,206.496 232.252,207.329 231.5,208C 227.848,208.499 224.182,208.665 220.5,208.5C 220.389,207.883 220.056,207.383 219.5,207C 220.833,206.333 222.167,205.667 223.5,205C 222.833,204.667 222.167,204.333 221.5,204C 222.032,201.537 223.366,199.703 225.5,198.5C 232.178,195.783 239.178,194.783 246.5,195.5 Z"/></g>
<g><path style="opacity:1" fill="#3280d1" d="M 521.5,199.5 C 537.524,199.275 553.524,199.775 569.5,201C 570.333,201.833 571.167,202.667 572,203.5C 572.667,208.833 572.667,214.167 572,219.5C 571.692,220.308 571.192,220.975 570.5,221.5C 558.869,222.345 547.202,223.012 535.5,223.5C 534.408,228.508 534.408,233.508 535.5,238.5C 546.489,239.16 557.489,239.994 568.5,241C 570.978,244.001 571.978,247.501 571.5,251.5C 571.333,253.833 571.167,256.167 571,258.5C 569.829,259.893 568.329,260.727 566.5,261C 556.506,261.5 546.506,261.666 536.5,261.5C 534.975,270.11 535.308,278.61 537.5,287C 550.162,287.5 562.829,287.667 575.5,287.5C 575.277,294.84 574.944,302.173 574.5,309.5C 553.484,312.122 532.484,312.122 511.5,309.5C 510.666,273.501 510.166,237.501 510,201.5C 511.911,200.555 513.911,200.555 516,201.5C 518.111,201.299 519.945,200.633 521.5,199.5 Z"/></g>
<g><path style="opacity:1" fill="#3380d1" d="M 814.5,199.5 C 830.524,199.275 846.524,199.775 862.5,201C 865.362,206.832 866.196,212.998 865,219.5C 864.167,220.333 863.333,221.167 862.5,222C 851.088,222.041 839.755,222.874 828.5,224.5C 827.188,229.364 827.188,234.197 828.5,239C 839.537,239.181 850.537,239.847 861.5,241C 862.893,242.171 863.727,243.671 864,245.5C 864.772,249.89 864.606,254.223 863.5,258.5C 862.088,259.806 860.421,260.64 858.5,261C 848.839,261.5 839.172,261.666 829.5,261.5C 828.217,270.164 828.217,278.83 829.5,287.5C 842.5,287.5 855.5,287.5 868.5,287.5C 868.271,294.515 867.771,301.515 867,308.5C 866.5,309 866,309.5 865.5,310C 847.865,311.547 830.198,311.881 812.5,311C 809.494,310.668 806.66,309.834 804,308.5C 803.407,297.159 803.574,285.826 804.5,274.5C 802.514,250.535 801.681,226.535 802,202.5C 803.989,200.249 806.322,199.916 809,201.5C 811.111,201.299 812.945,200.633 814.5,199.5 Z"/></g>
<g><path style="opacity:1" fill="#6c3f23" d="M 1026.5,187.5 C 1027.83,187.5 1029.17,187.5 1030.5,187.5C 1031.7,192.238 1033.2,196.905 1035,201.5C 1036.93,197.207 1038.76,192.874 1040.5,188.5C 1041.32,187.614 1042.32,187.281 1043.5,187.5C 1043.83,193.206 1043.5,198.872 1042.5,204.5C 1041.67,200.204 1041.17,195.871 1041,191.5C 1039.4,195.935 1037.56,200.268 1035.5,204.5C 1032.68,200.238 1030.51,195.572 1029,190.5C 1028.83,195.202 1028.33,199.868 1027.5,204.5C 1026.5,198.872 1026.17,193.206 1026.5,187.5 Z"/></g>
<g><path style="opacity:1" fill="#3380d1" d="M 481.5,258.5 C 481.737,262.722 481.404,266.889 480.5,271C 480.63,272.059 481.13,272.892 482,273.5C 482.174,278.684 482.674,283.684 483.5,288.5C 483.815,296.42 483.482,304.253 482.5,312C 474.587,312.814 466.754,312.647 459,311.5C 458.725,284.223 457.725,256.89 456,229.5C 455.5,227.667 454.333,226.5 452.5,226C 446.917,225.809 441.417,225.309 436,224.5C 435.5,217.174 435.334,209.841 435.5,202.5C 455.879,202.821 476.213,202.488 496.5,201.5C 497.478,201.977 498.311,202.643 499,203.5C 499.667,210.167 499.667,216.833 499,223.5C 492.956,224.201 486.956,225.201 481,226.5C 481.374,237.13 481.541,247.797 481.5,258.5 Z"/></g>
<g><path style="opacity:1" fill="#1f140f" d="M 186.5,198.5 C 186.5,200.833 186.5,203.167 186.5,205.5C 186.5,206.833 186.5,208.167 186.5,209.5C 187.9,210.1 188.9,211.1 189.5,212.5C 189.19,214.144 188.19,215.144 186.5,215.5C 184.983,215.489 183.816,214.823 183,213.5C 181.659,210.978 180.826,208.311 180.5,205.5C 180.184,202.022 180.684,198.688 182,195.5C 183.147,196.458 184.147,196.125 185,194.5C 185.21,196.058 185.71,197.391 186.5,198.5 Z"/></g>
<g><path style="opacity:1" fill="#3380d1" d="M 296.5,203.5 C 304.84,203.334 313.173,203.5 321.5,204C 322,204.5 322.5,205 323,205.5C 324.263,239.115 324.597,272.782 324,306.5C 323.167,308 322,309.167 320.5,310C 315.184,310.683 309.85,311.183 304.5,311.5C 301.713,311.426 299.213,310.76 297,309.5C 297.142,274.178 296.976,238.845 296.5,203.5 Z"/></g>
<g><path style="opacity:1" fill="#3380d1" d="M 664.5,202.5 C 669.43,202.197 674.263,202.531 679,203.5C 688.467,227.564 698.133,251.564 708,275.5C 716.129,252.915 723.962,230.248 731.5,207.5C 732.308,207.192 732.975,206.692 733.5,206C 740.823,205.279 748.156,204.779 755.5,204.5C 751.465,224.631 744.965,243.964 736,262.5C 733.741,269.018 732.074,275.685 731,282.5C 726.401,291.632 723.401,301.298 722,311.5C 715.234,311.399 708.4,311.732 701.5,312.5C 699.571,312.46 697.738,312.127 696,311.5C 689.799,294.565 683.799,277.565 678,260.5C 670.285,243.364 662.952,226.031 656,208.5C 655.28,206.888 655.446,205.388 656.5,204C 659.365,203.817 662.031,203.317 664.5,202.5 Z"/></g>
<g><path style="opacity:1" fill="#3481d1" d="M 763.5,203.5 C 771.889,203.197 780.222,203.53 788.5,204.5C 791.14,238.455 791.973,272.455 791,306.5C 789.786,308.049 788.286,309.215 786.5,310C 778.954,311.405 771.454,311.572 764,310.5C 763.5,274.835 763.333,239.168 763.5,203.5 Z"/></g>
<g><path style="opacity:1" fill="#d7d4d1" d="M 201.5,202.5 C 205.851,201.533 208.185,203.2 208.5,207.5C 205.197,207.265 202.863,205.598 201.5,202.5 Z"/></g>
<g><path style="opacity:1" fill="#3380d1" d="M 335.5,203.5 C 343.174,203.334 350.841,203.5 358.5,204C 371.104,227.237 385.604,249.071 402,269.5C 403.964,262.192 403.964,254.859 402,247.5C 401.5,232.837 401.333,218.17 401.5,203.5C 409.145,203.112 416.645,203.779 424,205.5C 425.122,212.449 425.789,219.449 426,226.5C 426.5,254.498 426.667,282.498 426.5,310.5C 418.528,311.532 410.528,311.698 402.5,311C 394.353,296.536 384.853,283.036 374,270.5C 369.082,263 364.416,255.333 360,247.5C 360.044,269.514 360.544,291.514 361.5,313.5C 353.167,313.5 344.833,313.5 336.5,313.5C 335.811,276.837 335.478,240.171 335.5,203.5 Z"/></g>
<g><path style="opacity:1" fill="#3380d1" d="M 587.5,204.5 C 603.844,204.153 620.177,204.653 636.5,206C 640.758,207.384 644.258,209.884 647,213.5C 657.272,228.705 656.939,243.705 646,258.5C 643.43,260.869 640.596,262.869 637.5,264.5C 643.509,274.245 649.509,283.912 655.5,293.5C 657.65,298.296 659.65,303.13 661.5,308C 653.685,310.098 645.685,311.098 637.5,311C 631.64,300.803 626.14,290.303 621,279.5C 618.72,275.553 616.053,271.887 613,268.5C 614.218,283.083 614.718,297.75 614.5,312.5C 606.068,314.113 597.735,313.779 589.5,311.5C 589.667,296.496 589.5,281.496 589,266.5C 586.538,245.858 586.038,225.191 587.5,204.5 Z"/></g>
<g><path style="opacity:1" fill="#3481d1" d="M 890.5,203.5 C 894.182,203.335 897.848,203.501 901.5,204C 902.333,204.833 903.167,205.667 904,206.5C 909.292,224.814 912.958,243.48 915,262.5C 915.216,264.384 915.883,266.051 917,267.5C 920.092,261.478 922.426,255.144 924,248.5C 927.758,233.969 931.591,219.469 935.5,205C 940.5,204.333 945.5,204.333 950.5,205C 951.333,205.833 952.167,206.667 953,207.5C 958.145,225.601 964.478,243.268 972,260.5C 975.331,245.849 978.664,231.182 982,216.5C 983.208,212.374 984.708,208.374 986.5,204.5C 994.444,203.531 1002.44,203.198 1010.5,203.5C 1010.67,207.514 1010.5,211.514 1010,215.5C 1005.8,231.949 1001.14,248.282 996,264.5C 993.011,278.81 990.011,293.144 987,307.5C 983.659,311.899 979.159,313.566 973.5,312.5C 966.916,313.959 962.416,311.626 960,305.5C 953.571,287.214 948.571,268.548 945,249.5C 938.734,269.302 933.067,289.302 928,309.5C 920.753,312.064 913.253,312.897 905.5,312C 904.069,311.535 902.903,310.701 902,309.5C 893.335,284.505 887.668,258.838 885,232.5C 882.203,223.241 879.703,213.907 877.5,204.5C 882.032,204.818 886.366,204.485 890.5,203.5 Z"/></g>
<g><path style="opacity:1" fill="#e6e6e5" d="M 233.5,205.5 C 233.167,205.5 232.833,205.5 232.5,205.5C 230.409,206.865 228.076,207.532 225.5,207.5C 226.159,203.006 228.825,201.339 233.5,202.5C 233.5,203.5 233.5,204.5 233.5,205.5 Z"/></g>
<g><path style="opacity:1" fill="#bec7c1" d="M 237.5,208.5 C 236.022,207.552 235.022,206.219 234.5,204.5C 234.791,203.351 235.624,202.684 237,202.5C 237.833,202.667 238.667,202.833 239.5,203C 240.406,204.699 240.739,206.533 240.5,208.5C 239.5,208.5 238.5,208.5 237.5,208.5 Z"/></g>
<g><path style="opacity:1" fill="#dee0df" d="M 200.5,202.5 C 200.5,203.167 200.5,203.833 200.5,204.5C 199.833,204.833 199.167,205.167 198.5,205.5C 196.451,205.706 196.117,206.539 197.5,208C 196.207,208.49 194.873,208.657 193.5,208.5C 192.735,203.094 195.069,201.094 200.5,202.5 Z"/></g>
<g><path style="opacity:1" fill="#90a399" d="M 200.5,202.5 C 200.833,202.5 201.167,202.5 201.5,202.5C 202.863,205.598 205.197,207.265 208.5,207.5C 208.5,207.833 208.5,208.167 208.5,208.5C 206.167,208.5 203.833,208.5 201.5,208.5C 201.768,206.901 201.434,205.568 200.5,204.5C 200.5,203.833 200.5,203.167 200.5,202.5 Z"/></g>
<g><path style="opacity:1" fill="#5f5750" d="M 198.5,205.5 C 199.405,206.964 199.405,208.298 198.5,209.5C 196.901,209.232 195.568,209.566 194.5,210.5C 192.446,210.365 190.779,211.032 189.5,212.5C 188.9,211.1 187.9,210.1 186.5,209.5C 189.059,209.802 191.393,209.468 193.5,208.5C 194.873,208.657 196.207,208.49 197.5,208C 196.117,206.539 196.451,205.706 198.5,205.5 Z"/></g>
<g><path style="opacity:1" fill="#1b1a19" d="M 200.5,204.5 C 201.434,205.568 201.768,206.901 201.5,208.5C 203.833,208.5 206.167,208.5 208.5,208.5C 212.5,208.5 216.5,208.5 220.5,208.5C 224.182,208.665 227.848,208.499 231.5,208C 232.252,207.329 232.586,206.496 232.5,205.5C 232.833,205.5 233.167,205.5 233.5,205.5C 234.167,205.5 234.5,205.167 234.5,204.5C 235.022,206.219 236.022,207.552 237.5,208.5C 237.5,208.833 237.5,209.167 237.5,209.5C 234.167,209.5 230.833,209.5 227.5,209.5C 222.568,211.456 217.568,212.122 212.5,211.5C 210.485,210.076 208.152,209.41 205.5,209.5C 203.167,209.5 200.833,209.5 198.5,209.5C 199.405,208.298 199.405,206.964 198.5,205.5C 199.167,205.167 199.833,204.833 200.5,204.5 Z"/></g>
<g><path style="opacity:1" fill="#ececed" d="M 198.5,209.5 C 200.833,209.5 203.167,209.5 205.5,209.5C 204.056,212.89 201.39,214.223 197.5,213.5C 196.306,212.728 195.306,211.728 194.5,210.5C 195.568,209.566 196.901,209.232 198.5,209.5 Z"/></g>
<g><path style="opacity:1" fill="#e8d2c7" d="M 205.5,209.5 C 208.152,209.41 210.485,210.076 212.5,211.5C 212.396,213.703 211.73,215.703 210.5,217.5C 210.389,218.117 210.056,218.617 209.5,219C 203.843,219.499 198.176,219.666 192.5,219.5C 191.475,219.103 191.308,218.437 192,217.5C 194.311,216.603 196.144,215.27 197.5,213.5C 201.39,214.223 204.056,212.89 205.5,209.5 Z"/></g>
<g><path style="opacity:1" fill="#e3d6ce" d="M 227.5,209.5 C 230.833,209.5 234.167,209.5 237.5,209.5C 239.5,210.167 241.5,210.833 243.5,211.5C 243.5,212.5 243.5,213.5 243.5,214.5C 242.933,216.03 242.267,217.53 241.5,219C 237.848,219.499 234.182,219.665 230.5,219.5C 232.275,216.401 234.942,214.401 238.5,213.5C 235.998,213.379 233.332,213.212 230.5,213C 228.574,212.578 227.574,211.411 227.5,209.5 Z"/></g>
<g><path style="opacity:1" fill="#bca389" d="M 179.5,204.5 C 179.5,205.167 179.833,205.5 180.5,205.5C 180.826,208.311 181.659,210.978 183,213.5C 183.816,214.823 184.983,215.489 186.5,215.5C 186.5,218.833 186.5,222.167 186.5,225.5C 180.499,222.449 177.832,217.449 178.5,210.5C 178.505,208.304 178.838,206.304 179.5,204.5 Z"/></g>
<g><path style="opacity:1" fill="#d5b4a0" d="M 227.5,209.5 C 227.574,211.411 228.574,212.578 230.5,213C 233.332,213.212 235.998,213.379 238.5,213.5C 234.942,214.401 232.275,216.401 230.5,219.5C 228.143,219.663 225.81,219.497 223.5,219C 222,215.989 221.166,216.489 221,220.5C 219.494,222.174 217.661,223.174 215.5,223.5C 215.649,222.448 215.483,221.448 215,220.5C 213.644,221.38 212.144,221.714 210.5,221.5C 210.731,225.396 212.898,227.396 217,227.5C 221.577,227.146 224.41,224.813 225.5,220.5C 226.696,220.846 226.696,221.346 225.5,222C 229.5,222.667 229.5,223.333 225.5,224C 226.527,225.866 227.527,227.7 228.5,229.5C 219.407,230.853 210.407,230.686 201.5,229C 202.636,230.145 203.636,231.312 204.5,232.5C 205.5,233.833 206.5,235.167 207.5,236.5C 203.708,237.522 200.375,238.855 197.5,240.5C 196.078,239.223 195.078,239.557 194.5,241.5C 188.62,237.739 185.953,232.406 186.5,225.5C 186.5,222.167 186.5,218.833 186.5,215.5C 188.19,215.144 189.19,214.144 189.5,212.5C 190.779,211.032 192.446,210.365 194.5,210.5C 195.306,211.728 196.306,212.728 197.5,213.5C 196.144,215.27 194.311,216.603 192,217.5C 191.308,218.437 191.475,219.103 192.5,219.5C 198.319,220.653 204.319,220.819 210.5,220C 211.774,219.023 211.774,218.189 210.5,217.5C 211.73,215.703 212.396,213.703 212.5,211.5C 217.568,212.122 222.568,211.456 227.5,209.5 Z"/></g>
<g><path style="opacity:1" fill="#6c5b54" d="M 210.5,217.5 C 211.774,218.189 211.774,219.023 210.5,220C 204.319,220.819 198.319,220.653 192.5,219.5C 198.176,219.666 203.843,219.499 209.5,219C 210.056,218.617 210.389,218.117 210.5,217.5 Z"/></g>
<g><path style="opacity:1" fill="#f8fafc" d="M 615.5,224.5 C 620.817,224.818 625.817,226.318 630.5,229C 634.41,232.925 634.41,236.925 630.5,241C 625.199,243.868 619.533,245.035 613.5,244.5C 613.443,238.149 613.11,231.815 612.5,225.5C 613.791,225.737 614.791,225.404 615.5,224.5 Z"/></g>
<g><path style="opacity:1" fill="#a2887f" d="M 228.5,229.5 C 233.308,228.067 233.641,228.734 229.5,231.5C 221.334,232.424 213.334,232.757 205.5,232.5C 205.167,232.5 204.833,232.5 204.5,232.5C 203.636,231.312 202.636,230.145 201.5,229C 210.407,230.686 219.407,230.853 228.5,229.5 Z"/></g>
<g><path style="opacity:1" fill="#c1a18a" d="M 252.5,201.5 C 253.117,201.611 253.617,201.944 254,202.5C 254.789,208.237 254.456,213.903 253,219.5C 251.71,221.792 250.043,223.792 248,225.5C 247.184,233.031 243.684,239.197 237.5,244C 236.906,244.464 236.239,244.631 235.5,244.5C 234.243,242.632 234.576,240.965 236.5,239.5C 236,239.167 235.5,238.833 235,238.5C 232.67,240.04 230.17,241.207 227.5,242C 222.833,242.333 218.167,242.667 213.5,243C 216.956,242.907 219.956,243.907 222.5,246C 217.716,248.113 212.716,249.446 207.5,250C 209.901,252.062 212.567,253.729 215.5,255C 215.272,255.399 214.938,255.565 214.5,255.5C 208.578,253.539 203.245,250.539 198.5,246.5C 197.167,244.833 195.833,243.167 194.5,241.5C 195.078,239.557 196.078,239.223 197.5,240.5C 200.375,238.855 203.708,237.522 207.5,236.5C 208.167,236.5 208.833,236.5 209.5,236.5C 209.611,237.117 209.944,237.617 210.5,238C 212.333,238.167 214.167,238.333 216,238.5C 218.295,238.453 220.129,237.787 221.5,236.5C 224.313,236.975 226.313,235.975 227.5,233.5C 228.5,233.167 229.167,232.5 229.5,231.5C 233.641,228.734 233.308,228.067 228.5,229.5C 227.527,227.7 226.527,225.866 225.5,224C 229.5,223.333 229.5,222.667 225.5,222C 226.696,221.346 226.696,220.846 225.5,220.5C 224.41,224.813 221.577,227.146 217,227.5C 212.898,227.396 210.731,225.396 210.5,221.5C 212.144,221.714 213.644,221.38 215,220.5C 215.483,221.448 215.649,222.448 215.5,223.5C 217.661,223.174 219.494,222.174 221,220.5C 221.166,216.489 222,215.989 223.5,219C 225.81,219.497 228.143,219.663 230.5,219.5C 234.182,219.665 237.848,219.499 241.5,219C 242.267,217.53 242.933,216.03 243.5,214.5C 244.822,214.33 245.989,214.663 247,215.5C 250.299,211.441 252.132,206.775 252.5,201.5 Z"/></g>
<g><path style="opacity:1" fill="#d5d4d4" d="M 205.5,232.5 C 213.334,232.757 221.334,232.424 229.5,231.5C 229.167,232.5 228.5,233.167 227.5,233.5C 220.026,235.112 212.693,234.778 205.5,232.5 Z"/></g>
<g><path style="opacity:1" fill="#332f2f" d="M 204.5,232.5 C 204.833,232.5 205.167,232.5 205.5,232.5C 212.693,234.778 220.026,235.112 227.5,233.5C 226.313,235.975 224.313,236.975 221.5,236.5C 217.5,236.5 213.5,236.5 209.5,236.5C 208.833,236.5 208.167,236.5 207.5,236.5C 206.5,235.167 205.5,233.833 204.5,232.5 Z"/></g>
<g><path style="opacity:1" fill="#f2f1f0" d="M 209.5,236.5 C 213.5,236.5 217.5,236.5 221.5,236.5C 220.129,237.787 218.295,238.453 216,238.5C 214.167,238.333 212.333,238.167 210.5,238C 209.944,237.617 209.611,237.117 209.5,236.5 Z"/></g>
<g><path style="opacity:1" fill="#b8987a" d="M 235.5,244.5 C 235.5,244.833 235.5,245.167 235.5,245.5C 230.514,249.661 225.181,253.327 219.5,256.5C 217.833,256.5 216.167,256.5 214.5,256.5C 214.5,256.167 214.5,255.833 214.5,255.5C 214.938,255.565 215.272,255.399 215.5,255C 212.567,253.729 209.901,252.062 207.5,250C 212.716,249.446 217.716,248.113 222.5,246C 219.956,243.907 216.956,242.907 213.5,243C 218.167,242.667 222.833,242.333 227.5,242C 230.17,241.207 232.67,240.04 235,238.5C 235.5,238.833 236,239.167 236.5,239.5C 234.576,240.965 234.243,242.632 235.5,244.5 Z"/></g>
<g><path style="opacity:1" fill="#bebabb" d="M 235.5,245.5 C 236.323,247.455 236.49,249.455 236,251.5C 232.234,255.106 228.067,258.106 223.5,260.5C 221.806,259.473 220.473,258.139 219.5,256.5C 225.181,253.327 230.514,249.661 235.5,245.5 Z"/></g>
<g><path style="opacity:1" fill="#bebcbe" d="M 198.5,246.5 C 203.245,250.539 208.578,253.539 214.5,255.5C 214.5,255.833 214.5,256.167 214.5,256.5C 213.19,258.148 211.857,259.814 210.5,261.5C 211.167,262.5 211.833,263.5 212.5,264.5C 211.873,265.417 211.539,266.417 211.5,267.5C 209.251,266.92 207.585,265.587 206.5,263.5C 208.686,263.489 209.519,262.489 209,260.5C 206,258.5 203,256.5 200,254.5C 199.601,254.728 199.435,255.062 199.5,255.5C 198.094,255.027 197.427,254.027 197.5,252.5C 197.325,250.379 197.659,248.379 198.5,246.5 Z"/></g>
<g><path style="opacity:1" fill="#eeeff0" d="M 206.5,263.5 C 204.177,260.874 201.843,258.207 199.5,255.5C 199.435,255.062 199.601,254.728 200,254.5C 203,256.5 206,258.5 209,260.5C 209.519,262.489 208.686,263.489 206.5,263.5 Z"/></g>
<g><path style="opacity:1" fill="#050e2e" d="M 214.5,256.5 C 216.167,256.5 217.833,256.5 219.5,256.5C 220.473,258.139 221.806,259.473 223.5,260.5C 223.5,260.833 223.5,261.167 223.5,261.5C 222.314,263.792 222.314,266.126 223.5,268.5C 221.665,272.088 218.999,273.754 215.5,273.5C 213.748,271.754 212.415,269.754 211.5,267.5C 211.539,266.417 211.873,265.417 212.5,264.5C 211.833,263.5 211.167,262.5 210.5,261.5C 211.857,259.814 213.19,258.148 214.5,256.5 Z"/></g>
<g><path style="opacity:1" fill="#b8babe" d="M 223.5,261.5 C 224.488,262.795 225.488,264.128 226.5,265.5C 225.833,266.833 224.833,267.833 223.5,268.5C 222.314,266.126 222.314,263.792 223.5,261.5 Z"/></g>
<g><path style="opacity:1" fill="#6c849b" d="M 197.5,252.5 C 197.427,254.027 198.094,255.027 199.5,255.5C 201.843,258.207 204.177,260.874 206.5,263.5C 207.585,265.587 209.251,266.92 211.5,267.5C 212.415,269.754 213.748,271.754 215.5,273.5C 216.536,275.391 216.536,277.224 215.5,279C 218.233,280.228 218.9,282.061 217.5,284.5C 212.198,284.056 207.031,283.056 202,281.5C 203.706,276.012 204.373,270.346 204,264.5C 202.195,261.961 199.695,260.961 196.5,261.5C 194.837,270.497 190.837,278.164 184.5,284.5C 181.167,284.5 177.833,284.5 174.5,284.5C 174.62,281.795 173.62,281.128 171.5,282.5C 171.167,282 170.833,281.5 170.5,281C 171.996,279.669 173.329,278.169 174.5,276.5C 172.96,275.468 172.46,274.135 173,272.5C 174.507,271.495 175.673,270.162 176.5,268.5C 177.5,269.167 178.5,269.833 179.5,270.5C 179.833,270 180.167,269.5 180.5,269C 179.445,267.493 178.445,265.993 177.5,264.5C 180.607,260.358 184.44,257.025 189,254.5C 189.483,253.552 189.649,252.552 189.5,251.5C 192.279,251.279 194.946,251.612 197.5,252.5 Z"/></g>
<g><path style="opacity:1" fill="#7892aa" d="M 177.5,264.5 C 178.445,265.993 179.445,267.493 180.5,269C 180.167,269.5 179.833,270 179.5,270.5C 178.5,269.833 177.5,269.167 176.5,268.5C 175.673,270.162 174.507,271.495 173,272.5C 172.46,274.135 172.96,275.468 174.5,276.5C 173.329,278.169 171.996,279.669 170.5,281C 170.833,281.5 171.167,282 171.5,282.5C 173.62,281.128 174.62,281.795 174.5,284.5C 173.178,284.33 172.011,284.663 171,285.5C 170,288.167 169,290.833 168,293.5C 167.68,299.382 167.514,305.049 167.5,310.5C 162.92,308.416 159.087,305.416 156,301.5C 155.333,298.833 155.333,296.167 156,293.5C 160.915,286.672 165.581,279.672 170,272.5C 172,269.334 174.5,266.668 177.5,264.5 Z"/></g>
<g><path style="opacity:1" fill="#dcc5b3" d="M 217.5,284.5 C 217.833,285.167 218.167,285.833 218.5,286.5C 209.687,286.016 201.687,288.182 194.5,293C 191.178,293.059 188.344,294.226 186,296.5C 185.667,296.167 185.333,295.833 185,295.5C 184.073,298.706 182.907,299.039 181.5,296.5C 181.996,292.348 182.996,288.348 184.5,284.5C 190.837,278.164 194.837,270.497 196.5,261.5C 199.695,260.961 202.195,261.961 204,264.5C 204.373,270.346 203.706,276.012 202,281.5C 207.031,283.056 212.198,284.056 217.5,284.5 Z"/></g>
<g><path style="opacity:1" fill="#6198d5" d="M 481.5,258.5 C 482.979,268.296 483.646,278.296 483.5,288.5C 482.674,283.684 482.174,278.684 482,273.5C 481.13,272.892 480.63,272.059 480.5,271C 481.404,266.889 481.737,262.722 481.5,258.5 Z"/></g>
<g><path style="opacity:1" fill="#d2ac95" d="M 220.5,292.5 C 219.92,295.965 219.587,299.299 219.5,302.5C 218.448,302.351 217.448,302.517 216.5,303C 214.548,305.074 212.715,307.241 211,309.5C 210.667,309.167 210.333,308.833 210,308.5C 205.667,311.414 201.167,313.914 196.5,316C 193.486,316.128 190.486,316.128 187.5,316C 188.056,316.383 188.389,316.883 188.5,317.5C 186.5,316.833 184.5,316.167 182.5,315.5C 181.766,314.292 181.433,312.959 181.5,311.5C 183.619,311.731 185.785,312.065 188,312.5C 189.697,311.522 190.864,310.356 191.5,309C 194.232,308.587 196.899,307.92 199.5,307C 200.833,306.333 200.833,305.667 199.5,305C 201.624,303.418 203.79,303.251 206,304.5C 208.483,301.511 211.65,300.178 215.5,300.5C 215.579,299.07 215.246,297.736 214.5,296.5C 215.522,295.646 216.355,294.646 217,293.5C 217.333,293.833 217.667,294.167 218,294.5C 218.708,293.619 219.542,292.953 220.5,292.5 Z"/></g>
<g><path style="opacity:1" fill="#ededed" d="M 174.5,284.5 C 177.833,284.5 181.167,284.5 184.5,284.5C 182.996,288.348 181.996,292.348 181.5,296.5C 181.5,301.5 181.5,306.5 181.5,311.5C 181.433,312.959 181.766,314.292 182.5,315.5C 177.255,314.279 172.255,312.613 167.5,310.5C 167.514,305.049 167.68,299.382 168,293.5C 169,290.833 170,288.167 171,285.5C 172.011,284.663 173.178,284.33 174.5,284.5 Z"/></g>
<g><path style="opacity:1" fill="#3e4d5b" d="M 244.5,251.5 C 244.5,271.167 244.5,290.833 244.5,310.5C 243.874,317.584 244.541,324.25 246.5,330.5C 246.5,330.833 246.5,331.167 246.5,331.5C 246.5,333.5 246.5,335.5 246.5,337.5C 242.591,337.866 239.924,336.2 238.5,332.5C 237.137,333.879 236.137,333.713 235.5,332C 236.484,330.343 237.484,328.677 238.5,327C 237.551,326.383 236.718,326.549 236,327.5C 235.333,326.5 235.333,325.5 236,324.5C 240.802,321.111 240.635,319.777 235.5,320.5C 235.626,318.8 236.293,317.3 237.5,316C 236.833,315 236.167,314 235.5,313C 236.833,311.333 238.167,309.667 239.5,308C 238.65,306.714 237.483,306.881 236,308.5C 235.833,308 235.667,307.5 235.5,307C 236.464,305.036 237.797,303.37 239.5,302C 238.167,301.333 236.833,300.667 235.5,300C 235.903,298.527 236.57,297.194 237.5,296C 235.842,295.275 235.342,294.108 236,292.5C 238.741,291.778 239.741,290.112 239,287.5C 237.517,289.119 236.35,289.286 235.5,288C 236.464,286.036 237.797,284.37 239.5,283C 239.167,282.5 238.833,282 238.5,281.5C 237.391,282.59 236.391,282.59 235.5,281.5C 238.06,279.326 238.06,277.159 235.5,275C 236.833,273.333 238.167,271.667 239.5,270C 238.65,268.714 237.483,268.881 236,270.5C 235.833,270 235.667,269.5 235.5,269C 236.464,267.036 237.797,265.37 239.5,264C 236.706,262.654 234.373,263.487 232.5,266.5C 231.542,266.953 230.708,267.619 230,268.5C 231.407,265.055 233.741,262.055 237,259.5C 237.495,257.527 237.662,255.527 237.5,253.5C 237.611,252.883 237.944,252.383 238.5,252C 240.473,251.505 242.473,251.338 244.5,251.5 Z"/></g>
<g><path style="opacity:1" fill="#dabaa5" d="M 218.5,286.5 C 220.28,287.99 220.946,289.99 220.5,292.5C 219.542,292.953 218.708,293.619 218,294.5C 217.667,294.167 217.333,293.833 217,293.5C 216.355,294.646 215.522,295.646 214.5,296.5C 215.246,297.736 215.579,299.07 215.5,300.5C 211.65,300.178 208.483,301.511 206,304.5C 203.79,303.251 201.624,303.418 199.5,305C 200.833,305.667 200.833,306.333 199.5,307C 196.899,307.92 194.232,308.587 191.5,309C 190.864,310.356 189.697,311.522 188,312.5C 185.785,312.065 183.619,311.731 181.5,311.5C 181.5,306.5 181.5,301.5 181.5,296.5C 182.907,299.039 184.073,298.706 185,295.5C 185.333,295.833 185.667,296.167 186,296.5C 188.344,294.226 191.178,293.059 194.5,293C 201.687,288.182 209.687,286.016 218.5,286.5 Z"/></g>
<g><path style="opacity:1" fill="#c99c80" d="M 219.5,302.5 C 218.021,306.277 217.188,310.277 217,314.5C 215.122,316.043 213.622,317.876 212.5,320C 211.255,320.791 209.922,321.291 208.5,321.5C 201.93,321.877 195.597,320.877 189.5,318.5C 189.5,317.833 189.167,317.5 188.5,317.5C 188.389,316.883 188.056,316.383 187.5,316C 190.486,316.128 193.486,316.128 196.5,316C 201.167,313.914 205.667,311.414 210,308.5C 210.333,308.833 210.667,309.167 211,309.5C 212.715,307.241 214.548,305.074 216.5,303C 217.448,302.517 218.448,302.351 219.5,302.5 Z"/></g>
<g><path style="opacity:1" fill="#607487" d="M 258.5,286.5 C 262.373,300.206 264.707,314.206 265.5,328.5C 265.5,329.833 265.5,331.167 265.5,332.5C 259.797,332.625 254.13,332.292 248.5,331.5C 247.766,330.292 247.433,328.959 247.5,327.5C 249.492,327.672 251.158,327.005 252.5,325.5C 253.748,326.04 254.915,326.707 256,327.5C 256.167,327 256.333,326.5 256.5,326C 254.633,324.216 252.966,322.216 251.5,320C 251.667,319.5 251.833,319 252,318.5C 253.241,320.421 254.741,320.754 256.5,319.5C 254.769,317.655 253.102,315.822 251.5,314C 251.833,313.5 252.167,313 252.5,312.5C 253.5,313.167 254.5,313.833 255.5,314.5C 255.833,314 256.167,313.5 256.5,313C 255.098,311.12 253.431,309.453 251.5,308C 252.873,306.521 254.373,306.688 256,308.5C 256.667,307.5 256.667,306.5 256,305.5C 252.952,304.481 251.619,302.481 252,299.5C 253.241,301.421 254.741,301.754 256.5,300.5C 254.769,298.655 253.102,296.822 251.5,295C 251.833,294.5 252.167,294 252.5,293.5C 253.5,294.167 254.5,294.833 255.5,295.5C 255.833,295 256.167,294.5 256.5,294C 255.098,292.12 253.431,290.453 251.5,289C 251.833,288.5 252.167,288 252.5,287.5C 253.5,288.167 254.5,288.833 255.5,289.5C 256.141,288.007 257.141,287.007 258.5,286.5 Z"/></g>
<g><path style="opacity:1" fill="#4b5c6c" d="M 246.5,337.5 C 246.5,337.833 246.5,338.167 246.5,338.5C 242.5,338.5 238.5,338.5 234.5,338.5C 233.4,337.442 232.066,336.608 230.5,336C 230.833,335.667 231.167,335.333 231.5,335C 230.151,334.228 229.318,333.061 229,331.5C 227.373,333.312 225.873,333.479 224.5,332C 225.613,330.606 226.947,329.439 228.5,328.5C 229.386,327.675 229.719,326.675 229.5,325.5C 227.669,326.052 226.003,326.052 224.5,325.5C 226.36,324.061 228.027,322.395 229.5,320.5C 227.784,320.003 226.117,319.669 224.5,319.5C 226.231,317.655 227.898,315.822 229.5,314C 229.167,313.5 228.833,313 228.5,312.5C 227.549,313.326 226.549,313.492 225.5,313C 226.376,311.414 227.376,309.914 228.5,308.5C 227.349,307.269 226.183,307.269 225,308.5C 224.833,308 224.667,307.5 224.5,307C 226.367,305.216 228.034,303.216 229.5,301C 229.333,300.5 229.167,300 229,299.5C 227.488,300.257 226.154,301.257 225,302.5C 224.619,299.519 225.952,297.519 229,296.5C 229.12,292.989 227.786,292.655 225,295.5C 224.833,295.167 224.667,294.833 224.5,294.5C 226.656,292.371 228.323,290.038 229.5,287.5C 223.271,288.741 222.937,287.575 228.5,284C 224.524,281.578 224.691,279.411 229,277.5C 229.333,276.5 229.667,275.5 230,274.5C 231.627,276.312 233.127,276.479 234.5,275C 233.783,273.469 232.783,272.136 231.5,271C 232.646,270.241 233.646,269.574 234.5,269C 234.361,267.699 233.695,266.866 232.5,266.5C 234.373,263.487 236.706,262.654 239.5,264C 237.797,265.37 236.464,267.036 235.5,269C 235.667,269.5 235.833,270 236,270.5C 237.483,268.881 238.65,268.714 239.5,270C 238.167,271.667 236.833,273.333 235.5,275C 238.06,277.159 238.06,279.326 235.5,281.5C 236.391,282.59 237.391,282.59 238.5,281.5C 238.833,282 239.167,282.5 239.5,283C 237.797,284.37 236.464,286.036 235.5,288C 236.35,289.286 237.517,289.119 239,287.5C 239.741,290.112 238.741,291.778 236,292.5C 235.342,294.108 235.842,295.275 237.5,296C 236.57,297.194 235.903,298.527 235.5,300C 236.833,300.667 238.167,301.333 239.5,302C 237.797,303.37 236.464,305.036 235.5,307C 235.667,307.5 235.833,308 236,308.5C 237.483,306.881 238.65,306.714 239.5,308C 238.167,309.667 236.833,311.333 235.5,313C 236.167,314 236.833,315 237.5,316C 236.293,317.3 235.626,318.8 235.5,320.5C 240.635,319.777 240.802,321.111 236,324.5C 235.333,325.5 235.333,326.5 236,327.5C 236.718,326.549 237.551,326.383 238.5,327C 237.484,328.677 236.484,330.343 235.5,332C 236.137,333.713 237.137,333.879 238.5,332.5C 239.924,336.2 242.591,337.866 246.5,337.5 Z"/></g>
<g><path style="opacity:1" fill="#6e849a" d="M 244.5,251.5 C 248.184,254.654 250.684,258.654 252,263.5C 254.892,271.003 257.059,278.67 258.5,286.5C 257.141,287.007 256.141,288.007 255.5,289.5C 254.5,288.833 253.5,288.167 252.5,287.5C 252.167,288 251.833,288.5 251.5,289C 253.431,290.453 255.098,292.12 256.5,294C 256.167,294.5 255.833,295 255.5,295.5C 254.5,294.833 253.5,294.167 252.5,293.5C 252.167,294 251.833,294.5 251.5,295C 253.102,296.822 254.769,298.655 256.5,300.5C 254.741,301.754 253.241,301.421 252,299.5C 251.619,302.481 252.952,304.481 256,305.5C 256.667,306.5 256.667,307.5 256,308.5C 254.373,306.688 252.873,306.521 251.5,308C 253.431,309.453 255.098,311.12 256.5,313C 256.167,313.5 255.833,314 255.5,314.5C 254.5,313.833 253.5,313.167 252.5,312.5C 252.167,313 251.833,313.5 251.5,314C 253.102,315.822 254.769,317.655 256.5,319.5C 254.741,320.754 253.241,320.421 252,318.5C 251.833,319 251.667,319.5 251.5,320C 252.966,322.216 254.633,324.216 256.5,326C 256.333,326.5 256.167,327 256,327.5C 254.915,326.707 253.748,326.04 252.5,325.5C 251.158,327.005 249.492,327.672 247.5,327.5C 247.433,328.959 247.766,330.292 248.5,331.5C 247.833,331.5 247.167,331.5 246.5,331.5C 246.5,331.167 246.5,330.833 246.5,330.5C 246.867,323.585 246.201,316.919 244.5,310.5C 244.5,290.833 244.5,271.167 244.5,251.5 Z"/></g>
<g><path style="opacity:1" fill="#596c7e" d="M 237.5,253.5 C 237.662,255.527 237.495,257.527 237,259.5C 233.741,262.055 231.407,265.055 230,268.5C 230.708,267.619 231.542,266.953 232.5,266.5C 233.695,266.866 234.361,267.699 234.5,269C 233.646,269.574 232.646,270.241 231.5,271C 232.783,272.136 233.783,273.469 234.5,275C 233.127,276.479 231.627,276.312 230,274.5C 229.667,275.5 229.333,276.5 229,277.5C 224.691,279.411 224.524,281.578 228.5,284C 222.937,287.575 223.271,288.741 229.5,287.5C 228.323,290.038 226.656,292.371 224.5,294.5C 224.667,294.833 224.833,295.167 225,295.5C 227.786,292.655 229.12,292.989 229,296.5C 225.952,297.519 224.619,299.519 225,302.5C 226.154,301.257 227.488,300.257 229,299.5C 229.167,300 229.333,300.5 229.5,301C 228.034,303.216 226.367,305.216 224.5,307C 224.667,307.5 224.833,308 225,308.5C 226.183,307.269 227.349,307.269 228.5,308.5C 227.376,309.914 226.376,311.414 225.5,313C 226.549,313.492 227.549,313.326 228.5,312.5C 228.833,313 229.167,313.5 229.5,314C 227.898,315.822 226.231,317.655 224.5,319.5C 226.117,319.669 227.784,320.003 229.5,320.5C 228.027,322.395 226.36,324.061 224.5,325.5C 226.003,326.052 227.669,326.052 229.5,325.5C 229.719,326.675 229.386,327.675 228.5,328.5C 226.947,329.439 225.613,330.606 224.5,332C 225.873,333.479 227.373,333.312 229,331.5C 229.318,333.061 230.151,334.228 231.5,335C 231.167,335.333 230.833,335.667 230.5,336C 232.066,336.608 233.4,337.442 234.5,338.5C 232.833,338.5 231.167,338.5 229.5,338.5C 221.5,338.5 213.5,338.5 205.5,338.5C 199.833,338.5 194.167,338.5 188.5,338.5C 194.337,337.704 200.337,337.038 206.5,336.5C 207.5,336.167 208.5,335.833 209.5,335.5C 208.41,334.391 208.41,333.391 209.5,332.5C 210.736,333.246 212.07,333.579 213.5,333.5C 213.281,332.325 213.614,331.325 214.5,330.5C 216.053,329.561 217.387,328.394 218.5,327C 217.127,325.521 215.627,325.688 214,327.5C 212.725,324.955 210.892,322.955 208.5,321.5C 209.922,321.291 211.255,320.791 212.5,320C 213.622,317.876 215.122,316.043 217,314.5C 217.188,310.277 218.021,306.277 219.5,302.5C 219.587,299.299 219.92,295.965 220.5,292.5C 220.946,289.99 220.28,287.99 218.5,286.5C 218.167,285.833 217.833,285.167 217.5,284.5C 218.9,282.061 218.233,280.228 215.5,279C 216.536,277.224 216.536,275.391 215.5,273.5C 218.999,273.754 221.665,272.088 223.5,268.5C 224.833,267.833 225.833,266.833 226.5,265.5C 230.167,261.5 233.833,257.5 237.5,253.5 Z"/></g>
<g><path style="opacity:1" fill="#d7dcdf" d="M 244.5,310.5 C 246.201,316.919 246.867,323.585 246.5,330.5C 244.541,324.25 243.874,317.584 244.5,310.5 Z"/></g>
<g><path style="opacity:1" fill="#e7a51a" d="M 368.5,327.5 C 376.395,328.4 384.228,328.734 392,328.5C 391.721,352.381 393.721,376.047 398,399.5C 399.333,403.5 400.667,407.5 402,411.5C 406.896,416.868 411.563,416.534 416,410.5C 420.767,401.625 422.934,392.125 422.5,382C 421.997,364.092 420.664,346.259 418.5,328.5C 426.875,328.26 435.208,328.593 443.5,329.5C 444.514,356.205 443.68,382.872 441,409.5C 436.912,428.074 425.246,437.741 406,438.5C 388.976,437.149 378.309,428.149 374,411.5C 371.254,383.566 369.421,355.566 368.5,327.5 Z"/></g>
<g><path style="opacity:1" fill="#e7a51b" d="M 295.5,328.5 C 307.53,328.295 319.53,328.795 331.5,330C 349.469,332.307 357.303,342.474 355,360.5C 352.81,367.367 348.977,373.2 343.5,378C 356.101,385.517 362.101,396.517 361.5,411C 359.281,427.216 349.947,435.883 333.5,437C 320.791,437.635 308.124,438.468 295.5,439.5C 294.08,437.78 292.747,435.946 291.5,434C 292.33,399.571 292.83,365.071 293,330.5C 293.995,329.934 294.828,329.267 295.5,328.5 Z"/></g>
<g><path style="opacity:1" fill="#e7a51b" d="M 641.5,328.5 C 646.52,327.655 650.687,328.989 654,332.5C 659.078,342.99 664.411,353.323 670,363.5C 676.721,351.885 683.554,340.385 690.5,329C 698.454,329.647 706.454,330.314 714.5,331C 715.059,331.725 715.392,332.558 715.5,333.5C 714.277,336.947 712.777,340.28 711,343.5C 701.498,357.833 692.498,372.499 684,387.5C 684.617,403.832 684.45,420.165 683.5,436.5C 675.222,437.47 666.889,437.803 658.5,437.5C 658.667,419.83 658.5,402.164 658,384.5C 647.934,368.092 638.267,351.426 629,334.5C 628.506,332.866 628.34,331.199 628.5,329.5C 633.032,329.818 637.366,329.485 641.5,328.5 Z"/></g>
<g><path style="opacity:1" fill="#dedede" d="M 265.5,328.5 C 266.489,333.975 266.822,339.642 266.5,345.5C 259.804,345.609 253.137,345.276 246.5,344.5C 246.5,342.5 246.5,340.5 246.5,338.5C 246.5,338.167 246.5,337.833 246.5,337.5C 246.5,335.5 246.5,333.5 246.5,331.5C 247.167,331.5 247.833,331.5 248.5,331.5C 254.13,332.292 259.797,332.625 265.5,332.5C 265.5,331.167 265.5,329.833 265.5,328.5 Z"/></g>
<g><path style="opacity:1" fill="#e7a519" d="M 561.5,330.5 C 573.876,330.157 586.209,330.657 598.5,332C 610.55,336.04 620.384,343.206 628,353.5C 638.719,377.358 637.719,400.358 625,422.5C 616.56,433.469 605.394,438.635 591.5,438C 576.828,438.446 562.162,438.946 547.5,439.5C 546.025,425.81 546.191,412.143 548,398.5C 548.5,376.169 548.667,353.836 548.5,331.5C 553.032,331.818 557.366,331.485 561.5,330.5 Z"/></g>
<g><path style="opacity:1" fill="#70879d" d="M 189.5,318.5 C 195.597,320.877 201.93,321.877 208.5,321.5C 210.892,322.955 212.725,324.955 214,327.5C 215.627,325.688 217.127,325.521 218.5,327C 217.387,328.394 216.053,329.561 214.5,330.5C 213.614,331.325 213.281,332.325 213.5,333.5C 212.07,333.579 210.736,333.246 209.5,332.5C 208.41,333.391 208.41,334.391 209.5,335.5C 208.5,335.833 207.5,336.167 206.5,336.5C 200.337,337.038 194.337,337.704 188.5,338.5C 187.844,337.378 187.511,336.045 187.5,334.5C 189.038,329.271 189.705,323.937 189.5,318.5 Z"/></g>
<g><path style="opacity:1" fill="#e7a51a" d="M 466.5,330.5 C 520.969,325.134 544.802,349.467 538,403.5C 532.845,425.67 519.012,437.17 496.5,438C 483.823,438.292 471.157,438.792 458.5,439.5C 456.036,439.41 453.87,438.743 452,437.5C 451.151,431.362 450.651,425.195 450.5,419C 451.774,407.858 452.774,396.691 453.5,385.5C 452.691,367.509 452.357,349.509 452.5,331.5C 457.363,331.819 462.03,331.486 466.5,330.5 Z"/></g>
<g><path style="opacity:1" fill="#c1a695" d="M 246.5,344.5 C 253.137,345.276 259.804,345.609 266.5,345.5C 266.528,350.138 265.861,354.638 264.5,359C 261.168,360.606 257.835,362.106 254.5,363.5C 250.467,362.687 248.133,360.354 247.5,356.5C 248.65,353.951 248.316,351.617 246.5,349.5C 246.5,347.833 246.5,346.167 246.5,344.5 Z"/></g>
<g><path style="opacity:1" fill="#74635a" d="M 246.5,349.5 C 248.316,351.617 248.65,353.951 247.5,356.5C 247.5,361.5 247.5,366.5 247.5,371.5C 246.312,372.048 245.145,372.381 244,372.5C 243.667,369.833 243.333,367.167 243,364.5C 242.517,365.448 242.351,366.448 242.5,367.5C 236.167,367.5 229.833,367.5 223.5,367.5C 223.662,369.527 223.495,371.527 223,373.5C 222.878,371.563 222.045,370.23 220.5,369.5C 219.908,366.873 219.575,364.206 219.5,361.5C 217.549,361.227 216.049,361.893 215,363.5C 213.835,373.478 213.002,383.478 212.5,393.5C 211.504,393.414 210.671,393.748 210,394.5C 204.947,386.178 202.447,377.178 202.5,367.5C 198.102,367.294 193.768,367.627 189.5,368.5C 189.816,363.156 190.316,357.822 191,352.5C 191.414,352.043 191.914,351.709 192.5,351.5C 200.03,352.82 207.53,352.82 215,351.5C 215.915,352.328 216.581,353.328 217,354.5C 218.067,353.809 219.234,353.309 220.5,353C 220.167,352.667 219.833,352.333 219.5,352C 228.889,352.144 237.889,351.31 246.5,349.5 Z"/></g>
<g><path style="opacity:1" fill="#fdfcf8" d="M 314.5,351.5 C 322.319,351.714 328.819,354.714 334,360.5C 333.912,363.642 332.412,366.142 329.5,368C 326.047,370.24 322.381,371.573 318.5,372C 317.667,371.167 316.833,370.333 316,369.5C 315.301,363.511 314.801,357.511 314.5,351.5 Z"/></g>
<g><path style="opacity:1" fill="#fefdfc" d="M 476.5,356.5 C 484.119,357.268 491.786,357.768 499.5,358C 515.399,363.962 522.232,375.462 520,392.5C 518.182,406.318 510.349,414.151 496.5,416C 491.977,416.32 487.477,416.82 483,417.5C 481.893,417.415 480.893,417.081 480,416.5C 477.449,396.634 476.282,376.634 476.5,356.5 Z"/></g>
<g><path style="opacity:1" fill="#fefdfc" d="M 571.5,356.5 C 579.163,356.978 586.83,357.478 594.5,358C 606.675,361.175 613.509,369.008 615,381.5C 617.999,399.474 610.832,410.974 593.5,416C 588.481,416.335 583.481,416.835 578.5,417.5C 577.228,417.43 576.062,417.097 575,416.5C 572.898,396.55 571.732,376.55 571.5,356.5 Z"/></g>
<g><path style="opacity:1" fill="#685951" d="M 188.5,338.5 C 194.167,338.5 199.833,338.5 205.5,338.5C 206.122,340.335 207.456,341.502 209.5,342C 215.619,344.093 221.619,343.76 227.5,341C 228.381,340.292 229.047,339.458 229.5,338.5C 231.167,338.5 232.833,338.5 234.5,338.5C 238.5,338.5 242.5,338.5 246.5,338.5C 246.5,340.5 246.5,342.5 246.5,344.5C 246.5,346.167 246.5,347.833 246.5,349.5C 237.889,351.31 228.889,352.144 219.5,352C 219.833,352.333 220.167,352.667 220.5,353C 219.234,353.309 218.067,353.809 217,354.5C 216.581,353.328 215.915,352.328 215,351.5C 207.53,352.82 200.03,352.82 192.5,351.5C 191.914,351.709 191.414,352.043 191,352.5C 190.316,357.822 189.816,363.156 189.5,368.5C 189.648,376.036 188.814,383.37 187,390.5C 186.502,387.518 186.335,384.518 186.5,381.5C 187.351,367.176 188.018,352.843 188.5,338.5 Z"/></g>
<g><path style="opacity:1" fill="#787170" d="M 205.5,338.5 C 213.5,338.5 221.5,338.5 229.5,338.5C 229.047,339.458 228.381,340.292 227.5,341C 221.619,343.76 215.619,344.093 209.5,342C 207.456,341.502 206.122,340.335 205.5,338.5 Z"/></g>
<g><path style="opacity:1" fill="#847167" d="M 247.5,371.5 C 247.665,374.518 247.498,377.518 247,380.5C 246.395,382.481 245.395,382.815 244,381.5C 243.667,379.167 243.333,376.833 243,374.5C 242.667,378.833 242.333,383.167 242,387.5C 236.74,387.978 231.24,388.478 225.5,389C 224.563,391.949 223.563,394.783 222.5,397.5C 221.569,388.187 220.902,378.854 220.5,369.5C 222.045,370.23 222.878,371.563 223,373.5C 223.495,371.527 223.662,369.527 223.5,367.5C 229.833,367.5 236.167,367.5 242.5,367.5C 242.351,366.448 242.517,365.448 243,364.5C 243.333,367.167 243.667,369.833 244,372.5C 245.145,372.381 246.312,372.048 247.5,371.5 Z"/></g>
<g><path style="opacity:1" fill="#fefcfa" d="M 314.5,392.5 C 323.734,392.09 331.567,395.09 338,401.5C 338.813,409.032 335.646,414.199 328.5,417C 324.534,417.828 320.534,418.328 316.5,418.5C 315.723,409.843 315.056,401.177 314.5,392.5 Z"/></g>
<g><path style="opacity:1" fill="#907c71" d="M 247.5,371.5 C 249.318,388.979 250.651,406.645 251.5,424.5C 250.527,422.052 250.194,419.385 250.5,416.5C 248.219,416.077 246.552,416.744 245.5,418.5C 238.857,419.212 232.191,419.546 225.5,419.5C 225.825,426.687 225.491,433.687 224.5,440.5C 224.18,426.14 223.513,411.806 222.5,397.5C 223.563,394.783 224.563,391.949 225.5,389C 231.24,388.478 236.74,387.978 242,387.5C 242.333,383.167 242.667,378.833 243,374.5C 243.333,376.833 243.667,379.167 244,381.5C 245.395,382.815 246.395,382.481 247,380.5C 247.498,377.518 247.665,374.518 247.5,371.5 Z"/></g>
<g><path style="opacity:1" fill="#837167" d="M 212.5,393.5 C 210.697,418.449 209.697,443.449 209.5,468.5C 205.761,467.697 202.095,466.697 198.5,465.5C 199.762,444.172 200.595,422.838 201,401.5C 199.475,402.72 197.641,403.387 195.5,403.5C 192.803,403.297 190.136,402.964 187.5,402.5C 186.4,420.5 185.233,438.5 184,456.5C 183.293,458.081 182.46,459.581 181.5,461C 182.416,461.278 183.082,461.778 183.5,462.5C 183.167,462.5 182.833,462.5 182.5,462.5C 181.5,462.5 180.5,462.5 179.5,462.5C 179.167,462.5 178.833,462.5 178.5,462.5C 178.795,460.577 179.628,458.91 181,457.5C 183.051,432.029 184.885,406.696 186.5,381.5C 186.335,384.518 186.502,387.518 187,390.5C 188.814,383.37 189.648,376.036 189.5,368.5C 193.768,367.627 198.102,367.294 202.5,367.5C 202.447,377.178 204.947,386.178 210,394.5C 210.671,393.748 211.504,393.414 212.5,393.5 Z"/></g>
<g><path style="opacity:1" fill="#6c3e23" d="M 702.5,406.5 C 703.833,406.5 705.167,406.5 706.5,406.5C 706.5,407.5 706.5,408.5 706.5,409.5C 705.167,409.5 703.833,409.5 702.5,409.5C 702.5,408.5 702.5,407.5 702.5,406.5 Z"/></g>
<g><path style="opacity:1" fill="#5f3012" d="M 710.5,414.5 C 711.833,414.5 713.167,414.5 714.5,414.5C 714.338,416.527 714.505,418.527 715,420.5C 718.087,417.456 721.753,415.456 726,414.5C 728.151,414.643 729.818,415.643 731,417.5C 732.425,424.385 732.925,431.385 732.5,438.5C 731.5,438.5 730.5,438.5 729.5,438.5C 729.666,432.158 729.5,425.825 729,419.5C 723.742,418.359 719.075,419.693 715,423.5C 714.501,428.489 714.334,433.489 714.5,438.5C 713.178,438.67 712.011,438.337 711,437.5C 710.5,429.841 710.334,422.174 710.5,414.5 Z"/></g>
<g><path style="opacity:1" fill="#827067" d="M 251.5,424.5 C 252.101,435.512 252.934,446.512 254,457.5C 255.094,459.078 255.928,460.745 256.5,462.5C 254.297,462.935 252.297,462.935 250.5,462.5C 249.68,460.86 248.847,459.193 248,457.5C 247.065,444.494 246.232,431.494 245.5,418.5C 246.552,416.744 248.219,416.077 250.5,416.5C 250.194,419.385 250.527,422.052 251.5,424.5 Z"/></g>
<g><path style="opacity:1" fill="#643518" d="M 703.5,415.5 C 704.833,415.5 706.167,415.5 707.5,415.5C 707.666,422.841 707.5,430.174 707,437.5C 706,438.833 705,438.833 704,437.5C 703.5,430.174 703.334,422.841 703.5,415.5 Z"/></g>
<g><path style="opacity:1" fill="#998478" d="M 245.5,418.5 C 246.232,431.494 247.065,444.494 248,457.5C 248.847,459.193 249.68,460.86 250.5,462.5C 248.05,462.298 245.717,462.631 243.5,463.5C 237.5,465.167 231.5,466.833 225.5,468.5C 225.677,459.273 225.343,449.94 224.5,440.5C 225.491,433.687 225.825,426.687 225.5,419.5C 232.191,419.546 238.857,419.212 245.5,418.5 Z"/></g>
<g><path style="opacity:1" fill="#998477" d="M 198.5,465.5 C 197.833,465.5 197.167,465.5 196.5,465.5C 192.888,464.578 189.221,463.911 185.5,463.5C 185.158,462.662 184.492,462.328 183.5,462.5C 183.082,461.778 182.416,461.278 181.5,461C 182.46,459.581 183.293,458.081 184,456.5C 185.233,438.5 186.4,420.5 187.5,402.5C 190.136,402.964 192.803,403.297 195.5,403.5C 197.641,403.387 199.475,402.72 201,401.5C 200.595,422.838 199.762,444.172 198.5,465.5 Z"/></g>
<g><path style="opacity:1" fill="#5c2b0d" d="M 696.5,435.5 C 698.048,435.821 698.715,436.821 698.5,438.5C 695.752,438.598 695.086,437.598 696.5,435.5 Z"/></g>
<g><path style="opacity:1" fill="#785336" d="M 250.5,462.5 C 252.297,462.935 254.297,462.935 256.5,462.5C 261.34,465.728 266.673,467.895 272.5,469C 273.823,469.816 274.489,470.983 274.5,472.5C 270.167,472.5 265.833,472.5 261.5,472.5C 249.5,472.5 237.5,472.5 225.5,472.5C 225.5,472.167 225.5,471.833 225.5,471.5C 236.52,471.832 247.52,471.499 258.5,470.5C 253.418,468.047 248.418,465.714 243.5,463.5C 245.717,462.631 248.05,462.298 250.5,462.5 Z"/></g>
<g><path style="opacity:1" fill="#885d3d" d="M 185.5,463.5 C 189.221,463.911 192.888,464.578 196.5,465.5C 197.091,466.151 197.757,466.818 198.5,467.5C 197.754,468.736 197.421,470.07 197.5,471.5C 185.16,471.622 172.826,471.955 160.5,472.5C 160.427,470.973 161.094,469.973 162.5,469.5C 163.15,469.804 163.817,470.137 164.5,470.5C 170.449,469.708 176.449,469.208 182.5,469C 186.81,467.497 187.144,465.83 183.5,464C 184.094,463.536 184.761,463.369 185.5,463.5 Z"/></g>
<g><path style="opacity:1" fill="#a17f64" d="M 178.5,462.5 C 178.833,462.5 179.167,462.5 179.5,462.5C 178.942,463.79 177.942,464.623 176.5,465C 179.294,465.972 181.294,465.139 182.5,462.5C 182.833,462.5 183.167,462.5 183.5,462.5C 184.492,462.328 185.158,462.662 185.5,463.5C 184.761,463.369 184.094,463.536 183.5,464C 187.144,465.83 186.81,467.497 182.5,469C 176.449,469.208 170.449,469.708 164.5,470.5C 163.817,470.137 163.15,469.804 162.5,469.5C 167.993,467.657 173.327,465.324 178.5,462.5 Z"/></g>
<g><path style="opacity:1" fill="#412713" d="M 179.5,462.5 C 180.5,462.5 181.5,462.5 182.5,462.5C 181.294,465.139 179.294,465.972 176.5,465C 177.942,464.623 178.942,463.79 179.5,462.5 Z"/></g>
<g><path style="opacity:1" fill="#956d4e" d="M 243.5,463.5 C 248.418,465.714 253.418,468.047 258.5,470.5C 247.52,471.499 236.52,471.832 225.5,471.5C 225.5,470.5 225.5,469.5 225.5,468.5C 231.5,466.833 237.5,465.167 243.5,463.5 Z"/></g>
<g><path style="opacity:1" fill="#452e1f" d="M 225.5,472.5 C 237.5,472.5 249.5,472.5 261.5,472.5C 261.5,474.5 261.5,476.5 261.5,478.5C 253.16,478.666 244.827,478.5 236.5,478C 235.584,477.626 234.75,477.126 234,476.5C 231.544,478.321 228.711,478.988 225.5,478.5C 225.5,476.5 225.5,474.5 225.5,472.5 Z"/></g>
<g><path style="opacity:1" fill="#543b2a" d="M 196.5,465.5 C 197.167,465.5 197.833,465.5 198.5,465.5C 202.095,466.697 205.761,467.697 209.5,468.5C 209.5,469.833 209.5,471.167 209.5,472.5C 198.5,472.5 187.5,472.5 176.5,472.5C 176.67,473.822 176.337,474.989 175.5,476C 177.066,476.608 178.4,477.442 179.5,478.5C 173.167,478.5 166.833,478.5 160.5,478.5C 160.5,476.5 160.5,474.5 160.5,472.5C 172.826,471.955 185.16,471.622 197.5,471.5C 197.421,470.07 197.754,468.736 198.5,467.5C 197.757,466.818 197.091,466.151 196.5,465.5 Z"/></g>
<g><path style="opacity:1" fill="#2b190f" d="M 261.5,472.5 C 265.833,472.5 270.167,472.5 274.5,472.5C 274.5,474.5 274.5,476.5 274.5,478.5C 270.167,478.5 265.833,478.5 261.5,478.5C 261.5,476.5 261.5,474.5 261.5,472.5 Z"/></g>
<g><path style="opacity:1" fill="#352115" d="M 209.5,472.5 C 209.5,474.5 209.5,476.5 209.5,478.5C 206.289,478.988 203.456,478.321 201,476.5C 200.5,477 200,477.5 199.5,478C 192.842,478.5 186.175,478.666 179.5,478.5C 178.4,477.442 177.066,476.608 175.5,476C 176.337,474.989 176.67,473.822 176.5,472.5C 187.5,472.5 198.5,472.5 209.5,472.5 Z"/></g>
</svg>
