<?xml version="1.0" encoding="UTF-8"?>
<!DOCTYPE svg PUBLIC "-//W3C//DTD SVG 1.1//EN" "http://www.w3.org/Graphics/SVG/1.1/DTD/svg11.dtd">
<svg xmlns="http://www.w3.org/2000/svg" version="1.1" width="700px" height="200px" style="shape-rendering:geometricPrecision; text-rendering:geometricPrecision; image-rendering:optimizeQuality; fill-rule:evenodd; clip-rule:evenodd" xmlns:xlink="http://www.w3.org/1999/xlink">
<g><path style="opacity:1" fill="#fefefe" d="M -0.5,-0.5 C 232.833,-0.5 466.167,-0.5 699.5,-0.5C 699.5,66.1667 699.5,132.833 699.5,199.5C 466.167,199.5 232.833,199.5 -0.5,199.5C -0.5,132.833 -0.5,66.1667 -0.5,-0.5 Z"/></g>
<g><path style="opacity:1" fill="#63c0dc" d="M 71.5,53.5 C 76.2137,53.1734 80.8804,53.5067 85.5,54.5C 92.8338,67.1716 100.667,79.5049 109,91.5C 109.5,110.83 109.667,130.164 109.5,149.5C 78.9365,142.942 48.6032,135.609 18.5,127.5C 17.3336,108.509 17.167,89.5088 18,70.5C 24.8657,66.7626 32.0324,63.5959 39.5,61C 50.2147,58.1612 60.8814,55.6612 71.5,53.5 Z"/></g>
<g><path style="opacity:1" fill="#141414" d="M 362.5,73.5 C 370.619,73.4687 372.619,76.9687 368.5,84C 361.672,85.8241 358.506,83.3241 359,76.5C 360.145,75.3636 361.312,74.3636 362.5,73.5 Z"/></g>
<g><path style="opacity:1" fill="#080808" d="M 605.5,100.5 C 605.337,102.857 605.503,105.19 606,107.5C 611.167,101.667 616.333,95.8333 621.5,90C 625.833,89.3333 630.167,89.3333 634.5,90C 628.613,95.3839 623.28,101.217 618.5,107.5C 623.833,114.833 629.167,122.167 634.5,129.5C 630.541,130.66 626.541,130.827 622.5,130C 618.66,124.666 614.66,119.5 610.5,114.5C 609.086,115.624 607.586,116.624 606,117.5C 605.501,121.821 605.334,126.154 605.5,130.5C 602.167,130.5 598.833,130.5 595.5,130.5C 595.5,111.833 595.5,93.1667 595.5,74.5C 598.833,74.5 602.167,74.5 605.5,74.5C 605.5,83.1667 605.5,91.8333 605.5,100.5 Z"/></g>
<g><path style="opacity:1" fill="#5e5e5e" d="M 605.5,100.5 C 605.5,91.8333 605.5,83.1667 605.5,74.5C 602.167,74.5 598.833,74.5 595.5,74.5C 595.5,93.1667 595.5,111.833 595.5,130.5C 594.503,111.674 594.17,92.674 594.5,73.5C 598.5,73.5 602.5,73.5 606.5,73.5C 606.827,82.6822 606.493,91.6822 605.5,100.5 Z"/></g>
<g><path style="opacity:1" fill="#030303" d="M 146.5,77.5 C 146.5,95.1667 146.5,112.833 146.5,130.5C 142.833,130.5 139.167,130.5 135.5,130.5C 135.5,112.833 135.5,95.1667 135.5,77.5C 139.167,77.5 142.833,77.5 146.5,77.5 Z"/></g>
<g><path style="opacity:1" fill="#bdbdbd" d="M 146.5,77.5 C 142.833,77.5 139.167,77.5 135.5,77.5C 135.5,95.1667 135.5,112.833 135.5,130.5C 134.503,112.674 134.17,94.6744 134.5,76.5C 138.702,76.1832 142.702,76.5166 146.5,77.5 Z"/></g>
<g><path style="opacity:1" fill="#0c0c0c" d="M 219.5,89.5 C 222.962,90.4816 226.629,90.815 230.5,90.5C 230.5,92.8333 230.5,95.1667 230.5,97.5C 226.629,97.185 222.962,97.5184 219.5,98.5C 219.201,105.891 219.535,113.224 220.5,120.5C 221.688,121.84 223.188,122.507 225,122.5C 227.137,121.923 229.304,121.59 231.5,121.5C 231.988,124.711 231.321,127.544 229.5,130C 223.655,132.248 217.988,131.915 212.5,129C 211.206,126.913 210.039,124.746 209,122.5C 208.5,114.507 208.334,106.507 208.5,98.5C 206.833,98.5 205.167,98.5 203.5,98.5C 202.787,94.2728 204.454,91.6062 208.5,90.5C 209.937,87.9591 211.103,85.2924 212,82.5C 214.381,81.565 216.881,81.2317 219.5,81.5C 219.5,84.1667 219.5,86.8333 219.5,89.5 Z"/></g>
<g><path style="opacity:1" fill="#fafdfd" d="M 26.5,79.5 C 50.6167,84.8268 74.6167,90.6601 98.5,97C 100.42,102.197 101.087,107.697 100.5,113.5C 75.9825,107.204 51.3159,101.537 26.5,96.5C 26.5,90.8333 26.5,85.1667 26.5,79.5 Z"/></g>
<g><path style="opacity:1" fill="#080808" d="M 159.5,130.5 C 159.5,117.167 159.5,103.833 159.5,90.5C 162.167,90.5 164.833,90.5 167.5,90.5C 167.709,91.9217 168.209,93.255 169,94.5C 174.269,89.7548 180.436,88.2548 187.5,90C 190.539,91.0314 193.039,92.8647 195,95.5C 196.436,107.09 196.936,118.757 196.5,130.5C 192.833,130.5 189.167,130.5 185.5,130.5C 185.666,121.161 185.5,111.827 185,102.5C 183.982,99.3171 181.815,97.9838 178.5,98.5C 173.43,98.1182 170.597,100.452 170,105.5C 169.5,113.827 169.334,122.16 169.5,130.5C 166.167,130.5 162.833,130.5 159.5,130.5 Z"/></g>
<g><path style="opacity:1" fill="#4e4e4e" d="M 219.5,89.5 C 223.5,89.5 227.5,89.5 231.5,89.5C 231.5,92.5 231.5,95.5 231.5,98.5C 227.5,98.5 223.5,98.5 219.5,98.5C 222.962,97.5184 226.629,97.185 230.5,97.5C 230.5,95.1667 230.5,92.8333 230.5,90.5C 226.629,90.815 222.962,90.4816 219.5,89.5 Z"/></g>
<g><path style="opacity:1" fill="#0b0b0b" d="M 249.5,89.5 C 267.198,87.2024 275.531,94.8691 274.5,112.5C 265.833,112.5 257.167,112.5 248.5,112.5C 248.459,116.585 250.125,119.752 253.5,122C 259.969,123.116 266.135,122.282 272,119.5C 272.821,122.554 272.655,125.554 271.5,128.5C 261.025,133.253 251.192,132.253 242,125.5C 237.763,118.075 236.43,110.075 238,101.5C 239.08,99.0038 240.414,96.6705 242,94.5C 244.479,92.6859 246.979,91.0192 249.5,89.5 Z"/></g>
<g><path style="opacity:1" fill="#080808" d="M 283.5,89.5 C 286.187,89.3359 288.854,89.5026 291.5,90C 292.525,92.0715 293.358,94.2381 294,96.5C 297.568,90.8018 302.735,88.4685 309.5,89.5C 309.5,92.8333 309.5,96.1667 309.5,99.5C 303.102,98.0526 298.269,100.053 295,105.5C 294.5,113.827 294.334,122.16 294.5,130.5C 290.833,130.5 287.167,130.5 283.5,130.5C 283.5,116.833 283.5,103.167 283.5,89.5 Z"/></g>
<g><path style="opacity:1" fill="#0b0b0b" d="M 391.5,89.5 C 409.509,86.9665 417.842,94.6332 416.5,112.5C 407.833,112.5 399.167,112.5 390.5,112.5C 390.345,117.023 392.345,120.189 396.5,122C 402.61,122.732 408.61,122.232 414.5,120.5C 414.813,123.247 414.48,125.914 413.5,128.5C 401.438,134.057 390.938,132.057 382,122.5C 376.005,108.555 379.171,97.5548 391.5,89.5 Z"/></g>
<g><path style="opacity:1" fill="#0a0a0a" d="M 519.5,76.5 C 527.048,76.0724 534.382,77.0724 541.5,79.5C 540.929,82.4769 539.929,85.3103 538.5,88C 533.316,86.5037 527.983,85.837 522.5,86C 514.091,91.5328 510.924,99.3662 513,109.5C 514.04,117.881 518.707,121.881 527,121.5C 530.973,121.567 534.806,120.901 538.5,119.5C 539.833,122.5 539.833,125.5 538.5,128.5C 510.934,135.116 498.767,124.116 502,95.5C 504.251,85.7535 510.084,79.4201 519.5,76.5 Z"/></g>
<g><path style="opacity:1" fill="#0a0a0a" d="M 557.5,89.5 C 562.844,89.334 568.177,89.5006 573.5,90C 577.066,90.6998 579.9,92.5332 582,95.5C 583.457,107.065 583.957,118.732 583.5,130.5C 580.833,130.5 578.167,130.5 575.5,130.5C 575.617,128.516 574.95,126.85 573.5,125.5C 566.118,132.404 558.285,133.071 550,127.5C 544.651,117.366 547.151,110.199 557.5,106C 562.489,105.501 567.489,105.334 572.5,105.5C 572.662,103.473 572.495,101.473 572,99.5C 566.713,96.8913 561.379,96.8913 556,99.5C 553.8,98.1332 552.3,96.1332 551.5,93.5C 553.219,91.6478 555.219,90.3145 557.5,89.5 Z"/></g>
<g><path style="opacity:1" fill="#0b0b0b" d="M 675.5,112.5 C 666.833,112.5 658.167,112.5 649.5,112.5C 649.263,113.791 649.596,114.791 650.5,115.5C 650.799,118.642 652.466,120.809 655.5,122C 661.616,122.732 667.616,122.232 673.5,120.5C 673.813,123.247 673.48,125.914 672.5,128.5C 648.602,136.095 637.436,127.428 639,102.5C 643.52,91.3228 651.687,87.1561 663.5,90C 669.562,91.0622 673.395,94.5622 675,100.5C 675.499,104.486 675.666,108.486 675.5,112.5 Z"/></g>
<g><path style="opacity:1" fill="#0e0e0e" d="M 311.5,89.5 C 315.437,89.2065 319.27,89.5399 323,90.5C 326.154,99.4518 329.154,108.452 332,117.5C 335.469,108.302 338.635,98.9687 341.5,89.5C 345.555,89.1758 349.555,89.5091 353.5,90.5C 347.924,103.646 342.924,116.979 338.5,130.5C 334.445,130.824 330.445,130.491 326.5,129.5C 321.1,116.298 316.1,102.965 311.5,89.5 Z"/></g>
<g><path style="opacity:1" fill="#060606" d="M 359.5,89.5 C 363.167,89.5 366.833,89.5 370.5,89.5C 370.5,103.167 370.5,116.833 370.5,130.5C 366.833,130.5 363.167,130.5 359.5,130.5C 359.5,116.833 359.5,103.167 359.5,89.5 Z"/></g>
<g><path style="opacity:1" fill="#0d0d0d" d="M 420.5,89.5 C 424.437,89.2065 428.27,89.5399 432,90.5C 434.089,99.6291 436.422,108.629 439,117.5C 440.696,108.382 442.863,99.3821 445.5,90.5C 449.783,89.5078 454.116,89.1744 458.5,89.5C 460.662,99.4845 462.829,109.485 465,119.5C 467.104,109.477 469.271,99.4767 471.5,89.5C 475.167,89.5 478.833,89.5 482.5,89.5C 478.678,103.123 475.011,116.79 471.5,130.5C 467.445,130.824 463.445,130.491 459.5,129.5C 456.844,119.209 454.344,108.876 452,98.5C 448.568,108.898 446.068,119.565 444.5,130.5C 440.167,130.5 435.833,130.5 431.5,130.5C 428.3,116.698 424.633,103.031 420.5,89.5 Z"/></g>
<g><path style="opacity:1" fill="#383838" d="M 167.5,90.5 C 164.833,90.5 162.167,90.5 159.5,90.5C 159.5,103.833 159.5,117.167 159.5,130.5C 158.504,117.01 158.171,103.344 158.5,89.5C 161.713,89.19 164.713,89.5233 167.5,90.5 Z"/></g>
<g><path style="opacity:1" fill="#f2f2f2" d="M 252.5,97.5 C 259.542,95.9036 263.542,98.5703 264.5,105.5C 259.167,105.5 253.833,105.5 248.5,105.5C 248.776,102.281 250.109,99.6148 252.5,97.5 Z"/></g>
<g><path style="opacity:1" fill="#f1f1f1" d="M 394.5,97.5 C 401.709,95.7512 405.709,98.4179 406.5,105.5C 401.167,105.5 395.833,105.5 390.5,105.5C 390.776,102.281 392.109,99.6148 394.5,97.5 Z"/></g>
<g><path style="opacity:1" fill="#f1f1f1" d="M 653.5,97.5 C 656.978,97.1842 660.312,97.6842 663.5,99C 665.016,100.897 665.683,103.064 665.5,105.5C 660.125,105.828 654.792,105.495 649.5,104.5C 650.094,101.692 651.427,99.3587 653.5,97.5 Z"/></g>
<g><path style="opacity:1" fill="#fbfdfd" d="M 26.5,105.5 C 51.1527,111.155 75.8194,116.822 100.5,122.5C 100.5,127.833 100.5,133.167 100.5,138.5C 76.7433,133.301 53.0766,127.801 29.5,122C 28.5838,121.626 27.7504,121.126 27,120.5C 26.5007,115.511 26.3341,110.511 26.5,105.5 Z"/></g>
<g><path style="opacity:1" fill="#eeeeee" d="M 564.5,111.5 C 567.167,111.5 569.833,111.5 572.5,111.5C 573.392,120.863 569.392,124.363 560.5,122C 558.604,120.192 558.104,118.025 559,115.5C 560.812,114.023 562.645,112.69 564.5,111.5 Z"/></g>
<g><path style="opacity:1" fill="#acacac" d="M 675.5,112.5 C 666.95,112.845 658.617,113.845 650.5,115.5C 649.596,114.791 649.263,113.791 649.5,112.5C 658.167,112.5 666.833,112.5 675.5,112.5 Z"/></g>
</svg>
