<?xml version="1.0" encoding="UTF-8"?>
<!DOCTYPE svg PUBLIC "-//W3C//DTD SVG 1.1//EN" "http://www.w3.org/Graphics/SVG/1.1/DTD/svg11.dtd">
<svg xmlns="http://www.w3.org/2000/svg" version="1.1" width="546px" height="92px" style="shape-rendering:geometricPrecision; text-rendering:geometricPrecision; image-rendering:optimizeQuality; fill-rule:evenodd; clip-rule:evenodd" xmlns:xlink="http://www.w3.org/1999/xlink">
<g><path style="opacity:0.998" fill="#7f7a7a" d="M 84.5,43.5 C 84.5,41.5 84.5,39.5 84.5,37.5C 89.5,37.5 94.5,37.5 99.5,37.5C 99.5,42.5 99.5,47.5 99.5,52.5C 97.3511,54.7458 94.6844,56.2458 91.5,57C 79.2685,60.1336 70.7685,55.967 66,44.5C 63.2384,29.6222 69.2384,21.2889 84,19.5C 92.1458,18.9993 97.6458,22.4993 100.5,30C 98.3213,31.1419 95.9879,31.9752 93.5,32.5C 89.8797,26.5727 84.8797,25.0727 78.5,28C 76.9512,29.214 75.7845,30.714 75,32.5C 71.857,46.3515 77.0237,51.8515 90.5,49C 92.3249,47.5341 92.8249,45.7008 92,43.5C 89.3953,44.8143 86.8953,44.8143 84.5,43.5 Z"/></g>
<g><path style="opacity:0.987" fill="#7f7b7b" d="M 219.5,20.5 C 219.5,32.5 219.5,44.5 219.5,56.5C 217.5,56.5 215.5,56.5 213.5,56.5C 213.666,47.1607 213.5,37.8274 213,28.5C 211.991,30.0249 211.491,31.6916 211.5,33.5C 209.834,41.4986 208.167,49.4986 206.5,57.5C 203.552,57.7771 200.719,57.4438 198,56.5C 196.156,48.7903 194.156,41.1236 192,33.5C 191.5,41.4931 191.334,49.4931 191.5,57.5C 188.319,57.9984 185.653,57.1651 183.5,55C 183.367,43.4885 183.534,31.9885 184,20.5C 188,19.1667 192,19.1667 196,20.5C 198,27.8333 200,35.1667 202,42.5C 204.311,35.2545 206.311,27.9211 208,20.5C 211.934,19.179 215.767,19.179 219.5,20.5 Z"/></g>
<g><path style="opacity:0.997" fill="#807c7c" d="M 274.5,19.5 C 282.187,17.996 288.687,19.996 294,25.5C 295.128,27.3453 295.628,29.3453 295.5,31.5C 293.453,31.5111 291.453,31.8444 289.5,32.5C 287.611,30.568 285.611,28.7347 283.5,27C 275.469,26.0243 271.469,29.6909 271.5,38C 271.512,42.74 273.178,46.74 276.5,50C 282.869,51.3156 287.036,48.8156 289,42.5C 291.602,43.4771 294.102,44.6437 296.5,46C 291.063,57.7617 282.396,60.7617 270.5,55C 263.861,48.5436 261.694,40.7102 264,31.5C 265.963,26.0437 269.463,22.0437 274.5,19.5 Z"/></g>
<g><path style="opacity:0.316" fill="#d8d6d6" d="M 351.5,21.5 C 351.56,20.9569 351.893,20.6236 352.5,20.5C 353.484,23.4281 353.817,26.4281 353.5,29.5C 355.099,29.2322 356.432,29.5655 357.5,30.5C 355.833,30.5 354.167,30.5 352.5,30.5C 352.81,27.2869 352.477,24.2869 351.5,21.5 Z"/></g>
<g><path style="opacity:0.974" fill="#7f7a7a" d="M 385.5,19.5 C 386.398,20.1577 387.398,20.8243 388.5,21.5C 387.754,22.7362 387.421,24.0695 387.5,25.5C 385.833,25.5 384.167,25.5 382.5,25.5C 382.67,26.8221 382.337,27.9887 381.5,29C 386.885,28.6873 388.885,31.1873 387.5,36.5C 385.473,36.3379 383.473,36.5045 381.5,37C 382.641,43.7772 382.641,50.6105 381.5,57.5C 378.941,57.8016 376.607,57.4682 374.5,56.5C 374.5,49.5 374.5,42.5 374.5,35.5C 373.167,35.5 371.833,35.5 370.5,35.5C 370.5,33.8333 370.5,32.1667 370.5,30.5C 371.833,30.5 373.167,30.5 374.5,30.5C 374.5,29.1667 374.5,27.8333 374.5,26.5C 374.178,24.2776 374.845,22.4443 376.5,21C 379.351,19.7114 382.351,19.2114 385.5,19.5 Z"/></g>
<g><path style="opacity:0.233" fill="#e0dede" d="M 461.5,21.5 C 461.56,20.9569 461.893,20.6236 462.5,20.5C 463.484,23.4281 463.817,26.4281 463.5,29.5C 465.099,29.2322 466.432,29.5655 467.5,30.5C 465.833,30.5 464.167,30.5 462.5,30.5C 462.81,27.2869 462.477,24.2869 461.5,21.5 Z"/></g>
<g><path style="opacity:0.999" fill="#6ceee2" d="M 35.5,21.5 C 42.3412,33.849 48.6745,46.5157 54.5,59.5C 54.38,60.5862 53.7133,61.2528 52.5,61.5C 47.388,59.0176 42.0547,57.3509 36.5,56.5C 34.727,53.5118 34.0604,50.1785 34.5,46.5C 34.5,44.8333 34.5,43.1667 34.5,41.5C 34.5,36.1667 34.5,30.8333 34.5,25.5C 34.2322,23.901 34.5655,22.5676 35.5,21.5 Z"/></g>
<g><path style="opacity:0.997" fill="#777373" d="M 351.5,21.5 C 352.477,24.2869 352.81,27.2869 352.5,30.5C 354.167,30.5 355.833,30.5 357.5,30.5C 357.5,32.1667 357.5,33.8333 357.5,35.5C 355.833,35.5 354.167,35.5 352.5,35.5C 352.179,40.6946 352.513,45.6946 353.5,50.5C 354.672,51.7053 356.005,51.7053 357.5,50.5C 358.474,52.7427 358.808,55.076 358.5,57.5C 355.15,57.665 351.817,57.4983 348.5,57C 347.667,56.1667 346.833,55.3333 346,54.5C 345.501,48.5092 345.334,42.5092 345.5,36.5C 342.542,37.3562 339.542,37.5229 336.5,37C 335.695,38.1127 335.028,39.2794 334.5,40.5C 333.512,45.6405 333.179,50.9738 333.5,56.5C 331.5,56.5 329.5,56.5 327.5,56.5C 327.5,47.8333 327.5,39.1667 327.5,30.5C 329.5,30.5 331.5,30.5 333.5,30.5C 334.053,32.6569 335.053,32.4903 336.5,30C 339.482,29.502 342.482,29.3354 345.5,29.5C 344.809,24.8535 346.809,22.1868 351.5,21.5 Z"/></g>
<g><path style="opacity:0.989" fill="#787373" d="M 461.5,21.5 C 462.477,24.2869 462.81,27.2869 462.5,30.5C 464.167,30.5 465.833,30.5 467.5,30.5C 467.5,31.8333 467.5,33.1667 467.5,34.5C 466.081,35.4511 464.415,35.7845 462.5,35.5C 462.179,40.6946 462.513,45.6946 463.5,50.5C 464.897,50.7952 466.397,51.1286 468,51.5C 468.495,53.4727 468.662,55.4727 468.5,57.5C 465.15,57.665 461.817,57.4983 458.5,57C 457.667,56.1667 456.833,55.3333 456,54.5C 455.501,48.5092 455.334,42.5092 455.5,36.5C 454.5,36.5 453.5,36.5 452.5,36.5C 452.5,34.1667 452.5,31.8333 452.5,29.5C 453.5,29.5 454.5,29.5 455.5,29.5C 454.809,24.8535 456.809,22.1868 461.5,21.5 Z"/></g>
<g><path style="opacity:0.255" fill="#e4e8e8" d="M 34.5,25.5 C 34.5,30.8333 34.5,36.1667 34.5,41.5C 31.8333,41.5 29.1667,41.5 26.5,41.5C 26.5,36.1667 26.5,30.8333 26.5,25.5C 29.1667,25.5 31.8333,25.5 34.5,25.5 Z"/></g>
<g><path style="opacity:0.234" fill="#cdcbcb" d="M 112.5,20.5 C 113.468,22.6074 113.802,24.9407 113.5,27.5C 110.813,27.6641 108.146,27.4974 105.5,27C 103.212,19.83 105.545,17.6633 112.5,20.5 Z"/></g>
<g><path style="opacity:0.948" fill="#726d6d" d="M 112.5,20.5 C 112.5,22.5 112.5,24.5 112.5,26.5C 110.5,26.5 108.5,26.5 106.5,26.5C 106.5,24.5 106.5,22.5 106.5,20.5C 108.5,20.5 110.5,20.5 112.5,20.5 Z"/></g>
<g><path style="opacity:0.241" fill="#d3d2d2" d="M 360.5,19.5 C 363.167,19.5 365.833,19.5 368.5,19.5C 368.5,22.1667 368.5,24.8333 368.5,27.5C 365.833,27.5 363.167,27.5 360.5,27.5C 360.5,24.8333 360.5,22.1667 360.5,19.5 Z"/></g>
<g><path style="opacity:0.987" fill="#6d6868" d="M 361.5,20.5 C 363.5,20.5 365.5,20.5 367.5,20.5C 367.5,22.5 367.5,24.5 367.5,26.5C 365.5,26.5 363.5,26.5 361.5,26.5C 361.5,24.5 361.5,22.5 361.5,20.5 Z"/></g>
<g><path style="opacity:0.237" fill="#d1cfcf" d="M 385.5,19.5 C 389.167,19.5 392.833,19.5 396.5,19.5C 396.5,22.1667 396.5,24.8333 396.5,27.5C 393.145,27.9086 390.145,27.2419 387.5,25.5C 387.421,24.0695 387.754,22.7362 388.5,21.5C 387.398,20.8243 386.398,20.1577 385.5,19.5 Z"/></g>
<g><path style="opacity:0.978" fill="#6c6767" d="M 389.5,20.5 C 391.5,20.5 393.5,20.5 395.5,20.5C 395.5,22.5 395.5,24.5 395.5,26.5C 393.5,26.5 391.5,26.5 389.5,26.5C 389.5,24.5 389.5,22.5 389.5,20.5 Z"/></g>
<g><path style="opacity:0.046" fill="#f4f4f4" d="M 229.5,30.5 C 226.941,30.1984 224.607,30.5318 222.5,31.5C 221.957,31.44 221.624,31.1067 221.5,30.5C 224.309,29.1997 226.976,29.1997 229.5,30.5 Z"/></g>
<g><path style="opacity:0.046" fill="#f3f3f3" d="M 374.5,26.5 C 374.5,27.8333 374.5,29.1667 374.5,30.5C 373.167,30.5 371.833,30.5 370.5,30.5C 371.209,29.596 372.209,29.2627 373.5,29.5C 373.263,28.209 373.596,27.209 374.5,26.5 Z"/></g>
<g><path style="opacity:1" fill="#5cdee9" d="M 35.5,21.5 C 34.5655,22.5676 34.2322,23.901 34.5,25.5C 31.8333,25.5 29.1667,25.5 26.5,25.5C 26.5,30.8333 26.5,36.1667 26.5,41.5C 26.5,43.1667 26.5,44.8333 26.5,46.5C 26.8174,49.5719 26.4841,52.5719 25.5,55.5C 22.873,56.0578 20.5396,57.0578 18.5,58.5C 14.843,60.3852 11.0097,62.0519 7,63.5C 5.51965,61.6631 5.51965,59.6631 7,57.5C 14.4388,42.956 21.6054,28.2893 28.5,13.5C 29.6507,12.269 30.8173,12.269 32,13.5C 33.4538,16.0711 34.6205,18.7378 35.5,21.5 Z"/></g>
<g><path style="opacity:0.983" fill="#8f8b8b" d="M 105.5,29.5 C 108.119,29.2317 110.619,29.565 113,30.5C 113.816,39.4117 113.65,48.245 112.5,57C 109.901,57.769 107.401,57.6023 105,56.5C 104.196,47.4221 104.363,38.4221 105.5,29.5 Z"/></g>
<g><path style="opacity:0.992" fill="#848080" d="M 114.5,29.5 C 117.247,29.1866 119.914,29.52 122.5,30.5C 124.628,35.3848 126.462,40.3848 128,45.5C 130.533,41.0959 132.533,36.4292 134,31.5C 136.481,29.6863 139.315,29.0196 142.5,29.5C 139.167,38.8333 135.833,48.1667 132.5,57.5C 129.833,57.5 127.167,57.5 124.5,57.5C 121.167,48.1667 117.833,38.8333 114.5,29.5 Z"/></g>
<g><path style="opacity:0.99" fill="#827e7e" d="M 222.5,31.5 C 224.607,30.5318 226.941,30.1984 229.5,30.5C 232.129,35.872 234.296,41.5387 236,47.5C 237.803,41.7578 239.803,36.0911 242,30.5C 244.381,29.565 246.881,29.2317 249.5,29.5C 246.039,41.3799 241.873,53.0466 237,64.5C 232.958,67.8036 228.458,68.8036 223.5,67.5C 223.5,65.5 223.5,63.5 223.5,61.5C 227.756,62.5455 230.422,61.0455 231.5,57C 228.39,48.5026 225.39,40.0026 222.5,31.5 Z"/></g>
<g><path style="opacity:0.989" fill="#7d7979" d="M 322.5,39.5 C 322.5,41.5 322.5,43.5 322.5,45.5C 316.833,45.5 311.167,45.5 305.5,45.5C 305.263,46.791 305.596,47.791 306.5,48.5C 310.051,52.6943 313.218,52.3609 316,47.5C 318.611,48.0706 321.111,48.9039 323.5,50C 318.643,57.5532 311.976,59.5532 303.5,56C 295.515,47.7209 295.515,39.3876 303.5,31C 313.207,26.8594 319.54,29.6927 322.5,39.5 Z M 315.5,38.5 C 314.486,39.7647 312.986,40.4313 311,40.5C 309.014,40.4313 307.514,39.7647 306.5,38.5C 309.5,34.5 312.5,34.5 315.5,38.5 Z"/></g>
<g><path style="opacity:0.44" fill="#c0bebe" d="M 360.5,29.5 C 363.167,29.5 365.833,29.5 368.5,29.5C 368.5,38.8333 368.5,48.1667 368.5,57.5C 365.833,57.5 363.167,57.5 360.5,57.5C 360.5,48.1667 360.5,38.8333 360.5,29.5 Z"/></g>
<g><path style="opacity:0.997" fill="#706b6b" d="M 361.5,30.5 C 363.5,30.5 365.5,30.5 367.5,30.5C 367.5,39.1667 367.5,47.8333 367.5,56.5C 365.5,56.5 363.5,56.5 361.5,56.5C 361.5,47.8333 361.5,39.1667 361.5,30.5 Z"/></g>
<g><path style="opacity:0.519" fill="#bfbdbd" d="M 389.5,30.5 C 391.607,29.5318 393.941,29.1984 396.5,29.5C 396.5,38.8333 396.5,48.1667 396.5,57.5C 393.833,57.5 391.167,57.5 388.5,57.5C 388.173,48.3178 388.507,39.3178 389.5,30.5 Z"/></g>
<g><path style="opacity:0.997" fill="#6f6a6a" d="M 389.5,30.5 C 391.5,30.5 393.5,30.5 395.5,30.5C 395.5,39.1667 395.5,47.8333 395.5,56.5C 393.5,56.5 391.5,56.5 389.5,56.5C 389.5,47.8333 389.5,39.1667 389.5,30.5 Z"/></g>
<g><path style="opacity:0.986" fill="#807b7b" d="M 167.5,42.5 C 167.5,43.5 167.5,44.5 167.5,45.5C 161.642,45.1778 155.975,45.5111 150.5,46.5C 151.588,50.7478 154.255,52.2478 158.5,51C 159.071,49.7949 159.738,48.6283 160.5,47.5C 169.196,49.1225 169.53,52.2892 161.5,57C 146.794,59.4368 140.627,53.2701 143,38.5C 146.933,29.6014 153.433,27.1014 162.5,31C 165.949,34.0646 167.616,37.8979 167.5,42.5 Z M 153.5,35.5 C 156.825,35.494 159.159,36.994 160.5,40C 157.118,40.8236 153.784,40.657 150.5,39.5C 151.524,38.1482 152.524,36.8149 153.5,35.5 Z"/></g>
<g><path style="opacity:0.997" fill="#817d7d" d="M 408.5,29.5 C 416.69,27.5948 422.357,30.4281 425.5,38C 420.747,40.4875 416.747,39.6542 413.5,35.5C 409.316,36.1636 407.316,38.6636 407.5,43C 407.865,45.2605 408.531,47.4272 409.5,49.5C 411.956,52.0801 414.456,52.0801 417,49.5C 417.483,48.552 417.649,47.552 417.5,46.5C 419.527,46.3379 421.527,46.5045 423.5,47C 425.82,48.4876 425.987,50.3209 424,52.5C 419.509,57.2591 414.009,58.7591 407.5,57C 399.242,51.1789 397.409,43.6789 402,34.5C 403.805,32.1743 405.972,30.5077 408.5,29.5 Z"/></g>
<g><path style="opacity:0.99" fill="#827e7e" d="M 433.5,29.5 C 437.514,29.3345 441.514,29.5012 445.5,30C 446.931,30.4652 448.097,31.2986 449,32.5C 450.235,40.754 451.068,49.0874 451.5,57.5C 448.315,57.9804 445.481,57.3137 443,55.5C 437.081,58.7103 431.748,58.0436 427,53.5C 425.431,48.3747 426.931,44.5414 431.5,42C 434.471,41.2057 437.471,40.539 440.5,40C 443.019,37.5577 442.352,36.0577 438.5,35.5C 436.369,36.9631 434.035,37.9631 431.5,38.5C 429.701,38.423 428.034,37.923 426.5,37C 427.46,35.5806 428.293,34.0806 429,32.5C 430.652,31.6006 432.152,30.6006 433.5,29.5 Z M 438.5,45.5 C 439.833,45.5 441.167,45.5 442.5,45.5C 442.814,49.1935 441.148,51.5268 437.5,52.5C 433.402,49.4731 433.735,47.1397 438.5,45.5 Z"/></g>
<g><path style="opacity:0.987" fill="#807c7c" d="M 493.5,42.5 C 493.5,43.5 493.5,44.5 493.5,45.5C 487.642,45.1778 481.975,45.5111 476.5,46.5C 479.456,52.6335 482.79,52.9668 486.5,47.5C 495.196,49.1225 495.53,52.2892 487.5,57C 470.272,58.4214 464.772,50.9214 471,34.5C 476.432,28.8577 482.599,28.0244 489.5,32C 492.373,34.913 493.706,38.413 493.5,42.5 Z M 479.5,35.5 C 482.99,35.1506 485.323,36.6506 486.5,40C 483.167,40.6667 479.833,40.6667 476.5,40C 477.386,38.3853 478.386,36.8853 479.5,35.5 Z"/></g>
<g><path style="opacity:0.528" fill="#c1bfbf" d="M 219.5,20.5 C 220.495,32.6554 220.829,44.9887 220.5,57.5C 217.833,57.5 215.167,57.5 212.5,57.5C 212.826,49.3159 212.492,41.3159 211.5,33.5C 211.491,31.6916 211.991,30.0249 213,28.5C 213.5,37.8274 213.666,47.1607 213.5,56.5C 215.5,56.5 217.5,56.5 219.5,56.5C 219.5,44.5 219.5,32.5 219.5,20.5 Z"/></g>
<g><path style="opacity:0.049" fill="#ecebeb" d="M 370.5,30.5 C 370.5,32.1667 370.5,33.8333 370.5,35.5C 371.833,35.5 373.167,35.5 374.5,35.5C 374.5,42.5 374.5,49.5 374.5,56.5C 373.509,50.021 373.176,43.3543 373.5,36.5C 372.167,36.5 370.833,36.5 369.5,36.5C 369.205,34.2646 369.539,32.2646 370.5,30.5 Z"/></g>
<g><path style="opacity:0.323" fill="#cac8c8" d="M 357.5,30.5 C 358.461,32.2646 358.795,34.2646 358.5,36.5C 356.833,36.5 355.167,36.5 353.5,36.5C 353.5,41.1667 353.5,45.8333 353.5,50.5C 352.513,45.6946 352.179,40.6946 352.5,35.5C 354.167,35.5 355.833,35.5 357.5,35.5C 357.5,33.8333 357.5,32.1667 357.5,30.5 Z"/></g>
<g><path style="opacity:0.238" fill="#d2d0d0" d="M 467.5,34.5 C 468.043,34.56 468.376,34.8933 468.5,35.5C 466.955,36.4519 465.288,36.7852 463.5,36.5C 463.5,41.1667 463.5,45.8333 463.5,50.5C 462.513,45.6946 462.179,40.6946 462.5,35.5C 464.415,35.7845 466.081,35.4511 467.5,34.5 Z"/></g>
<g><path style="opacity:0.609" fill="#b9b7b7" d="M 99.5,52.5 C 99.5,47.5 99.5,42.5 99.5,37.5C 94.5,37.5 89.5,37.5 84.5,37.5C 84.5,39.5 84.5,41.5 84.5,43.5C 83.5318,41.3926 83.1984,39.0593 83.5,36.5C 89.1667,36.5 94.8333,36.5 100.5,36.5C 100.821,42.0262 100.488,47.3595 99.5,52.5 Z"/></g>
<g><path style="opacity:0.093" fill="#e1e0e0" d="M 306.5,38.5 C 307.514,39.7647 309.014,40.4313 311,40.5C 312.986,40.4313 314.486,39.7647 315.5,38.5C 316.404,39.209 316.737,40.209 316.5,41.5C 312.833,41.5 309.167,41.5 305.5,41.5C 305.263,40.209 305.596,39.209 306.5,38.5 Z"/></g>
<g><path style="opacity:0.313" fill="#c3c2c2" d="M 333.5,30.5 C 331.5,30.5 329.5,30.5 327.5,30.5C 327.5,39.1667 327.5,47.8333 327.5,56.5C 329.5,56.5 331.5,56.5 333.5,56.5C 333.179,50.9738 333.512,45.6405 334.5,40.5C 334.5,46.1667 334.5,51.8333 334.5,57.5C 331.833,57.5 329.167,57.5 326.5,57.5C 326.5,48.1667 326.5,38.8333 326.5,29.5C 329.059,29.1984 331.393,29.5318 333.5,30.5 Z"/></g>
<g><path style="opacity:0.1" fill="#eeeeee" d="M 167.5,42.5 C 168.434,43.5676 168.768,44.901 168.5,46.5C 162.5,46.5 156.5,46.5 150.5,46.5C 155.975,45.5111 161.642,45.1778 167.5,45.5C 167.5,44.5 167.5,43.5 167.5,42.5 Z"/></g>
<g><path style="opacity:0.1" fill="#e5e5e5" d="M 322.5,39.5 C 323.468,41.6074 323.802,43.9407 323.5,46.5C 317.402,45.8833 311.735,46.55 306.5,48.5C 305.596,47.791 305.263,46.791 305.5,45.5C 311.167,45.5 316.833,45.5 322.5,45.5C 322.5,43.5 322.5,41.5 322.5,39.5 Z"/></g>
<g><path style="opacity:0.099" fill="#eeeeee" d="M 493.5,42.5 C 494.434,43.5676 494.768,44.901 494.5,46.5C 488.5,46.5 482.5,46.5 476.5,46.5C 481.975,45.5111 487.642,45.1778 493.5,45.5C 493.5,44.5 493.5,43.5 493.5,42.5 Z"/></g>
<g><path style="opacity:0.181" fill="#e9e0e0" d="M 26.5,46.5 C 27.5,46.5 28.5,46.5 29.5,46.5C 28.7322,53.0055 28.7322,59.3388 29.5,65.5C 29.2172,66.2891 28.7172,66.9558 28,67.5C 27.6839,63.2819 25.8506,59.9486 22.5,57.5C 21.2638,58.2458 19.9305,58.5792 18.5,58.5C 20.5396,57.0578 22.873,56.0578 25.5,55.5C 26.4841,52.5719 26.8174,49.5719 26.5,46.5 Z"/></g>
<g><path style="opacity:0.258" fill="#e3e4e4" d="M 34.5,46.5 C 34.0604,50.1785 34.727,53.5118 36.5,56.5C 34.496,59.6604 33.3293,63.3271 33,67.5C 31.8873,66.695 30.7206,66.0283 29.5,65.5C 30.1894,64.2264 31.0228,64.2264 32,65.5C 32.2342,59.1671 32.0675,52.8338 31.5,46.5C 32.5,46.5 33.5,46.5 34.5,46.5 Z"/></g>
<g><path style="opacity:0.991" fill="#ee3f3a" d="M 26.5,41.5 C 29.1667,41.5 31.8333,41.5 34.5,41.5C 34.5,43.1667 34.5,44.8333 34.5,46.5C 33.5,46.5 32.5,46.5 31.5,46.5C 32.0675,52.8338 32.2342,59.1671 32,65.5C 31.0228,64.2264 30.1894,64.2264 29.5,65.5C 28.7322,59.3388 28.7322,53.0055 29.5,46.5C 28.5,46.5 27.5,46.5 26.5,46.5C 26.5,44.8333 26.5,43.1667 26.5,41.5 Z"/></g>
<g><path style="opacity:0.021" fill="#d9eeee" d="M 36.5,56.5 C 42.0547,57.3509 47.388,59.0176 52.5,61.5C 53.7133,61.2528 54.38,60.5862 54.5,59.5C 55.9284,61.3773 55.4284,62.7106 53,63.5C 47.3585,61.2391 41.8585,58.9058 36.5,56.5 Z"/></g>
</svg>
