<?xml version="1.0" encoding="UTF-8"?>
<!DOCTYPE svg PUBLIC "-//W3C//DTD SVG 1.1//EN" "http://www.w3.org/Graphics/SVG/1.1/DTD/svg11.dtd">
<svg xmlns="http://www.w3.org/2000/svg" version="1.1" width="200px" height="200px" style="shape-rendering:geometricPrecision; text-rendering:geometricPrecision; image-rendering:optimizeQuality; fill-rule:evenodd; clip-rule:evenodd" xmlns:xlink="http://www.w3.org/1999/xlink">
<g><path style="opacity:1" fill="#fdfefd" d="M -0.5,-0.5 C 66.1667,-0.5 132.833,-0.5 199.5,-0.5C 199.5,66.1667 199.5,132.833 199.5,199.5C 132.833,199.5 66.1667,199.5 -0.5,199.5C -0.5,132.833 -0.5,66.1667 -0.5,-0.5 Z"/></g>
<g><path style="opacity:1" fill="#5982c6" d="M 88.5,31.5 C 89.8333,31.5 91.1667,31.5 92.5,31.5C 92.5,33.5 92.5,35.5 92.5,37.5C 90.8828,38.038 89.2161,38.3713 87.5,38.5C 87.5,36.5 87.5,34.5 87.5,32.5C 87.5,31.8333 87.8333,31.5 88.5,31.5 Z"/></g>
<g><path style="opacity:1" fill="#6b88ac" d="M 92.5,37.5 C 92.5,35.5 92.5,33.5 92.5,31.5C 91.1667,31.5 89.8333,31.5 88.5,31.5C 89.3921,29.0543 90.8921,28.3877 93,29.5C 94.0758,31.0672 94.9091,32.7338 95.5,34.5C 95.1316,36.1753 94.1316,37.1753 92.5,37.5 Z"/></g>
<g><path style="opacity:1" fill="#6488b3" d="M 87.5,32.5 C 87.5,34.5 87.5,36.5 87.5,38.5C 89.2161,38.3713 90.8828,38.038 92.5,37.5C 90.5,40.1667 88.1667,42.5 85.5,44.5C 84.105,43.3523 84.2716,42.3523 86,41.5C 86.6667,40.1667 86.6667,38.8333 86,37.5C 84.1575,39.1712 81.9908,40.1712 79.5,40.5C 81.8333,37.5 84.5,34.8333 87.5,32.5 Z"/></g>
<g><path style="opacity:1" fill="#5a7da8" d="M 122.5,47.5 C 119.891,47.1699 118.224,45.6699 117.5,43C 115.527,42.4622 114.527,43.2956 114.5,45.5C 115.963,47.2888 116.963,49.2888 117.5,51.5C 111.107,48.4954 109.94,44.1621 114,38.5C 117.714,40.7129 120.548,43.7129 122.5,47.5 Z"/></g>
<g><path style="opacity:1" fill="#4576c0" d="M 122.5,47.5 C 122.616,50.9103 120.95,52.2436 117.5,51.5C 116.963,49.2888 115.963,47.2888 114.5,45.5C 114.527,43.2956 115.527,42.4622 117.5,43C 118.224,45.6699 119.891,47.1699 122.5,47.5 Z"/></g>
<g><path style="opacity:1" fill="#537bab" d="M 122.5,47.5 C 126.215,50.5481 129.548,53.8815 132.5,57.5C 130.118,56.5568 127.951,55.2234 126,53.5C 123.98,54.0319 123.147,55.3652 123.5,57.5C 121.167,55.8333 119.167,53.8333 117.5,51.5C 120.95,52.2436 122.616,50.9103 122.5,47.5 Z"/></g>
<g><path style="opacity:1" fill="#5a87be" d="M 85.5,44.5 C 74.0424,56.7926 62.3757,68.9592 50.5,81C 59.993,91.3265 69.6597,101.493 79.5,111.5C 79.3505,112.552 79.5172,113.552 80,114.5C 81.7571,115.119 82.9238,116.286 83.5,118C 82.5862,119.406 81.9195,120.906 81.5,122.5C 80.5,122.167 79.8333,121.5 79.5,120.5C 80.2436,117.05 78.9103,115.384 75.5,115.5C 75.8333,112.5 74.5,111.167 71.5,111.5C 69.8333,107.833 67.1667,105.167 63.5,103.5C 55.7552,96.2572 48.0886,88.7572 40.5,81C 41.5248,78.9285 42.3581,76.7619 43,74.5C 55.0625,62.9333 67.2292,51.6 79.5,40.5C 81.9908,40.1712 84.1575,39.1712 86,37.5C 86.6667,38.8333 86.6667,40.1667 86,41.5C 84.2716,42.3523 84.105,43.3523 85.5,44.5 Z"/></g>
<g><path style="opacity:1" fill="#4278bf" d="M 153.5,79.5 C 152.999,84.3864 150.666,88.3864 146.5,91.5C 145.754,92.7362 145.421,94.0695 145.5,95.5C 144.167,95.5 143.5,96.1667 143.5,97.5C 141.281,96.6068 139.115,96.9401 137,98.5C 136.333,97.1667 136.333,95.8333 137,94.5C 141.222,91.0306 145.222,87.364 149,83.5C 149.49,82.2068 149.657,80.8734 149.5,79.5C 150.833,79.5 152.167,79.5 153.5,79.5 Z"/></g>
<g><path style="opacity:1" fill="#e6f6fa" d="M 111.5,63.5 C 104.978,68.6951 98.4784,74.0284 92,79.5C 86.9868,85.5487 82.4868,91.882 78.5,98.5C 76.9519,98.1788 76.2852,97.1788 76.5,95.5C 77.5,95.5 78.5,95.5 79.5,95.5C 80.4247,88.9061 83.7581,83.9061 89.5,80.5C 89.2907,79.914 88.9574,79.414 88.5,79C 90.4521,76.9261 92.2854,74.7594 94,72.5C 95.0113,73.3366 96.1779,73.67 97.5,73.5C 97.33,72.1779 97.6634,71.0113 98.5,70C 100.623,69.1853 102.623,68.1853 104.5,67C 103.241,66.0766 101.908,65.2432 100.5,64.5C 102.611,63.1515 104.445,63.4848 106,65.5C 107.401,63.8078 109.234,63.1412 111.5,63.5 Z"/></g>
<g><path style="opacity:1" fill="#4f79b0" d="M 78.5,98.5 C 82.4868,91.882 86.9868,85.5487 92,79.5C 98.4784,74.0284 104.978,68.6951 111.5,63.5C 114.153,62.3244 116.819,61.4911 119.5,61C 116.593,64.1508 113.926,67.4841 111.5,71C 110.062,71.2189 108.729,71.7189 107.5,72.5C 108.844,75.979 107.511,77.8124 103.5,78C 104.167,78.6667 104.833,79.3333 105.5,80C 103.365,81.3811 101.032,82.3811 98.5,83C 102.29,84.8195 102.29,86.8195 98.5,89C 95.1103,89.2463 91.777,89.7463 88.5,90.5C 86.2713,93.5538 84.2713,96.7204 82.5,100C 79.8986,102.498 78.5653,101.998 78.5,98.5 Z"/></g>
<g><path style="opacity:1" fill="#5379a8" d="M 153.5,79.5 C 155.441,81.0106 155.941,83.0106 155,85.5C 152.332,89.3341 149.165,92.6675 145.5,95.5C 145.421,94.0695 145.754,92.7362 146.5,91.5C 150.666,88.3864 152.999,84.3864 153.5,79.5 Z"/></g>
<g><path style="opacity:1" fill="#6689ad" d="M 63.5,103.5 C 67.1667,105.167 69.8333,107.833 71.5,111.5C 74.5,111.167 75.8333,112.5 75.5,115.5C 78.9103,115.384 80.2436,117.05 79.5,120.5C 73.3845,115.39 68.0512,109.723 63.5,103.5 Z"/></g>
<g><path style="opacity:1" fill="#ebf4fa" d="M 145.5,80.5 C 146.097,80.7352 146.43,81.2352 146.5,82C 135.355,93.8116 123.855,105.312 112,116.5C 111.536,117.094 111.369,117.761 111.5,118.5C 107.546,120.62 104.379,123.62 102,127.5C 102.15,129.506 102.65,131.506 103.5,133.5C 102.85,133.196 102.183,132.863 101.5,132.5C 100.516,129.572 100.183,126.572 100.5,123.5C 103.752,122.248 106.086,119.915 107.5,116.5C 111.556,115.278 114.056,112.611 115,108.5C 119,107.167 121.667,104.5 123,100.5C 125.887,99.4522 128.387,97.7855 130.5,95.5C 132.755,90.7475 136.422,87.5808 141.5,86C 140.692,85.6924 140.025,85.1924 139.5,84.5C 140.522,83.646 141.355,82.646 142,81.5C 143.313,82.2871 144.48,81.9538 145.5,80.5 Z"/></g>
<g><path style="opacity:1" fill="#4d79b5" d="M 132.5,57.5 C 139.534,64.8657 146.534,72.199 153.5,79.5C 152.167,79.5 150.833,79.5 149.5,79.5C 149.657,80.8734 149.49,82.2068 149,83.5C 145.222,87.364 141.222,91.0306 137,94.5C 136.333,95.8333 136.333,97.1667 137,98.5C 139.115,96.9401 141.281,96.6068 143.5,97.5C 133.324,106.93 123.324,116.764 113.5,127C 112.906,127.464 112.239,127.631 111.5,127.5C 109.362,127.703 107.695,128.703 106.5,130.5C 105.28,130.113 104.613,129.28 104.5,128C 106.914,124.822 109.248,121.655 111.5,118.5C 111.369,117.761 111.536,117.094 112,116.5C 123.855,105.312 135.355,93.8116 146.5,82C 146.43,81.2352 146.097,80.7352 145.5,80.5C 138.167,72.8333 130.833,65.1667 123.5,57.5C 123.147,55.3652 123.98,54.0319 126,53.5C 127.951,55.2234 130.118,56.5568 132.5,57.5 Z"/></g>
<g><path style="opacity:1" fill="#6886a8" d="M 79.5,111.5 C 82.0145,113.182 84.0145,115.348 85.5,118C 84.5279,120.111 83.6946,122.278 83,124.5C 82.2828,123.956 81.7828,123.289 81.5,122.5C 81.9195,120.906 82.5862,119.406 83.5,118C 82.9238,116.286 81.7571,115.119 80,114.5C 79.5172,113.552 79.3505,112.552 79.5,111.5 Z"/></g>
<g><path style="opacity:1" fill="#5b7ba8" d="M 111.5,118.5 C 109.248,121.655 106.914,124.822 104.5,128C 104.613,129.28 105.28,130.113 106.5,130.5C 107.695,128.703 109.362,127.703 111.5,127.5C 110.457,130.056 108.79,132.223 106.5,134C 105.423,134.47 104.423,134.303 103.5,133.5C 102.65,131.506 102.15,129.506 102,127.5C 104.379,123.62 107.546,120.62 111.5,118.5 Z"/></g>
<g><path style="opacity:1" fill="#e9f7f9" d="M 83.5,143.5 C 83.8563,149.077 84.8563,154.41 86.5,159.5C 86.5,160.833 86.5,162.167 86.5,163.5C 86.4654,164.404 85.9654,165.07 85,165.5C 83.2341,164.767 81.4008,164.433 79.5,164.5C 79.719,165.675 79.3857,166.675 78.5,167.5C 77.8281,166.051 77.1614,164.718 76.5,163.5C 76.5,156.833 76.5,150.167 76.5,143.5C 75.1667,143.5 73.8333,143.5 72.5,143.5C 72.5,149.833 72.5,156.167 72.5,162.5C 71.5,162.5 70.5,162.5 69.5,162.5C 69.8182,157.968 69.4849,153.634 68.5,149.5C 67.8106,148.226 66.9772,148.226 66,149.5C 65.501,153.821 65.3343,158.154 65.5,162.5C 64.0689,162.881 63.2355,163.881 63,165.5C 60.7328,164.065 58.7328,164.398 57,166.5C 53.9146,165.568 50.7479,164.901 47.5,164.5C 47.7852,162.712 47.4519,161.045 46.5,159.5C 45.6747,163.122 45.1747,166.789 45,170.5C 43.0606,174.307 41.2273,174.307 39.5,170.5C 39.8627,169.817 40.1961,169.15 40.5,168.5C 41.5,168.5 42.5,168.5 43.5,168.5C 43.4139,166.323 42.7472,164.323 41.5,162.5C 45.3455,158.07 46.3455,153.07 44.5,147.5C 45.8221,147.33 46.9887,147.663 48,148.5C 49.0233,144.667 50.1899,144.667 51.5,148.5C 50.5041,148.414 49.6708,148.748 49,149.5C 48.1925,153.027 48.3592,156.36 49.5,159.5C 49.33,160.822 49.6634,161.989 50.5,163C 53.2569,163.782 55.7569,163.282 58,161.5C 58.7083,162.381 59.5416,163.047 60.5,163.5C 62.1765,162.817 62.8432,161.483 62.5,159.5C 63.8117,157.257 64.4783,154.59 64.5,151.5C 64.332,147.475 63.9987,143.475 63.5,139.5C 66.3938,139.042 68.8938,139.709 71,141.5C 71.7387,140.426 72.7387,139.759 74,139.5C 76.3047,140.629 78.6381,140.629 81,139.5C 84.104,139.851 83.9374,140.351 80.5,141C 81.9423,141.377 82.9423,142.21 83.5,143.5 Z"/></g>
<g><path style="opacity:1" fill="#647da1" d="M 66.5,142.5 C 69.8606,143.203 70.1939,144.537 67.5,146.5C 65.3576,145.563 65.0243,144.23 66.5,142.5 Z"/></g>
<g><path style="opacity:1" fill="#6b87a1" d="M 142.5,142.5 C 144.346,142.222 145.68,142.889 146.5,144.5C 145.68,146.111 144.346,146.778 142.5,146.5C 142.5,145.167 142.5,143.833 142.5,142.5 Z"/></g>
<g><path style="opacity:1" fill="#abccea" d="M 135.5,143.5 C 135.5,145.833 135.5,148.167 135.5,150.5C 134.005,150.011 132.671,149.345 131.5,148.5C 132.5,148.5 133.5,148.5 134.5,148.5C 134.216,146.585 134.549,144.919 135.5,143.5 Z"/></g>
<g><path style="opacity:1" fill="#6082b1" d="M 76.5,163.5 C 75.0413,163.567 73.7079,163.234 72.5,162.5C 72.5,156.167 72.5,149.833 72.5,143.5C 73.8333,143.5 75.1667,143.5 76.5,143.5C 76.5,150.167 76.5,156.833 76.5,163.5 Z"/></g>
<g><path style="opacity:1" fill="#557ea7" d="M 81.5,143.5 C 80.8872,149.271 81.5539,154.604 83.5,159.5C 83.5,160.833 83.5,162.167 83.5,163.5C 81.3652,163.853 80.0319,163.02 79.5,161C 80.1062,155.022 80.7728,149.189 81.5,143.5 Z"/></g>
<g><path style="opacity:1" fill="#687eb4" d="M 169.5,155.5 C 169.179,157.048 168.179,157.715 166.5,157.5C 162.119,157.614 159.953,155.614 160,151.5C 162.612,148.424 165.779,147.757 169.5,149.5C 170.386,150.325 170.719,151.325 170.5,152.5C 168.194,152.007 165.861,151.674 163.5,151.5C 163.5,152.5 163.5,153.5 163.5,154.5C 165.565,154.517 167.565,154.85 169.5,155.5 Z"/></g>
<g><path style="opacity:1" fill="#566fb6" d="M 81.5,143.5 C 82.1667,143.5 82.8333,143.5 83.5,143.5C 83.5,148.833 83.5,154.167 83.5,159.5C 81.5539,154.604 80.8872,149.271 81.5,143.5 Z"/></g>
<g><path style="opacity:1" fill="#c3d6ef" d="M 58.5,149.5 C 59.5676,148.566 60.901,148.232 62.5,148.5C 62.5,152.167 62.5,155.833 62.5,159.5C 62.8432,161.483 62.1765,162.817 60.5,163.5C 61.441,158.93 61.7744,154.263 61.5,149.5C 60.5,149.5 59.5,149.5 58.5,149.5 Z"/></g>
<g><path style="opacity:1" fill="#5c7ea5" d="M 44.5,147.5 C 46.3455,153.07 45.3455,158.07 41.5,162.5C 42.7472,164.323 43.4139,166.323 43.5,168.5C 42.5,168.5 41.5,168.5 40.5,168.5C 39.4897,164.48 36.823,162.647 32.5,163C 27.1499,159.629 25.3165,154.796 27,148.5C 30.3924,142.533 35.2258,141.033 41.5,144C 42.7101,145.039 43.7101,146.206 44.5,147.5 Z"/></g>
<g><path style="opacity:1" fill="#f0f9f9" d="M 33.5,145.5 C 36.505,145.253 39.005,146.253 41,148.5C 41.5787,152.203 41.412,155.869 40.5,159.5C 38.8014,159.62 37.1347,159.954 35.5,160.5C 33.6701,160.42 32.3367,159.587 31.5,158C 29.6898,153.271 30.3565,149.104 33.5,145.5 Z"/></g>
<g><path style="opacity:1" fill="#5078b1" d="M 68.5,149.5 C 68.5,153.833 68.5,158.167 68.5,162.5C 67.5,162.5 66.5,162.5 65.5,162.5C 65.3343,158.154 65.501,153.821 66,149.5C 66.9772,148.226 67.8106,148.226 68.5,149.5 Z"/></g>
<g><path style="opacity:1" fill="#94a2c3" d="M 68.5,149.5 C 69.4849,153.634 69.8182,157.968 69.5,162.5C 68.1667,163.833 66.8333,163.833 65.5,162.5C 66.5,162.5 67.5,162.5 68.5,162.5C 68.5,158.167 68.5,153.833 68.5,149.5 Z"/></g>
<g><path style="opacity:1" fill="#597fa7" d="M 51.5,148.5 C 52.2599,152.081 52.7599,155.748 53,159.5C 54.4579,160.747 55.9579,160.747 57.5,159.5C 58.487,156.232 58.8204,152.898 58.5,149.5C 59.5,149.5 60.5,149.5 61.5,149.5C 61.7744,154.263 61.441,158.93 60.5,163.5C 59.5416,163.047 58.7083,162.381 58,161.5C 55.7569,163.282 53.2569,163.782 50.5,163C 49.6634,161.989 49.33,160.822 49.5,159.5C 48.3592,156.36 48.1925,153.027 49,149.5C 49.6708,148.748 50.5041,148.414 51.5,148.5 Z"/></g>
<g><path style="opacity:1" fill="#4a76b7" d="M 49.5,159.5 C 49.1866,156.753 49.52,154.086 50.5,151.5C 50.8333,152.833 51.1667,154.167 51.5,155.5C 51.4146,157.333 50.7479,158.666 49.5,159.5 Z"/></g>
<g><path style="opacity:1" fill="#4878b4" d="M 135.5,143.5 C 136.5,143.5 137.5,143.5 138.5,143.5C 138.5,147.833 138.5,152.167 138.5,156.5C 137.5,157.833 136.5,157.833 135.5,156.5C 135.5,155.833 135.5,155.167 135.5,154.5C 135.5,153.167 135.5,151.833 135.5,150.5C 135.5,148.167 135.5,145.833 135.5,143.5 Z"/></g>
<g><path style="opacity:1" fill="#5f82af" d="M 151.5,144.5 C 154.084,145.048 155.084,146.715 154.5,149.5C 158.5,150.167 158.5,150.833 154.5,151.5C 154.336,154.187 154.503,156.854 155,159.5C 159.381,160.693 159.548,162.027 155.5,163.5C 153.234,163.069 151.734,161.736 151,159.5C 150.503,156.854 150.336,154.187 150.5,151.5C 146.5,150.833 146.5,150.167 150.5,149.5C 150.366,147.708 150.699,146.042 151.5,144.5 Z"/></g>
<g><path style="opacity:1" fill="#5c7ea7" d="M 86.5,163.5 C 86.5,162.167 86.5,160.833 86.5,159.5C 89.3335,154.489 91.6668,149.156 93.5,143.5C 95.288,143.215 96.9547,143.548 98.5,144.5C 100.971,149.942 103.304,155.442 105.5,161C 105.167,161.5 104.833,162 104.5,162.5C 103.155,161.653 102.155,160.487 101.5,159C 97.7887,158.175 94.122,158.341 90.5,159.5C 89.7542,160.736 89.4208,162.07 89.5,163.5C 88.5,163.5 87.5,163.5 86.5,163.5 Z"/></g>
<g><path style="opacity:1" fill="#e4f6f9" d="M 95.5,148.5 C 97.3056,150.089 98.6389,152.089 99.5,154.5C 97.1667,155.833 94.8333,155.833 92.5,154.5C 93.5133,152.473 94.5133,150.473 95.5,148.5 Z"/></g>
<g><path style="opacity:1" fill="#e8f5f7" d="M 135.5,154.5 C 135.5,155.167 135.5,155.833 135.5,156.5C 134.537,159.648 132.537,160.648 129.5,159.5C 128.353,157.235 128.186,154.902 129,152.5C 131.906,150.933 134.072,151.6 135.5,154.5 Z"/></g>
<g><path style="opacity:1" fill="#658aae" d="M 108.5,148.5 C 109.822,148.33 110.989,148.663 112,149.5C 112.333,152.833 112.667,156.167 113,159.5C 114.113,160.711 115.28,160.711 116.5,159.5C 117.489,155.893 117.823,152.226 117.5,148.5C 118.833,148.5 120.167,148.5 121.5,148.5C 121.5,153.5 121.5,158.5 121.5,163.5C 118.822,162.382 116.155,162.382 113.5,163.5C 111.893,163.363 110.559,162.696 109.5,161.5C 108.561,157.235 108.228,152.902 108.5,148.5 Z"/></g>
<g><path style="opacity:1" fill="#4676ba" d="M 109.5,151.5 C 110.748,152.334 111.415,153.667 111.5,155.5C 111.167,156.833 110.833,158.167 110.5,159.5C 109.52,156.914 109.187,154.247 109.5,151.5 Z"/></g>
<g><path style="opacity:1" fill="#6080a8" d="M 131.5,148.5 C 132.671,149.345 134.005,150.011 135.5,150.5C 135.5,151.833 135.5,153.167 135.5,154.5C 134.072,151.6 131.906,150.933 129,152.5C 128.186,154.902 128.353,157.235 129.5,159.5C 132.537,160.648 134.537,159.648 135.5,156.5C 136.5,157.833 137.5,157.833 138.5,156.5C 138.5,158.833 138.5,161.167 138.5,163.5C 136.857,163.52 135.524,162.853 134.5,161.5C 130.653,164.415 127.486,163.748 125,159.5C 122.729,153.001 124.896,149.334 131.5,148.5 Z"/></g>
<g><path style="opacity:1" fill="#6786ae" d="M 142.5,148.5 C 143.822,148.33 144.989,148.663 146,149.5C 146.667,153.833 146.667,158.167 146,162.5C 145,163.833 144,163.833 143,162.5C 142.501,157.845 142.334,153.179 142.5,148.5 Z"/></g>
<g><path style="opacity:1" fill="#6180a3" d="M 169.5,155.5 C 171.616,157.088 171.949,159.088 170.5,161.5C 167.012,163.798 163.345,164.131 159.5,162.5C 159.5,161.5 159.5,160.5 159.5,159.5C 161.342,159.723 163.175,160.057 165,160.5C 167.578,160.318 168.078,159.318 166.5,157.5C 168.179,157.715 169.179,157.048 169.5,155.5 Z"/></g>
</svg>
