<?xml version="1.0" encoding="utf-8"?>
<!-- Generator: Adobe Illustrator 24.3.0, SVG Export Plug-In . SVG Version: 6.00 Build 0)  -->
<svg version="1.0" id="katman_1" xmlns="http://www.w3.org/2000/svg" xmlns:xlink="http://www.w3.org/1999/xlink" x="0px" y="0px"
	 viewBox="0 0 602 448" style="enable-background:new 0 0 602 448;" xml:space="preserve">
<style type="text/css">
	.st0{fill:#F26207;}
</style>
<g>
	<path d="M527.09,178.91c1.31,0,2.33,0.95,2.33,2.18v13.97h25.25c1.31,0,2.33,0.95,2.33,2.18v7.2c0,1.16-1.02,2.18-2.33,2.26h-25.25
		v21.25c0,8.88,3.2,12.45,12.23,12.45H553c1.31,0,2.33,0.95,2.33,2.18v7.2c0,1.16-1.02,2.18-2.33,2.18h-13.53
		c-16.6,0-24.31-7.57-24.31-23.94v-21.4h-14.92c-1.31,0-2.33-0.95-2.33-2.18v-7.2c0-1.16,1.02-2.18,2.33-2.18h14.92v-13.97
		c0-1.16,1.02-2.18,2.33-2.18H527.09z M480.51,195.07c1.31,0,2.33,0.95,2.33,2.18v43.16h17.83c1.31,0,2.33,0.95,2.33,2.18v7.2
		c0,1.16-1.02,2.18-2.33,2.18h-49.49c-1.31,0-2.33-0.95-2.33-2.18v-7.2c0-1.16,1.02-2.18,2.33-2.18h17.39v-33.77h-17.39
		c-1.31,0-2.33-0.95-2.33-2.18v-7.2c0-1.16,1.02-2.18,2.33-2.18H480.51z M481.09,173.09c1.24,0,2.26,0.95,2.33,2.18v9.24
		c0,1.16-1.02,2.18-2.33,2.18h-13.1c-1.31,0-2.33-0.95-2.33-2.18v-9.24c0-1.16,1.02-2.18,2.33-2.18H481.09z M437.86,240.41h-14.85
		v-65.14c0-1.24-1.02-2.18-2.33-2.18h-29.11c-1.31,0-2.33,1.02-2.33,2.18v7.21c0,1.24,1.02,2.18,2.33,2.18h17.18v55.75h-19.29
		c-1.31,0-2.33,1.02-2.33,2.18v7.2c0,1.24,1.02,2.18,2.33,2.18h48.4c1.31,0,2.33-1.02,2.33-2.18v-7.2
		C440.19,241.35,439.17,240.41,437.86,240.41z M358.82,193.97c-4.95,0-8.52,1.09-11.28,3.71l-3.42,3.28h-3.13l-1.16-4.22
		c-0.29-0.95-1.16-1.67-2.26-1.67h-6.55c-1.31,0-2.33,1.02-2.33,2.18v74.53c0,1.24,1.02,2.18,2.33,2.18h9.61
		c1.31,0,2.33-1.02,2.33-2.18v-16.16l-1.24-8.66l3.2-0.73l3.42,3.27c2.69,2.47,5.97,3.71,10.84,3.71c14.12,0,22.63-9.75,22.63-29.62
		C381.75,203.73,373.31,193.97,358.82,193.97z M354.09,241.28c-7.21,0-11.21-3.71-11.21-10.77v-13.97c0-7.06,3.93-10.77,11.21-10.77
		c8.81,0,12.81,5.53,12.81,17.69C366.83,235.75,362.9,241.28,354.09,241.28z M288.01,193.97c-18.34,0-28.17,9.75-28.17,29.55
		c0,19.87,9.75,29.62,27.8,29.62c13.97,0,23-5.82,25.4-15.79c0.36-1.38-0.8-2.69-2.26-2.69h-8.73c-0.95,0-1.82,0.58-2.18,1.46
		c-1.53,4.29-5.89,6.33-11.79,6.33c-9.17,0-13.54-5.02-14.12-16.74h39.81C315.96,203.8,306.86,193.97,288.01,193.97z M274.4,216.83
		c1.38-8.59,5.68-12.59,13.54-12.59c8.37,0,12.3,4.44,12.52,12.59H274.4z M231.46,197.61l-3.28,3.28h-3.27l-1.02-4.15
		c-0.22-1.02-1.16-1.67-2.26-1.67h-20.96c-1.31,0-2.33,1.02-2.33,2.18v7.2c0,1.24,1.02,2.18,2.33,2.18h12.37v33.77h-14.41
		c-1.31,0-2.33,1.02-2.33,2.18v7.2c0,1.24,1.02,2.18,2.33,2.18h45.34c1.31,0,2.33-1.02,2.33-2.18v-7.2c0-1.24-1.02-2.18-2.33-2.18
		h-16.67v-23.87c0-6.7,3.93-10.19,11.64-10.19h12.52c1.31,0,2.33-1.02,2.33-2.18v-7.93c0-1.24-1.02-2.18-2.33-2.18h-7.42
		C238.59,193.97,234.3,194.99,231.46,197.61z"/>
	<path class="st0" d="M45,170.57c0-4.18,3.39-7.57,7.57-7.57h35.31c4.18,0,7.57,3.39,7.57,7.57v32.78H52.57
		c-4.18,0-7.57-3.39-7.57-7.57V170.57z M95.44,203.35h42.87c4.18,0,7.57,3.39,7.57,7.57v25.22c0,4.18-3.39,7.57-7.57,7.57H95.44
		V203.35z M45,251.26c0-4.18,3.39-7.57,7.57-7.57h42.87v32.78c0,4.18-3.39,7.57-7.57,7.57H52.57c-4.18,0-7.57-3.39-7.57-7.57V251.26
		z"/>
</g>
</svg>
