<?xml version="1.0" encoding="UTF-8"?>
<!DOCTYPE svg PUBLIC "-//W3C//DTD SVG 1.1//EN" "http://www.w3.org/Graphics/SVG/1.1/DTD/svg11.dtd">
<svg xmlns="http://www.w3.org/2000/svg" version="1.1" width="900px" height="900px" style="shape-rendering:geometricPrecision; text-rendering:geometricPrecision; image-rendering:optimizeQuality; fill-rule:evenodd; clip-rule:evenodd" xmlns:xlink="http://www.w3.org/1999/xlink">
<g><path style="opacity:1" fill="#000000" d="M -0.5,-0.5 C 299.5,-0.5 599.5,-0.5 899.5,-0.5C 899.5,299.5 899.5,599.5 899.5,899.5C 599.5,899.5 299.5,899.5 -0.5,899.5C -0.5,599.5 -0.5,299.5 -0.5,-0.5 Z"/></g>
<g><path style="opacity:1" fill="#0c0c0c" d="M 789.5,107.5 C 562.666,107.167 335.999,107.5 109.5,108.5C 109.167,108.5 108.833,108.5 108.5,108.5C 221.665,107.167 335.165,106.5 449,106.5C 562.667,106.5 676.167,106.833 789.5,107.5 Z"/></g>
<g><path style="opacity:1" fill="#3d3d3d" d="M 109.5,108.5 C 335.999,107.5 562.666,107.167 789.5,107.5C 790.833,334.931 790.833,562.264 789.5,789.5C 789.833,562.666 789.5,335.999 788.5,109.5C 562.334,108.5 336.001,108.167 109.5,108.5 Z"/></g>
<g><path style="opacity:1" fill="#818181" d="M 108.5,108.5 C 108.833,108.5 109.167,108.5 109.5,108.5C 336.001,108.167 562.334,108.5 788.5,109.5C 562.167,109.5 335.833,109.5 109.5,109.5C 109.5,282.5 109.5,455.5 109.5,628.5C 108.833,628.5 108.5,628.167 108.5,627.5C 108.5,454.833 108.5,282.167 108.5,109.5C 108.5,109.167 108.5,108.833 108.5,108.5 Z"/></g>
<g><path style="opacity:1" fill="#fefefe" d="M 788.5,110.5 C 788.5,335.167 788.5,559.833 788.5,784.5C 787.5,784.5 786.5,784.5 785.5,784.5C 785.833,560.499 785.5,336.499 784.5,112.5C 560.794,113.666 337.128,113.832 113.5,113C 113.043,113.414 112.709,113.914 112.5,114.5C 113.166,286.363 113.833,458.196 114.5,630C 113.181,630.195 111.847,630.028 110.5,629.5C 110.5,456.5 110.5,283.5 110.5,110.5C 336.5,110.5 562.5,110.5 788.5,110.5 Z"/></g>
<g><path style="opacity:1" fill="#f6f6f6" d="M 788.5,784.5 C 788.5,784.833 788.5,785.167 788.5,785.5C 610.497,784.835 432.83,785.501 255.5,787.5C 254.5,786.833 253.5,786.167 252.5,785.5C 251.167,783.5 249.5,781.833 247.5,780.5C 246.585,778.246 245.252,776.246 243.5,774.5C 244.735,774.279 245.735,773.612 246.5,772.5C 250.371,778.05 255.371,782.05 261.5,784.5C 435.812,783.503 610.145,783.169 784.5,783.5C 784.999,560.361 784.499,337.361 783,114.5C 560.635,115.663 338.135,115.829 115.5,115C 114.673,285.351 114.507,455.851 115,626.5C 117.089,631.794 120.089,636.461 124,640.5C 125.067,641.191 126.234,641.691 127.5,642C 131.861,646.693 136.195,651.359 140.5,656C 136.886,654.422 133.719,651.922 131,648.5C 130.601,648.728 130.435,649.062 130.5,649.5C 129.609,648.89 128.609,648.557 127.5,648.5C 126.833,647.167 125.833,646.167 124.5,645.5C 123.167,643.5 121.5,641.833 119.5,640.5C 118.243,637.573 116.243,635.239 113.5,633.5C 112.5,632.167 111.5,630.833 110.5,629.5C 111.847,630.028 113.181,630.195 114.5,630C 113.833,458.196 113.166,286.363 112.5,114.5C 112.709,113.914 113.043,113.414 113.5,113C 337.128,113.832 560.794,113.666 784.5,112.5C 785.5,336.499 785.833,560.499 785.5,784.5C 786.5,784.5 787.5,784.5 788.5,784.5 Z"/></g>
<g><path style="opacity:1" fill="#d0d0d0" d="M 788.5,109.5 C 788.5,109.833 788.5,110.167 788.5,110.5C 562.5,110.5 336.5,110.5 110.5,110.5C 110.5,283.5 110.5,456.5 110.5,629.5C 109.833,629.5 109.5,629.167 109.5,628.5C 109.5,455.5 109.5,282.5 109.5,109.5C 335.833,109.5 562.167,109.5 788.5,109.5 Z"/></g>
<g><path style="opacity:1" fill="#fefefe" d="M 243.5,774.5 C 242.833,774.167 242.167,773.833 241.5,773.5C 239.833,771.5 238.167,769.5 236.5,767.5C 236.5,765.5 235.5,764.5 233.5,764.5C 231.833,762.167 229.833,760.167 227.5,758.5C 225.833,756.5 224.167,754.5 222.5,752.5C 222.5,751.167 221.833,750.5 220.5,750.5C 221.167,748.5 221.833,746.5 222.5,744.5C 226.771,741.899 230.437,738.566 233.5,734.5C 234.5,734.167 235.167,733.5 235.5,732.5C 246.134,723.533 256.134,713.866 265.5,703.5C 270.105,700.564 274.105,696.898 277.5,692.5C 280.5,690.167 283.167,687.5 285.5,684.5C 288.167,683.833 289.833,682.167 290.5,679.5C 290.833,678.5 291.5,677.833 292.5,677.5C 293.239,677.631 293.906,677.464 294.5,677C 308.395,662.938 322.395,649.104 336.5,635.5C 338.19,635.144 339.19,634.144 339.5,632.5C 339.833,631.5 340.5,630.833 341.5,630.5C 344.335,629.931 346.001,628.264 346.5,625.5C 351.44,622.23 355.773,618.23 359.5,613.5C 362.543,611.824 364.877,609.491 366.5,606.5C 367.5,606.167 368.167,605.5 368.5,604.5C 376.466,598.202 383.799,591.202 390.5,583.5C 392.19,583.144 393.19,582.144 393.5,580.5C 393.833,579.5 394.5,578.833 395.5,578.5C 398.335,577.931 400.001,576.264 400.5,573.5C 404.771,570.899 408.437,567.566 411.5,563.5C 412.5,563.167 413.167,562.5 413.5,561.5C 416.189,560.811 417.856,559.144 418.5,556.5C 422.771,553.899 426.437,550.566 429.5,546.5C 433.5,542.833 437.5,539.167 441.5,535.5C 447.271,530.734 452.271,525.401 456.5,519.5C 459.427,518.243 461.761,516.243 463.5,513.5C 466.833,512.167 469.167,509.833 470.5,506.5C 471.239,506.631 471.906,506.464 472.5,506C 486.395,491.938 500.395,478.104 514.5,464.5C 515.5,464.167 516.167,463.5 516.5,462.5C 517.5,462.167 518.167,461.5 518.5,460.5C 519.5,460.167 520.167,459.5 520.5,458.5C 520.833,457.5 521.5,456.833 522.5,456.5C 530.445,450.224 537.778,443.224 544.5,435.5C 545.5,435.167 546.167,434.5 546.5,433.5C 554.132,427.536 561.132,420.869 567.5,413.5C 567.833,412.5 568.5,411.833 569.5,411.5C 571.144,411.19 572.144,410.19 572.5,408.5C 573.167,407.167 574.167,406.167 575.5,405.5C 578.335,404.931 580.001,403.264 580.5,400.5C 584.771,397.899 588.437,394.566 591.5,390.5C 592.5,390.167 593.167,389.5 593.5,388.5C 595.167,387.5 596.5,386.167 597.5,384.5C 599.5,383.833 600.833,382.5 601.5,380.5C 602.931,379.918 604.264,379.085 605.5,378C 606.252,377.329 606.586,376.496 606.5,375.5C 606.833,375.5 607.167,375.5 607.5,375.5C 608.333,488.333 608.833,601.333 609,714.5C 644.094,715.496 679.26,715.829 714.5,715.5C 715.833,627.169 716.5,538.503 716.5,449.5C 716.5,360.666 716.167,271.999 715.5,183.5C 715.167,183.5 714.833,183.5 714.5,183.5C 537.667,182.334 360.667,182.167 183.5,183C 182.168,218.598 182.168,254.098 183.5,289.5C 302.833,290.167 422.167,290.833 541.5,291.5C 539.833,292.833 538.167,294.167 536.5,295.5C 534.621,295.607 534.288,295.107 535.5,294C 418.167,293.333 300.833,293.333 183.5,294C 185,294.5 186.5,295 188,295.5C 302.579,294.347 417.079,294.18 531.5,295C 525.5,300.667 519.5,306.333 513.5,312C 514.819,313.628 516.152,313.461 517.5,311.5C 518.298,311.957 518.631,312.624 518.5,313.5C 518.5,313.833 518.5,314.167 518.5,314.5C 516.167,314.833 514.833,316.167 514.5,318.5C 512.596,318.738 511.262,319.738 510.5,321.5C 505.091,326.242 500.091,331.242 495.5,336.5C 489.558,340.773 484.224,345.773 479.5,351.5C 478.5,351.833 477.833,352.5 477.5,353.5C 477.167,353.5 476.833,353.5 476.5,353.5C 475.127,353.343 473.793,353.51 472.5,354C 467.509,358.957 462.509,363.957 457.5,369C 458.056,369.383 458.389,369.883 458.5,370.5C 457.167,372.167 455.833,373.833 454.5,375.5C 452.5,376.833 450.833,378.5 449.5,380.5C 448.5,380.833 447.833,381.5 447.5,382.5C 445.833,383.5 444.5,384.833 443.5,386.5C 439.564,388.766 436.231,391.766 433.5,395.5C 429.833,398.5 426.5,401.833 423.5,405.5C 423.167,405.5 422.833,405.5 422.5,405.5C 418.674,405.797 415.674,407.63 413.5,411C 404.46,415.867 398.127,423.034 394.5,432.5C 394.167,433.167 393.833,433.833 393.5,434.5C 392.5,434.833 391.833,435.5 391.5,436.5C 389.81,436.856 388.81,437.856 388.5,439.5C 387.833,439.5 387.5,439.833 387.5,440.5C 379.842,446.492 372.842,453.159 366.5,460.5C 365.167,460.5 364.5,461.167 364.5,462.5C 361.167,463.833 358.833,466.167 357.5,469.5C 353.229,472.101 349.563,475.434 346.5,479.5C 345.5,479.833 344.833,480.5 344.5,481.5C 343.5,481.833 342.833,482.5 342.5,483.5C 341.167,484.167 340.167,485.167 339.5,486.5C 337.81,486.856 336.81,487.856 336.5,489.5C 332.5,491.5 329.5,494.5 327.5,498.5C 322.848,501.486 318.848,505.153 315.5,509.5C 314.167,509.5 313.5,510.167 313.5,511.5C 308.893,514.768 304.559,518.435 300.5,522.5C 299.022,522.238 297.689,522.571 296.5,523.5C 292.876,526.164 289.21,528.831 285.5,531.5C 280.668,536.498 275.668,541.332 270.5,546C 271.823,546.816 272.489,547.983 272.5,549.5C 263.86,557.806 255.193,566.139 246.5,574.5C 241.059,576.746 236.393,580.246 232.5,585C 229.885,585.855 227.552,587.188 225.5,589C 222.931,592.669 220.264,596.169 217.5,599.5C 216.571,600.689 216.238,602.022 216.5,603.5C 216.167,604.167 215.833,604.833 215.5,605.5C 214.5,605.833 213.833,606.5 213.5,607.5C 211.81,607.856 210.81,608.856 210.5,610.5C 206.229,613.101 202.563,616.434 199.5,620.5C 195.833,623.5 192.5,626.833 189.5,630.5C 189.167,630.5 188.833,630.5 188.5,630.5C 187.127,630.343 185.793,630.51 184.5,631C 177.489,638.182 170.489,645.016 163.5,651.5C 162.571,652.689 162.238,654.022 162.5,655.5C 162.167,656.167 161.833,656.833 161.5,657.5C 159.5,658.833 157.833,660.5 156.5,662.5C 153.167,663.833 150.833,666.167 149.5,669.5C 148.5,669.5 147.5,669.5 146.5,669.5C 145.833,666.833 144.167,665.167 141.5,664.5C 140.243,661.573 138.243,659.239 135.5,657.5C 133.833,655.5 132.167,653.5 130.5,651.5C 130.5,650.833 130.5,650.167 130.5,649.5C 130.435,649.062 130.601,648.728 131,648.5C 133.719,651.922 136.886,654.422 140.5,656C 136.195,651.359 131.861,646.693 127.5,642C 126.234,641.691 125.067,641.191 124,640.5C 120.089,636.461 117.089,631.794 115,626.5C 114.507,455.851 114.673,285.351 115.5,115C 338.135,115.829 560.635,115.663 783,114.5C 784.499,337.361 784.999,560.361 784.5,783.5C 610.145,783.169 435.812,783.503 261.5,784.5C 255.371,782.05 250.371,778.05 246.5,772.5C 245.735,773.612 244.735,774.279 243.5,774.5 Z"/></g>
<g><path style="opacity:1" fill="#1d1d1d" d="M 108.5,109.5 C 108.5,282.167 108.5,454.833 108.5,627.5C 107.167,541.503 106.5,455.169 106.5,368.5C 106.5,281.831 107.167,195.497 108.5,109.5 Z"/></g>
<g><path style="opacity:1" fill="#f7f7f7" d="M 184.5,178.5 C 361.168,178.167 537.835,178.5 714.5,179.5C 626.167,179.833 537.833,180.167 449.5,180.5C 360.831,180.5 272.497,179.833 184.5,178.5 Z"/></g>
<g><path style="opacity:1" fill="#dedede" d="M 714.5,183.5 C 537.666,183.167 360.999,183.5 184.5,184.5C 183.502,219.329 183.168,254.329 183.5,289.5C 182.168,254.098 182.168,218.598 183.5,183C 360.667,182.167 537.667,182.334 714.5,183.5 Z"/></g>
<g><path style="opacity:1" fill="#f7f7f7" d="M 719.5,183.5 C 720.167,271.666 720.5,359.999 720.5,448.5C 720.666,537.307 720.166,625.973 719,714.5C 718.168,537.43 718.335,360.43 719.5,183.5 Z"/></g>
<g><path style="opacity:1" fill="#dfdfdf" d="M 715.5,183.5 C 716.167,271.999 716.5,360.666 716.5,449.5C 716.5,538.503 715.833,627.169 714.5,715.5C 714.5,715.167 714.5,714.833 714.5,714.5C 715.5,537.667 715.833,360.667 715.5,183.5 Z"/></g>
<g><path style="opacity:1" fill="#090909" d="M 711.5,713.5 C 678.833,713.5 646.167,713.5 613.5,713.5C 645.664,712.668 677.997,712.168 710.5,712C 710.043,711.586 709.709,711.086 709.5,710.5C 710.332,537.54 710.832,364.54 711,191.5C 711.5,365.5 711.667,539.5 711.5,713.5 Z"/></g>
<g><path style="opacity:1" fill="#737373" d="M 184.5,184.5 C 360.999,183.5 537.666,183.167 714.5,183.5C 714.833,183.5 715.167,183.5 715.5,183.5C 715.833,360.667 715.5,537.667 714.5,714.5C 679.663,714.832 644.996,714.498 610.5,713.5C 610.833,713.5 611.167,713.5 611.5,713.5C 612.167,713.5 612.833,713.5 613.5,713.5C 646.167,713.5 678.833,713.5 711.5,713.5C 712.5,713.5 713.5,713.5 714.5,713.5C 714.5,537.167 714.5,360.833 714.5,184.5C 537.833,184.5 361.167,184.5 184.5,184.5 Z"/></g>
<g><path style="opacity:1" fill="#171717" d="M 184.5,187.5 C 185.498,220.662 185.832,253.996 185.5,287.5C 305.167,287.5 424.833,287.5 544.5,287.5C 544.768,289.099 544.434,290.432 543.5,291.5C 543.5,290.5 543.5,289.5 543.5,288.5C 423.833,288.5 304.167,288.5 184.5,288.5C 184.5,254.833 184.5,221.167 184.5,187.5 Z"/></g>
<g><path style="opacity:1" fill="#5e5e5e" d="M 184.5,288.5 C 304.167,288.5 423.833,288.5 543.5,288.5C 543.5,289.5 543.5,290.5 543.5,291.5C 543.167,291.5 542.833,291.5 542.5,291.5C 423.337,289.834 304.003,288.834 184.5,288.5 Z"/></g>
<g><path style="opacity:1" fill="#afafaf" d="M 184.5,184.5 C 184.5,185.5 184.5,186.5 184.5,187.5C 184.5,221.167 184.5,254.833 184.5,288.5C 304.003,288.834 423.337,289.834 542.5,291.5C 542.167,291.5 541.833,291.5 541.5,291.5C 422.167,290.833 302.833,290.167 183.5,289.5C 183.168,254.329 183.502,219.329 184.5,184.5 Z"/></g>
<g><path style="opacity:1" fill="#f4f4f4" d="M 536.5,295.5 C 533.167,299.167 529.833,302.833 526.5,306.5C 523.833,308.833 521.167,311.167 518.5,313.5C 518.631,312.624 518.298,311.957 517.5,311.5C 516.152,313.461 514.819,313.628 513.5,312C 519.5,306.333 525.5,300.667 531.5,295C 417.079,294.18 302.579,294.347 188,295.5C 186.5,295 185,294.5 183.5,294C 300.833,293.333 418.167,293.333 535.5,294C 534.288,295.107 534.621,295.607 536.5,295.5 Z"/></g>
<g><path style="opacity:1" fill="#525252" d="M 541.5,291.5 C 541.833,291.5 542.167,291.5 542.5,291.5C 537.776,297.227 532.442,302.227 526.5,306.5C 529.833,302.833 533.167,299.167 536.5,295.5C 538.167,294.167 539.833,292.833 541.5,291.5 Z"/></g>
<g><path style="opacity:1" fill="#646464" d="M 518.5,314.5 C 517.5,316.167 516.167,317.5 514.5,318.5C 514.833,316.167 516.167,314.833 518.5,314.5 Z"/></g>
<g><path style="opacity:1" fill="#5c5c5c" d="M 514.5,318.5 C 513.738,320.262 512.404,321.262 510.5,321.5C 511.262,319.738 512.596,318.738 514.5,318.5 Z"/></g>
<g><path style="opacity:1" fill="#545454" d="M 510.5,321.5 C 506.521,327.479 501.521,332.479 495.5,336.5C 500.091,331.242 505.091,326.242 510.5,321.5 Z"/></g>
<g><path style="opacity:1" fill="#5e5e5e" d="M 495.5,336.5 C 490.776,342.227 485.442,347.227 479.5,351.5C 484.224,345.773 489.558,340.773 495.5,336.5 Z"/></g>
<g><path style="opacity:1" fill="#e4e4e4" d="M 476.5,353.5 C 476.167,354.167 475.833,354.833 475.5,355.5C 474.167,356.167 473.167,357.167 472.5,358.5C 468.167,362.167 464.167,366.167 460.5,370.5C 459.833,370.5 459.167,370.5 458.5,370.5C 458.389,369.883 458.056,369.383 457.5,369C 462.509,363.957 467.509,358.957 472.5,354C 473.793,353.51 475.127,353.343 476.5,353.5 Z"/></g>
<g><path style="opacity:1" fill="#4d4d4d" d="M 476.5,353.5 C 476.833,353.5 477.167,353.5 477.5,353.5C 477.5,354.833 476.833,355.5 475.5,355.5C 475.833,354.833 476.167,354.167 476.5,353.5 Z"/></g>
<g><path style="opacity:1" fill="#3b3b3b" d="M 475.5,355.5 C 475.5,357.5 474.5,358.5 472.5,358.5C 473.167,357.167 474.167,356.167 475.5,355.5 Z"/></g>
<g><path style="opacity:1" fill="#555555" d="M 458.5,370.5 C 459.167,370.5 459.833,370.5 460.5,370.5C 459.089,372.914 457.089,374.581 454.5,375.5C 455.833,373.833 457.167,372.167 458.5,370.5 Z"/></g>
<g><path style="opacity:1" fill="#a4a4a4" d="M 606.5,375.5 C 606.586,376.496 606.252,377.329 605.5,378C 604.264,379.085 602.931,379.918 601.5,380.5C 602.5,378.167 604.167,376.5 606.5,375.5 Z"/></g>
<g><path style="opacity:1" fill="#454545" d="M 454.5,375.5 C 453.833,378.167 452.167,379.833 449.5,380.5C 450.833,378.5 452.5,376.833 454.5,375.5 Z"/></g>
<g><path style="opacity:1" fill="#616161" d="M 607.5,373.5 C 608.5,373.5 609.5,373.5 610.5,373.5C 610.5,486.833 610.5,600.167 610.5,713.5C 609.833,600.666 609.167,487.666 608.5,374.5C 607.893,374.624 607.56,374.957 607.5,375.5C 607.167,375.5 606.833,375.5 606.5,375.5C 606.328,374.508 606.662,373.842 607.5,373.5 Z"/></g>
<g><path style="opacity:1" fill="#bababa" d="M 607.5,375.5 C 607.56,374.957 607.893,374.624 608.5,374.5C 609.167,487.666 609.833,600.666 610.5,713.5C 644.996,714.498 679.663,714.832 714.5,714.5C 714.5,714.833 714.5,715.167 714.5,715.5C 679.26,715.829 644.094,715.496 609,714.5C 608.833,601.333 608.333,488.333 607.5,375.5 Z"/></g>
<g><path style="opacity:1" fill="#4d4d4d" d="M 449.5,380.5 C 449.5,381.833 448.833,382.5 447.5,382.5C 447.833,381.5 448.5,380.833 449.5,380.5 Z"/></g>
<g><path style="opacity:1" fill="#b1b1b1" d="M 601.5,380.5 C 600.833,382.5 599.5,383.833 597.5,384.5C 598.167,382.5 599.5,381.167 601.5,380.5 Z"/></g>
<g><path style="opacity:1" fill="#f5f5f5" d="M 604.5,380.5 C 605.666,491.666 605.833,602.999 605,714.5C 604.308,713.975 603.808,713.308 603.5,712.5C 604.165,657.707 604.498,602.874 604.5,548C 604.496,493.025 603.829,438.191 602.5,383.5C 603.193,382.482 603.859,381.482 604.5,380.5 Z"/></g>
<g><path style="opacity:1" fill="#1b1b1b" d="M 607.5,373.5 C 608.568,372.566 609.901,372.232 611.5,372.5C 611.5,486.167 611.5,599.833 611.5,713.5C 611.167,713.5 610.833,713.5 610.5,713.5C 610.5,600.167 610.5,486.833 610.5,373.5C 609.5,373.5 608.5,373.5 607.5,373.5 Z"/></g>
<g><path style="opacity:1" fill="#858585" d="M 597.5,384.5 C 596.5,386.167 595.167,387.5 593.5,388.5C 593.833,386.167 595.167,384.833 597.5,384.5 Z"/></g>
<g><path style="opacity:1" fill="#989898" d="M 593.5,388.5 C 593.167,389.5 592.5,390.167 591.5,390.5C 591.5,389.167 592.167,388.5 593.5,388.5 Z"/></g>
<g><path style="opacity:1" fill="#6b6b6b" d="M 443.5,386.5 C 440.833,389.833 437.833,392.833 434.5,395.5C 434.167,395.5 433.833,395.5 433.5,395.5C 436.231,391.766 439.564,388.766 443.5,386.5 Z"/></g>
<g><path style="opacity:1" fill="#a3a3a3" d="M 591.5,390.5 C 588.437,394.566 584.771,397.899 580.5,400.5C 583.563,396.434 587.229,393.101 591.5,390.5 Z"/></g>
<g><path style="opacity:1" fill="#494949" d="M 433.5,395.5 C 433.833,395.5 434.167,395.5 434.5,395.5C 431.437,399.566 427.771,402.899 423.5,405.5C 426.5,401.833 429.833,398.5 433.5,395.5 Z"/></g>
<g><path style="opacity:1" fill="#c5c5c5" d="M 580.5,400.5 C 580.001,403.264 578.335,404.931 575.5,405.5C 576.833,403.5 578.5,401.833 580.5,400.5 Z"/></g>
<g><path style="opacity:1" fill="#a7a7a7" d="M 572.5,408.5 C 572.144,410.19 571.144,411.19 569.5,411.5C 569.856,409.81 570.856,408.81 572.5,408.5 Z"/></g>
<g><path style="opacity:1" fill="#3a3a3a" d="M 414.5,414.5 C 413.833,416.5 412.5,417.833 410.5,418.5C 411.167,416.5 412.5,415.167 414.5,414.5 Z"/></g>
<g><path style="opacity:1" fill="#585858" d="M 410.5,418.5 C 407.769,422.234 404.436,425.234 400.5,427.5C 403.231,423.766 406.564,420.766 410.5,418.5 Z"/></g>
<g><path style="opacity:1" fill="#ededed" d="M 422.5,405.5 C 419.833,408.5 417.167,411.5 414.5,414.5C 412.5,415.167 411.167,416.5 410.5,418.5C 406.564,420.766 403.231,423.766 400.5,427.5C 398.5,429.167 396.5,430.833 394.5,432.5C 398.127,423.034 404.46,415.867 413.5,411C 415.674,407.63 418.674,405.797 422.5,405.5 Z"/></g>
<g><path style="opacity:1" fill="#363636" d="M 400.5,427.5 C 399.211,430.789 396.878,433.122 393.5,434.5C 393.833,433.833 394.167,433.167 394.5,432.5C 396.5,430.833 398.5,429.167 400.5,427.5 Z"/></g>
<g><path style="opacity:1" fill="#9b9b9b" d="M 567.5,413.5 C 561.132,420.869 554.132,427.536 546.5,433.5C 552.842,426.159 559.842,419.492 567.5,413.5 Z"/></g>
<g><path style="opacity:1" fill="#808080" d="M 546.5,433.5 C 546.167,434.5 545.5,435.167 544.5,435.5C 544.5,434.167 545.167,433.5 546.5,433.5 Z"/></g>
<g><path style="opacity:1" fill="#474747" d="M 391.5,436.5 C 391.19,438.144 390.19,439.144 388.5,439.5C 388.81,437.856 389.81,436.856 391.5,436.5 Z"/></g>
<g><path style="opacity:1" fill="#4f4f4f" d="M 387.5,440.5 C 381.132,447.869 374.132,454.536 366.5,460.5C 372.842,453.159 379.842,446.492 387.5,440.5 Z"/></g>
<g><path style="opacity:1" fill="#9e9e9e" d="M 544.5,435.5 C 537.778,443.224 530.445,450.224 522.5,456.5C 529.222,448.776 536.555,441.776 544.5,435.5 Z"/></g>
<g><path style="opacity:1" fill="#7e7e7e" d="M 520.5,458.5 C 520.167,459.5 519.5,460.167 518.5,460.5C 518.5,459.167 519.167,458.5 520.5,458.5 Z"/></g>
<g><path style="opacity:1" fill="#6e6e6e" d="M 366.5,460.5 C 366.167,461.5 365.5,462.167 364.5,462.5C 364.5,461.167 365.167,460.5 366.5,460.5 Z"/></g>
<g><path style="opacity:1" fill="#858585" d="M 518.5,460.5 C 518.167,461.5 517.5,462.167 516.5,462.5C 516.5,461.167 517.167,460.5 518.5,460.5 Z"/></g>
<g><path style="opacity:1" fill="#8f8f8f" d="M 516.5,462.5 C 516.167,463.5 515.5,464.167 514.5,464.5C 514.5,463.167 515.167,462.5 516.5,462.5 Z"/></g>
<g><path style="opacity:1" fill="#6a6a6a" d="M 364.5,462.5 C 362.5,465.167 360.167,467.5 357.5,469.5C 358.833,466.167 361.167,463.833 364.5,462.5 Z"/></g>
<g><path style="opacity:1" fill="#989898" d="M 514.5,464.5 C 500.395,478.104 486.395,491.938 472.5,506C 471.906,506.464 471.239,506.631 470.5,506.5C 484.252,491.412 498.919,477.412 514.5,464.5 Z"/></g>
<g><path style="opacity:1" fill="#545454" d="M 357.5,469.5 C 354.437,473.566 350.771,476.899 346.5,479.5C 349.563,475.434 353.229,472.101 357.5,469.5 Z"/></g>
<g><path style="opacity:1" fill="#515151" d="M 346.5,479.5 C 346.5,480.833 345.833,481.5 344.5,481.5C 344.833,480.5 345.5,479.833 346.5,479.5 Z"/></g>
<g><path style="opacity:1" fill="#373737" d="M 342.5,483.5 C 342.5,485.5 341.5,486.5 339.5,486.5C 340.167,485.167 341.167,484.167 342.5,483.5 Z"/></g>
<g><path style="opacity:1" fill="#5b5b5b" d="M 339.5,486.5 C 339.19,488.144 338.19,489.144 336.5,489.5C 336.81,487.856 337.81,486.856 339.5,486.5 Z"/></g>
<g><path style="opacity:1" fill="#6a6a6a" d="M 336.5,489.5 C 333.833,492.833 330.833,495.833 327.5,498.5C 329.5,494.5 332.5,491.5 336.5,489.5 Z"/></g>
<g><path style="opacity:1" fill="#545454" d="M 327.5,498.5 C 324.126,502.876 320.126,506.542 315.5,509.5C 318.848,505.153 322.848,501.486 327.5,498.5 Z"/></g>
<g><path style="opacity:1" fill="#787878" d="M 315.5,509.5 C 315.167,510.5 314.5,511.167 313.5,511.5C 313.5,510.167 314.167,509.5 315.5,509.5 Z"/></g>
<g><path style="opacity:1" fill="#bebebe" d="M 470.5,506.5 C 469.167,509.833 466.833,512.167 463.5,513.5C 463.5,513.167 463.5,512.833 463.5,512.5C 465.841,510.455 468.174,508.455 470.5,506.5 Z"/></g>
<g><path style="opacity:1" fill="#626262" d="M 313.5,511.5 C 307.111,518.891 300.111,525.557 292.5,531.5C 295.167,528.5 297.833,525.5 300.5,522.5C 304.559,518.435 308.893,514.768 313.5,511.5 Z"/></g>
<g><path style="opacity:1" fill="#898989" d="M 463.5,512.5 C 463.5,512.833 463.5,513.167 463.5,513.5C 461.761,516.243 459.427,518.243 456.5,519.5C 458.5,516.833 460.833,514.5 463.5,512.5 Z"/></g>
<g><path style="opacity:1" fill="#aeaeae" d="M 456.5,519.5 C 452.271,525.401 447.271,530.734 441.5,535.5C 441.5,535.167 441.5,534.833 441.5,534.5C 446.167,529.167 451.167,524.167 456.5,519.5 Z"/></g>
<g><path style="opacity:1" fill="#f1f1f1" d="M 300.5,522.5 C 297.833,525.5 295.167,528.5 292.5,531.5C 290.167,533.167 288.167,535.167 286.5,537.5C 283.5,538.5 281.5,540.5 280.5,543.5C 278.596,543.738 277.262,544.738 276.5,546.5C 275.167,547.5 273.833,548.5 272.5,549.5C 272.489,547.983 271.823,546.816 270.5,546C 275.668,541.332 280.668,536.498 285.5,531.5C 289.21,528.831 292.876,526.164 296.5,523.5C 297.689,522.571 299.022,522.238 300.5,522.5 Z"/></g>
<g><path style="opacity:1" fill="#6a6a6a" d="M 286.5,537.5 C 284.833,539.833 282.833,541.833 280.5,543.5C 281.5,540.5 283.5,538.5 286.5,537.5 Z"/></g>
<g><path style="opacity:1" fill="#8f8f8f" d="M 441.5,534.5 C 441.5,534.833 441.5,535.167 441.5,535.5C 437.5,539.167 433.5,542.833 429.5,546.5C 429.167,546.5 428.833,546.5 428.5,546.5C 432.227,541.77 436.56,537.77 441.5,534.5 Z"/></g>
<g><path style="opacity:1" fill="#636363" d="M 280.5,543.5 C 279.738,545.262 278.404,546.262 276.5,546.5C 277.262,544.738 278.596,543.738 280.5,543.5 Z"/></g>
<g><path style="opacity:1" fill="#adadad" d="M 428.5,546.5 C 428.833,546.5 429.167,546.5 429.5,546.5C 426.437,550.566 422.771,553.899 418.5,556.5C 421.5,552.833 424.833,549.5 428.5,546.5 Z"/></g>
<g><path style="opacity:1" fill="#b3b3b3" d="M 418.5,556.5 C 417.856,559.144 416.189,560.811 413.5,561.5C 414.785,559.548 416.451,557.882 418.5,556.5 Z"/></g>
<g><path style="opacity:1" fill="#8a8a8a" d="M 413.5,561.5 C 413.167,562.5 412.5,563.167 411.5,563.5C 411.5,562.167 412.167,561.5 413.5,561.5 Z"/></g>
<g><path style="opacity:1" fill="#949494" d="M 411.5,563.5 C 408.437,567.566 404.771,570.899 400.5,573.5C 403.563,569.434 407.229,566.101 411.5,563.5 Z"/></g>
<g><path style="opacity:1" fill="#575757" d="M 276.5,546.5 C 273.102,551.406 269.102,555.906 264.5,560C 257.609,566.397 250.609,572.564 243.5,578.5C 244.5,577.167 245.5,575.833 246.5,574.5C 255.193,566.139 263.86,557.806 272.5,549.5C 273.833,548.5 275.167,547.5 276.5,546.5 Z"/></g>
<g><path style="opacity:1" fill="#bbbbbb" d="M 400.5,573.5 C 400.001,576.264 398.335,577.931 395.5,578.5C 396.833,576.5 398.5,574.833 400.5,573.5 Z"/></g>
<g><path style="opacity:1" fill="#ebebeb" d="M 246.5,574.5 C 245.5,575.833 244.5,577.167 243.5,578.5C 242.5,578.833 241.833,579.5 241.5,580.5C 240.167,581.167 239.167,582.167 238.5,583.5C 235.5,585.833 232.833,588.5 230.5,591.5C 227.236,593.094 224.569,595.427 222.5,598.5C 220.833,599.5 219.5,600.833 218.5,602.5C 217.833,602.833 217.167,603.167 216.5,603.5C 216.238,602.022 216.571,600.689 217.5,599.5C 220.264,596.169 222.931,592.669 225.5,589C 227.552,587.188 229.885,585.855 232.5,585C 236.393,580.246 241.059,576.746 246.5,574.5 Z"/></g>
<g><path style="opacity:1" fill="#a4a4a4" d="M 393.5,580.5 C 393.19,582.144 392.19,583.144 390.5,583.5C 390.81,581.856 391.81,580.856 393.5,580.5 Z"/></g>
<g><path style="opacity:1" fill="#393939" d="M 241.5,580.5 C 241.5,582.5 240.5,583.5 238.5,583.5C 239.167,582.167 240.167,581.167 241.5,580.5 Z"/></g>
<g><path style="opacity:1" fill="#5b5b5b" d="M 230.5,591.5 C 228.431,594.573 225.764,596.906 222.5,598.5C 224.569,595.427 227.236,593.094 230.5,591.5 Z"/></g>
<g><path style="opacity:1" fill="#363636" d="M 222.5,598.5 C 222.512,601.142 221.179,602.475 218.5,602.5C 219.5,600.833 220.833,599.5 222.5,598.5 Z"/></g>
<g><path style="opacity:1" fill="#9d9d9d" d="M 390.5,583.5 C 383.799,591.202 376.466,598.202 368.5,604.5C 375.175,596.826 382.508,589.826 390.5,583.5 Z"/></g>
<g><path style="opacity:1" fill="#454545" d="M 218.5,602.5 C 218.5,604.5 217.5,605.5 215.5,605.5C 215.833,604.833 216.167,604.167 216.5,603.5C 217.167,603.167 217.833,602.833 218.5,602.5 Z"/></g>
<g><path style="opacity:1" fill="#808080" d="M 368.5,604.5 C 368.167,605.5 367.5,606.167 366.5,606.5C 366.5,605.167 367.167,604.5 368.5,604.5 Z"/></g>
<g><path style="opacity:1" fill="#515151" d="M 213.5,607.5 C 213.19,609.144 212.19,610.144 210.5,610.5C 210.81,608.856 211.81,607.856 213.5,607.5 Z"/></g>
<g><path style="opacity:1" fill="#929292" d="M 366.5,606.5 C 364.877,609.491 362.543,611.824 359.5,613.5C 359.369,612.761 359.536,612.094 360,611.5C 362.356,609.925 364.522,608.259 366.5,606.5 Z"/></g>
<g><path style="opacity:1" fill="#686868" d="M 210.5,610.5 C 207.5,614.167 204.167,617.5 200.5,620.5C 200.167,620.5 199.833,620.5 199.5,620.5C 202.563,616.434 206.229,613.101 210.5,610.5 Z"/></g>
<g><path style="opacity:1" fill="#9f9f9f" d="M 359.5,613.5 C 355.773,618.23 351.44,622.23 346.5,625.5C 350.227,620.77 354.56,616.77 359.5,613.5 Z"/></g>
<g><path style="opacity:1" fill="#444444" d="M 199.5,620.5 C 199.833,620.5 200.167,620.5 200.5,620.5C 197.437,624.566 193.771,627.899 189.5,630.5C 192.5,626.833 195.833,623.5 199.5,620.5 Z"/></g>
<g><path style="opacity:1" fill="#c3c3c3" d="M 346.5,625.5 C 346.001,628.264 344.335,629.931 341.5,630.5C 342.833,628.5 344.5,626.833 346.5,625.5 Z"/></g>
<g><path style="opacity:1" fill="#e5e5e5" d="M 188.5,630.5 C 183.833,635.833 178.833,640.833 173.5,645.5C 171.5,646.833 169.833,648.5 168.5,650.5C 167.5,650.833 166.833,651.5 166.5,652.5C 165.5,652.833 164.833,653.5 164.5,654.5C 163.833,654.833 163.167,655.167 162.5,655.5C 162.238,654.022 162.571,652.689 163.5,651.5C 170.489,645.016 177.489,638.182 184.5,631C 185.793,630.51 187.127,630.343 188.5,630.5 Z"/></g>
<g><path style="opacity:1" fill="#ababab" d="M 339.5,632.5 C 339.19,634.144 338.19,635.144 336.5,635.5C 336.81,633.856 337.81,632.856 339.5,632.5 Z"/></g>
<g><path style="opacity:1" fill="#515151" d="M 113.5,633.5 C 116.243,635.239 118.243,637.573 119.5,640.5C 116.757,638.761 114.757,636.427 113.5,633.5 Z"/></g>
<g><path style="opacity:1" fill="#424242" d="M 124.5,645.5 C 125.833,646.167 126.833,647.167 127.5,648.5C 125.5,648.5 124.5,647.5 124.5,645.5 Z"/></g>
<g><path style="opacity:1" fill="#acacac" d="M 127.5,648.5 C 128.609,648.557 129.609,648.89 130.5,649.5C 130.5,650.167 130.5,650.833 130.5,651.5C 129.167,650.833 128.167,649.833 127.5,648.5 Z"/></g>
<g><path style="opacity:1" fill="#515151" d="M 173.5,645.5 C 172.833,648.167 171.167,649.833 168.5,650.5C 169.833,648.5 171.5,646.833 173.5,645.5 Z"/></g>
<g><path style="opacity:1" fill="#555555" d="M 168.5,650.5 C 168.5,651.833 167.833,652.5 166.5,652.5C 166.833,651.5 167.5,650.833 168.5,650.5 Z"/></g>
<g><path style="opacity:1" fill="#3c3c3c" d="M 164.5,654.5 C 164.5,656.5 163.5,657.5 161.5,657.5C 161.833,656.833 162.167,656.167 162.5,655.5C 163.167,655.167 163.833,654.833 164.5,654.5 Z"/></g>
<g><path style="opacity:1" fill="#919191" d="M 336.5,635.5 C 322.395,649.104 308.395,662.938 294.5,677C 293.906,677.464 293.239,677.631 292.5,677.5C 306.252,662.412 320.919,648.412 336.5,635.5 Z"/></g>
<g><path style="opacity:1" fill="#555555" d="M 135.5,657.5 C 138.243,659.239 140.243,661.573 141.5,664.5C 138.757,662.761 136.757,660.427 135.5,657.5 Z"/></g>
<g><path style="opacity:1" fill="#7f7f7f" d="M 141.5,664.5 C 144.167,665.167 145.833,666.833 146.5,669.5C 144.5,668.167 142.833,666.5 141.5,664.5 Z"/></g>
<g><path style="opacity:1" fill="#6e6e6e" d="M 156.5,662.5 C 154.5,665.167 152.167,667.5 149.5,669.5C 150.833,666.167 153.167,663.833 156.5,662.5 Z"/></g>
<g><path style="opacity:1" fill="#c3c3c3" d="M 290.5,679.5 C 289.833,682.167 288.167,683.833 285.5,684.5C 285.5,684.167 285.5,683.833 285.5,683.5C 287.167,682.167 288.833,680.833 290.5,679.5 Z"/></g>
<g><path style="opacity:1" fill="#8b8b8b" d="M 285.5,683.5 C 285.5,683.833 285.5,684.167 285.5,684.5C 283.167,687.5 280.5,690.167 277.5,692.5C 277.167,692.5 276.833,692.5 276.5,692.5C 279.167,689.167 282.167,686.167 285.5,683.5 Z"/></g>
<g><path style="opacity:1" fill="#a9a9a9" d="M 276.5,692.5 C 276.833,692.5 277.167,692.5 277.5,692.5C 274.105,696.898 270.105,700.564 265.5,703.5C 268.833,699.5 272.5,695.833 276.5,692.5 Z"/></g>
<g><path style="opacity:1" fill="#9e9e9e" d="M 265.5,703.5 C 256.134,713.866 246.134,723.533 235.5,732.5C 244.839,722.161 254.839,712.494 265.5,703.5 Z"/></g>
<g><path style="opacity:1" fill="#888888" d="M 235.5,732.5 C 235.167,733.5 234.5,734.167 233.5,734.5C 233.5,733.167 234.167,732.5 235.5,732.5 Z"/></g>
<g><path style="opacity:1" fill="#919191" d="M 233.5,734.5 C 230.437,738.566 226.771,741.899 222.5,744.5C 225.563,740.434 229.229,737.101 233.5,734.5 Z"/></g>
<g><path style="opacity:1" fill="#a6a6a6" d="M 222.5,744.5 C 221.833,746.5 221.167,748.5 220.5,750.5C 218.984,747.92 219.651,745.92 222.5,744.5 Z"/></g>
<g><path style="opacity:1" fill="#979797" d="M 220.5,750.5 C 221.833,750.5 222.5,751.167 222.5,752.5C 221.5,752.167 220.833,751.5 220.5,750.5 Z"/></g>
<g><path style="opacity:1" fill="#434343" d="M 227.5,758.5 C 229.833,760.167 231.833,762.167 233.5,764.5C 233.5,764.833 233.5,765.167 233.5,765.5C 230.757,763.761 228.757,761.427 227.5,758.5 Z"/></g>
<g><path style="opacity:1" fill="#acacac" d="M 233.5,765.5 C 233.5,765.167 233.5,764.833 233.5,764.5C 235.5,764.5 236.5,765.5 236.5,767.5C 235.5,766.833 234.5,766.167 233.5,765.5 Z"/></g>
<g><path style="opacity:1" fill="#565656" d="M 241.5,773.5 C 242.167,773.833 242.833,774.167 243.5,774.5C 245.252,776.246 246.585,778.246 247.5,780.5C 244.757,778.761 242.757,776.427 241.5,773.5 Z"/></g>
<g><path style="opacity:1" fill="#fefefe" d="M 788.5,785.5 C 788.5,786.5 788.5,787.5 788.5,788.5C 611.167,788.5 433.833,788.5 256.5,788.5C 255.833,788.5 255.5,788.167 255.5,787.5C 432.83,785.501 610.497,784.835 788.5,785.5 Z"/></g>
<g><path style="opacity:1" fill="#b1b1b1" d="M 788.5,109.5 C 789.5,335.999 789.833,562.666 789.5,789.5C 611.666,789.833 433.999,789.5 256.5,788.5C 433.833,788.5 611.167,788.5 788.5,788.5C 788.5,787.5 788.5,786.5 788.5,785.5C 788.5,785.167 788.5,784.833 788.5,784.5C 788.5,559.833 788.5,335.167 788.5,110.5C 788.5,110.167 788.5,109.833 788.5,109.5 Z"/></g>
<g><path style="opacity:1" fill="#484848" d="M 252.5,785.5 C 253.5,786.167 254.5,786.833 255.5,787.5C 255.5,788.167 255.833,788.5 256.5,788.5C 433.999,789.5 611.666,789.833 789.5,789.5C 611.667,790.666 433.667,790.833 255.5,790C 253.859,788.871 252.859,787.371 252.5,785.5 Z"/></g>
</svg>
