<?xml version="1.0" encoding="UTF-8"?>
<!DOCTYPE svg PUBLIC "-//W3C//DTD SVG 1.1//EN" "http://www.w3.org/Graphics/SVG/1.1/DTD/svg11.dtd">
<svg xmlns="http://www.w3.org/2000/svg" version="1.1" width="800px" height="800px" style="shape-rendering:geometricPrecision; text-rendering:geometricPrecision; image-rendering:optimizeQuality; fill-rule:evenodd; clip-rule:evenodd" xmlns:xlink="http://www.w3.org/1999/xlink">
<g><path style="opacity:1" fill="#fefefe" d="M -0.5,-0.5 C 266.167,-0.5 532.833,-0.5 799.5,-0.5C 799.5,266.167 799.5,532.833 799.5,799.5C 532.833,799.5 266.167,799.5 -0.5,799.5C -0.5,532.833 -0.5,266.167 -0.5,-0.5 Z"/></g>
<g><path style="opacity:1" fill="#f6f6f6" d="M 220.5,191.5 C 363.834,191.333 507.167,191.5 650.5,192C 700.539,200.37 731.706,229.204 744,278.5C 745.02,285.799 745.687,293.132 746,300.5C 747.149,345.832 747.816,391.166 748,436.5C 741.856,487.976 713.69,520.142 663.5,533C 656.875,534.045 650.208,534.711 643.5,535C 610.5,535.667 577.5,535.667 544.5,535C 532.806,533.881 521.139,532.881 509.5,532C 507.376,533.122 505.543,534.622 504,536.5C 466.925,589.617 416.092,612.784 351.5,606C 324.414,600.21 302.581,586.376 286,564.5C 279.98,554.109 274.147,543.609 268.5,533C 255.276,535.04 241.943,536.707 228.5,538C 206.5,538.667 184.5,538.667 162.5,538C 108.364,535.995 72.6977,509.495 55.5,458.5C 45.8201,419.059 53.3201,383.392 78,351.5C 90.7694,338.385 105.436,328.052 122,320.5C 123.131,318.275 123.964,315.942 124.5,313.5C 119.936,265.284 138.27,228.784 179.5,204C 192.581,197.469 206.248,193.303 220.5,191.5 Z"/></g>
<g><path style="opacity:1" fill="#f0f0f0" d="M 219.5,194.5 C 363.5,194.333 507.5,194.5 651.5,195C 702.783,204.616 732.949,235.116 742,286.5C 744.02,336.144 745.02,385.81 745,435.5C 739.666,485.833 712.5,517.333 663.5,530C 656.209,531.081 648.876,531.747 641.5,532C 604.484,532.888 567.484,532.554 530.5,531C 524.767,530.153 519.1,528.987 513.5,527.5C 508.172,528.324 504.005,530.991 501,535.5C 462.319,590.249 409.819,612.082 343.5,601C 308.827,589.66 285.327,566.827 273,532.5C 271.786,530.951 270.286,529.785 268.5,529C 259.535,530.487 250.535,532.154 241.5,534C 210.168,535.979 178.835,535.979 147.5,534C 97.4116,525.244 66.9116,496.077 56,446.5C 48.8106,389.359 70.9773,348.525 122.5,324C 125.877,321.545 127.543,318.211 127.5,314C 122.823,267.022 140.49,231.355 180.5,207C 192.88,200.496 205.88,196.33 219.5,194.5 Z"/></g>
<g><path style="opacity:1" fill="#eaeaea" d="M 223.5,196.5 C 364.834,196.333 506.167,196.5 647.5,197C 690.153,202.131 719.32,224.965 735,265.5C 737.138,272.386 738.805,279.386 740,286.5C 741.248,332.748 742.415,378.915 743.5,425C 743.39,469.252 723.724,501.252 684.5,521C 670.765,526.814 656.432,529.814 641.5,530C 609.833,530.667 578.167,530.667 546.5,530C 533.764,528.874 521.097,527.541 508.5,526C 506.695,526.972 505.028,528.139 503.5,529.5C 484.46,557.044 459.793,577.877 429.5,592C 399.144,603.937 368.478,605.604 337.5,597C 306.351,584.518 285.518,562.352 275,530.5C 273.159,527.822 270.659,526.155 267.5,525.5C 257.71,528.781 247.71,531.114 237.5,532.5C 209.01,532.646 180.343,532.479 151.5,532C 101.843,525.319 70.8426,497.985 58.5,450C 49.8065,391.244 72.6398,349.077 127,323.5C 127.667,322.167 128.333,320.833 129,319.5C 123.767,276.503 137.934,241.669 171.5,215C 187.338,204.334 204.672,198.167 223.5,196.5 Z"/></g>
<g><path style="opacity:1" fill="#4a1955" d="M 721.5,250.5 C 721.5,250.833 721.5,251.167 721.5,251.5C 728.143,262.927 732.309,275.26 734,288.5C 735.61,338.824 736.277,389.158 736,439.5C 730.559,480.61 708.059,507.443 668.5,520C 662.893,521.323 657.226,522.323 651.5,523C 611.833,523.667 572.167,523.667 532.5,523C 522.811,521.77 513.644,518.936 505,514.5C 487.234,545.933 462.067,569.433 429.5,585C 400.153,597.737 370.153,599.737 339.5,591C 304.471,576.295 283.971,550.129 278,512.5C 265.182,519.994 251.349,524.494 236.5,526C 208.833,526.667 181.167,526.667 153.5,526C 103.309,519.477 73.4754,491.311 64,441.5C 59.9762,408.715 68.8095,380.049 90.5,355.5C 104.126,341.852 120.459,333.185 139.5,329.5C 128.694,289.511 138.027,255.178 167.5,226.5C 171.538,223.488 175.538,220.488 179.5,217.5C 191.819,210.116 205.152,205.616 219.5,204C 363.167,203.333 506.833,203.333 650.5,204C 681.554,208.509 705.221,224.009 721.5,250.5 Z"/></g>
<g><path style="opacity:1" fill="#461850" d="M 413.5,425.5 C 414.11,426.391 414.443,427.391 414.5,428.5C 410.208,442.084 404.041,454.751 396,466.5C 392.133,470.846 387.633,474.346 382.5,477C 372.802,478.666 363.802,481.999 355.5,487C 345.377,499.978 346.377,511.978 358.5,523C 366.334,527.193 374.667,528.526 383.5,527C 407.406,521.963 425.906,509.13 439,488.5C 444.857,478.786 450.191,468.786 455,458.5C 475.375,411.413 496.041,364.413 517,317.5C 520.687,309.093 521.687,300.759 520,292.5C 512.278,276.147 500.111,271.647 483.5,279C 477.423,283.976 472.923,290.142 470,297.5C 458.767,326.386 447.267,355.053 435.5,383.5C 434.463,382.07 433.796,380.403 433.5,378.5C 445.377,347.742 457.543,317.076 470,286.5C 481.689,270.204 496.189,266.704 513.5,276C 523.433,284.12 527.266,294.62 525,307.5C 523.197,313.242 521.197,318.909 519,324.5C 497.375,372.746 476.041,421.08 455,469.5C 446.522,487.309 435.022,502.809 420.5,516C 405.855,526.547 389.688,532.047 372,532.5C 349.104,527.985 340.438,514.652 346,492.5C 349.312,485.733 354.479,480.9 361.5,478C 369.824,476.254 377.824,473.587 385.5,470C 397.097,458.323 405.264,444.49 410,428.5C 410.759,426.937 411.926,425.937 413.5,425.5 Z"/></g>
<g><path style="opacity:1" fill="#441a4e" d="M 414.5,428.5 C 415.167,428.5 415.5,428.833 415.5,429.5C 416.305,431.915 417.305,434.249 418.5,436.5C 413.708,452.259 405.708,466.092 394.5,478C 386.068,483.633 376.735,486.3 366.5,486C 353.479,492.21 350.312,501.71 357,514.5C 361.428,520.296 367.262,522.629 374.5,521.5C 387.995,521.391 400.328,517.557 411.5,510C 427.848,496.643 440.014,480.143 448,460.5C 470.667,409.167 493.333,357.833 516,306.5C 517.865,287.698 509.365,279.198 490.5,281C 486.759,282.738 483.592,285.238 481,288.5C 466.6,323.297 452.766,358.297 439.5,393.5C 437.975,390.921 436.641,388.254 435.5,385.5C 435.5,384.833 435.5,384.167 435.5,383.5C 447.267,355.053 458.767,326.386 470,297.5C 472.923,290.142 477.423,283.976 483.5,279C 500.111,271.647 512.278,276.147 520,292.5C 521.687,300.759 520.687,309.093 517,317.5C 496.041,364.413 475.375,411.413 455,458.5C 450.191,468.786 444.857,478.786 439,488.5C 425.906,509.13 407.406,521.963 383.5,527C 374.667,528.526 366.334,527.193 358.5,523C 346.377,511.978 345.377,499.978 355.5,487C 363.802,481.999 372.802,478.666 382.5,477C 387.633,474.346 392.133,470.846 396,466.5C 404.041,454.751 410.208,442.084 414.5,428.5 Z"/></g>
<g><path style="opacity:1" fill="#fdfdfd" d="M 418.5,436.5 C 425.739,422.354 432.739,408.021 439.5,393.5C 452.766,358.297 466.6,323.297 481,288.5C 483.592,285.238 486.759,282.738 490.5,281C 509.365,279.198 517.865,287.698 516,306.5C 493.333,357.833 470.667,409.167 448,460.5C 440.014,480.143 427.848,496.643 411.5,510C 400.328,517.557 387.995,521.391 374.5,521.5C 367.262,522.629 361.428,520.296 357,514.5C 350.312,501.71 353.479,492.21 366.5,486C 376.735,486.3 386.068,483.633 394.5,478C 405.708,466.092 413.708,452.259 418.5,436.5 Z"/></g>
<g><path style="opacity:1" fill="#e2e3e3" d="M 705.5,504.5 C 725.154,486.525 736.321,464.191 739,437.5C 738.889,389.831 738.222,342.164 737,294.5C 735.985,280.105 732.318,266.438 726,253.5C 724.67,252.418 723.17,251.751 721.5,251.5C 721.5,251.167 721.5,250.833 721.5,250.5C 720.947,245.105 718.78,240.438 715,236.5C 698.491,216.492 677.324,204.658 651.5,201C 507.5,200.333 363.5,200.333 219.5,201C 206.818,202.45 194.818,206.116 183.5,212C 181.79,213.651 180.456,215.484 179.5,217.5C 175.538,220.488 171.538,223.488 167.5,226.5C 165.801,226.34 164.134,226.506 162.5,227C 138.552,251.679 128.886,281.179 133.5,315.5C 133.239,319.45 132.072,323.117 130,326.5C 121.452,330.858 112.952,335.358 104.5,340C 99.7211,343.478 95.2211,347.311 91,351.5C 90.51,352.793 90.3433,354.127 90.5,355.5C 85.6055,355.892 82.7722,358.559 82,363.5C 75.9635,368.542 71.6302,374.876 69,382.5C 54.5163,420.151 58.1829,455.818 80,489.5C 97.3233,511.754 120.157,524.588 148.5,528C 176.144,529.564 203.811,529.898 231.5,529C 244.363,528.158 256.863,525.658 269,521.5C 272.415,521.906 275.082,523.572 277,526.5C 296.824,580.175 335.324,604.009 392.5,598C 438.322,590.488 473.822,567.321 499,528.5C 501.365,525.131 504.532,522.964 508.5,522C 519.434,523.418 530.434,524.751 541.5,526C 576.5,526.667 611.5,526.667 646.5,526C 666.07,524.779 684.07,518.946 700.5,508.5C 691.845,515.921 681.845,521.088 670.5,524C 665.552,525.256 660.552,526.256 655.5,527C 620.847,528.517 586.181,528.851 551.5,528C 536.729,527.313 522.062,525.979 507.5,524C 504.37,526.128 501.537,528.628 499,531.5C 469.036,575.74 427.203,599.074 373.5,601.5C 324.836,598.66 292.336,574.327 276,528.5C 274.1,525.599 271.434,523.932 268,523.5C 259.007,526.373 249.84,528.54 240.5,530C 207.794,532.23 175.127,531.897 142.5,529C 93.749,517.583 65.9157,487.083 59,437.5C 55.7557,397.181 69.9224,364.681 101.5,340C 110.687,334.801 119.853,329.634 129,324.5C 130.923,321.456 131.756,318.123 131.5,314.5C 126.919,272.024 141.919,238.524 176.5,214C 189.947,205.628 204.614,200.628 220.5,199C 363.833,198.333 507.167,198.333 650.5,199C 695.051,206.55 723.551,232.05 736,275.5C 737.561,283.092 738.561,290.759 739,298.5C 739.773,340.17 740.606,381.836 741.5,423.5C 742.149,449.267 734.649,472.267 719,492.5C 714.906,497.102 710.406,501.102 705.5,504.5 Z"/></g>
<g><path style="opacity:1" fill="#b7b6b8" d="M 275.5,329.5 C 275.833,329.5 276.167,329.5 276.5,329.5C 277.604,331.389 278.937,333.055 280.5,334.5C 272.731,345.053 264.731,355.386 256.5,365.5C 256.727,363.067 255.727,361.401 253.5,360.5C 253.167,359.833 252.833,359.167 252.5,358.5C 260.878,349.419 268.545,339.752 275.5,329.5 Z"/></g>
<g><path style="opacity:1" fill="#461d50" d="M 601.5,316.5 C 603.833,316.5 606.167,316.5 608.5,316.5C 581.498,353.008 554.665,389.675 528,426.5C 527.194,444.178 535.694,451.512 553.5,448.5C 556.5,448.5 559.5,448.5 562.5,448.5C 590.5,448.5 618.5,448.5 646.5,448.5C 617.003,449.332 587.336,449.832 557.5,450C 548.489,455.398 539.489,455.064 530.5,449C 521.29,439.441 520.123,428.941 527,417.5C 551.843,383.804 576.676,350.137 601.5,316.5 Z"/></g>
<g><path style="opacity:1" fill="#fdfdfd" d="M 633.5,283.5 C 652.75,281.574 660.583,289.907 657,308.5C 631.335,343.659 605.502,378.659 579.5,413.5C 578.662,413.842 578.328,414.508 578.5,415.5C 569.814,426.192 561.481,437.192 553.5,448.5C 535.694,451.512 527.194,444.178 528,426.5C 554.665,389.675 581.498,353.008 608.5,316.5C 617.186,305.808 625.519,294.808 633.5,283.5 Z"/></g>
<g><path style="opacity:1" fill="#b1aeb3" d="M 625.5,283.5 C 628.167,283.5 630.833,283.5 633.5,283.5C 625.519,294.808 617.186,305.808 608.5,316.5C 606.167,316.5 603.833,316.5 601.5,316.5C 582.326,316.83 563.326,316.497 544.5,315.5C 563.845,315.833 583.178,315.5 602.5,314.5C 610.16,304.172 617.826,293.839 625.5,283.5 Z"/></g>
<g><path style="opacity:1" fill="#cccccd" d="M 545.5,283.5 C 572.167,283.5 598.833,283.5 625.5,283.5C 617.826,293.839 610.16,304.172 602.5,314.5C 583.178,315.5 563.845,315.833 544.5,315.5C 531.496,310.484 528.329,301.817 535,289.5C 537.703,286.066 541.203,284.066 545.5,283.5 Z"/></g>
<g><path style="opacity:1" fill="#cccbcd" d="M 433.5,378.5 C 433.796,380.403 434.463,382.07 435.5,383.5C 435.5,384.167 435.5,384.833 435.5,385.5C 429.881,400.731 423.214,415.398 415.5,429.5C 415.5,428.833 415.167,428.5 414.5,428.5C 414.443,427.391 414.11,426.391 413.5,425.5C 396.436,385.816 379.27,346.15 362,306.5C 359.367,294.599 363.534,286.099 374.5,281C 383.503,279.112 391.003,281.612 397,288.5C 409.291,318.56 421.458,348.56 433.5,378.5 Z"/></g>
<g><path style="opacity:1" fill="#fdfdfd" d="M 303.5,364.5 C 295.15,374.187 287.15,384.187 279.5,394.5C 267.491,413.016 254.491,430.849 240.5,448C 226.669,455.057 216.503,451.557 210,437.5C 208.909,431.903 209.576,426.57 212,421.5C 226.667,402.67 241.5,384.004 256.5,365.5C 264.731,355.386 272.731,345.053 280.5,334.5C 292.884,316.915 305.884,299.748 319.5,283C 333.009,277.611 342.843,281.445 349,294.5C 349.913,300.042 349.246,305.375 347,310.5C 332.287,328.374 317.787,346.374 303.5,364.5 Z"/></g>
<g><path style="opacity:1" fill="#cccbcd" d="M 275.5,329.5 C 268.545,339.752 260.878,349.419 252.5,358.5C 239.197,342.355 226.031,326.021 213,309.5C 207.828,296.347 211.661,286.847 224.5,281C 231.438,279.656 237.771,280.99 243.5,285C 254.553,299.627 265.22,314.461 275.5,329.5 Z"/></g>
<g><path style="opacity:1" fill="#461d50" d="M 586.5,414.5 C 583.941,414.802 581.607,414.468 579.5,413.5C 605.502,378.659 631.335,343.659 657,308.5C 660.583,289.907 652.75,281.574 633.5,283.5C 630.833,283.5 628.167,283.5 625.5,283.5C 598.833,283.5 572.167,283.5 545.5,283.5C 573.33,282.668 601.33,282.168 629.5,282C 639.03,276.886 648.03,277.72 656.5,284.5C 664.833,294.494 665.666,305.16 659,316.5C 635.002,349.326 610.835,381.993 586.5,414.5 Z"/></g>
<g><path style="opacity:1" fill="#441a4e" d="M 307.5,369.5 C 305.937,368.055 304.604,366.389 303.5,364.5C 317.787,346.374 332.287,328.374 347,310.5C 349.246,305.375 349.913,300.042 349,294.5C 342.843,281.445 333.009,277.611 319.5,283C 305.884,299.748 292.884,316.915 280.5,334.5C 278.937,333.055 277.604,331.389 276.5,329.5C 286.556,316.412 296.39,303.079 306,289.5C 318.511,273.419 332.844,271.419 349,283.5C 357.331,295.606 356.997,307.606 348,319.5C 334.252,336.014 320.752,352.681 307.5,369.5 Z"/></g>
<g><path style="opacity:1" fill="#d3d1d3" d="M 167.5,226.5 C 138.027,255.178 128.694,289.511 139.5,329.5C 120.459,333.185 104.126,341.852 90.5,355.5C 90.3433,354.127 90.51,352.793 91,351.5C 95.2211,347.311 99.7211,343.478 104.5,340C 112.952,335.358 121.452,330.858 130,326.5C 132.072,323.117 133.239,319.45 133.5,315.5C 128.886,281.179 138.552,251.679 162.5,227C 164.134,226.506 165.801,226.34 167.5,226.5 Z"/></g>
<g><path style="opacity:1" fill="#cfccd0" d="M 721.5,250.5 C 705.221,224.009 681.554,208.509 650.5,204C 506.833,203.333 363.167,203.333 219.5,204C 205.152,205.616 191.819,210.116 179.5,217.5C 180.456,215.484 181.79,213.651 183.5,212C 194.818,206.116 206.818,202.45 219.5,201C 363.5,200.333 507.5,200.333 651.5,201C 677.324,204.658 698.491,216.492 715,236.5C 718.78,240.438 720.947,245.105 721.5,250.5 Z"/></g>
<g><path style="opacity:1" fill="#d6d5d7" d="M 721.5,251.5 C 723.17,251.751 724.67,252.418 726,253.5C 732.318,266.438 735.985,280.105 737,294.5C 738.222,342.164 738.889,389.831 739,437.5C 736.321,464.191 725.154,486.525 705.5,504.5C 703.251,505.08 701.585,506.413 700.5,508.5C 684.07,518.946 666.07,524.779 646.5,526C 611.5,526.667 576.5,526.667 541.5,526C 530.434,524.751 519.434,523.418 508.5,522C 504.532,522.964 501.365,525.131 499,528.5C 473.822,567.321 438.322,590.488 392.5,598C 335.324,604.009 296.824,580.175 277,526.5C 275.082,523.572 272.415,521.906 269,521.5C 256.863,525.658 244.363,528.158 231.5,529C 203.811,529.898 176.144,529.564 148.5,528C 120.157,524.588 97.3233,511.754 80,489.5C 58.1829,455.818 54.5163,420.151 69,382.5C 71.6302,374.876 75.9635,368.542 82,363.5C 82.7722,358.559 85.6055,355.892 90.5,355.5C 68.8095,380.049 59.9762,408.715 64,441.5C 73.4754,491.311 103.309,519.477 153.5,526C 181.167,526.667 208.833,526.667 236.5,526C 251.349,524.494 265.182,519.994 278,512.5C 283.971,550.129 304.471,576.295 339.5,591C 370.153,599.737 400.153,597.737 429.5,585C 462.067,569.433 487.234,545.933 505,514.5C 513.644,518.936 522.811,521.77 532.5,523C 572.167,523.667 611.833,523.667 651.5,523C 657.226,522.323 662.893,521.323 668.5,520C 708.059,507.443 730.559,480.61 736,439.5C 736.277,389.158 735.61,338.824 734,288.5C 732.309,275.26 728.143,262.927 721.5,251.5 Z"/></g>
<g><path style="opacity:1" fill="#cdcdce" d="M 586.5,415.5 C 606.5,415.5 626.5,415.5 646.5,415.5C 660.38,419.6 664.213,428.266 658,441.5C 655.161,445.502 651.327,447.835 646.5,448.5C 618.5,448.5 590.5,448.5 562.5,448.5C 571.243,438.002 579.243,427.002 586.5,415.5 Z"/></g>
<g><path style="opacity:1" fill="#b9b9ba" d="M 578.5,415.5 C 581.167,415.5 583.833,415.5 586.5,415.5C 579.243,427.002 571.243,438.002 562.5,448.5C 559.5,448.5 556.5,448.5 553.5,448.5C 561.481,437.192 569.814,426.192 578.5,415.5 Z"/></g>
<g><path style="opacity:1" fill="#795b80" d="M 579.5,413.5 C 581.607,414.468 583.941,414.802 586.5,414.5C 606.674,414.17 626.674,414.503 646.5,415.5C 626.5,415.5 606.5,415.5 586.5,415.5C 583.833,415.5 581.167,415.5 578.5,415.5C 578.328,414.508 578.662,413.842 579.5,413.5 Z"/></g>
<g><path style="opacity:1" fill="#45184f" d="M 154.5,393.5 C 185.137,392.458 198.637,407.125 195,437.5C 188.132,455.659 175.132,463.659 156,461.5C 135.04,455.849 126.04,442.182 129,420.5C 130.104,413.514 132.937,407.347 137.5,402C 142.731,398.102 148.397,395.269 154.5,393.5 Z"/></g>
<g><path style="opacity:1" fill="#fcfbfc" d="M 155.5,403.5 C 180.67,402.173 190.503,413.84 185,438.5C 183.167,444.333 179.333,448.167 173.5,450C 145.516,454.682 134.683,443.182 141,415.5C 144.031,409.246 148.865,405.246 155.5,403.5 Z"/></g>
<g><path style="opacity:1" fill="#b2b1b3" d="M 435.5,385.5 C 436.641,388.254 437.975,390.921 439.5,393.5C 432.739,408.021 425.739,422.354 418.5,436.5C 417.305,434.249 416.305,431.915 415.5,429.5C 423.214,415.398 429.881,400.731 435.5,385.5 Z"/></g>
<g><path style="opacity:1" fill="#b6b5b7" d="M 303.5,364.5 C 304.604,366.389 305.937,368.055 307.5,369.5C 307.833,370.167 308.167,370.833 308.5,371.5C 307.761,371.369 307.094,371.536 306.5,372C 299.307,380.226 292.473,388.726 286,397.5C 285.517,398.448 285.351,399.448 285.5,400.5C 284.833,400.167 284.167,399.833 283.5,399.5C 282.864,397.205 281.531,395.539 279.5,394.5C 287.15,384.187 295.15,374.187 303.5,364.5 Z"/></g>
<g><path style="opacity:1" fill="#cccbcd" d="M 308.5,371.5 C 321.981,388.431 335.481,405.431 349,422.5C 353.27,433.253 350.77,442.086 341.5,449C 333.959,452.645 326.625,452.311 319.5,448C 307.544,432.578 296.211,416.745 285.5,400.5C 285.351,399.448 285.517,398.448 286,397.5C 292.473,388.726 299.307,380.226 306.5,372C 307.094,371.536 307.761,371.369 308.5,371.5 Z"/></g>
<g><path style="opacity:1" fill="#441a4e" d="M 253.5,360.5 C 255.727,361.401 256.727,363.067 256.5,365.5C 241.5,384.004 226.667,402.67 212,421.5C 209.576,426.57 208.909,431.903 210,437.5C 216.503,451.557 226.669,455.057 240.5,448C 254.491,430.849 267.491,413.016 279.5,394.5C 281.531,395.539 282.864,397.205 283.5,399.5C 274.554,412.953 265.387,426.286 256,439.5C 250.824,447.686 243.657,453.186 234.5,456C 216.402,457.966 206.402,449.966 204.5,432C 204.235,427.128 205.402,422.628 208,418.5C 210.667,414.5 213.333,410.5 216,406.5C 228.28,390.913 240.78,375.58 253.5,360.5 Z"/></g>
</svg>
